<svg width="200" height="200" viewBox="0 0 200 200" fill="none" xmlns="http://www.w3.org/2000/svg">
<g style="mix-blend-mode:darken" clip-path="url(#clip0_1_118)">
<path d="M129.853 111.281L106.409 183.439H30.5355L7.09137 111.281L68.4723 66.6849L129.853 111.281Z" fill="#3F3D56"/>
<path d="M69.3916 133.377H69.0177V133.003H68.9449V133.377H68.571V133.449H68.9449V133.823H69.0177V133.449H69.3916V133.377Z" fill="#F2F2F2"/>
<path d="M65.0831 155.944H64.7091V155.571H64.6364V155.944H64.2625V156.017H64.6364V156.391H64.7091V156.017H65.0831V155.944Z" fill="#F2F2F2"/>
<path d="M89.7028 162.715H89.3288V162.341H89.2559V162.715H88.8821V162.788H89.2559V163.162H89.3288V162.788H89.7028V162.715Z" fill="#F2F2F2"/>
<path d="M85.3943 145.723C85.8475 145.723 86.2149 145.355 86.2149 144.902C86.2149 144.449 85.8475 144.081 85.3943 144.081C84.941 144.081 84.5736 144.449 84.5736 144.902C84.5736 145.355 84.941 145.723 85.3943 145.723Z" fill="#FF6584"/>
<path d="M21.2083 110.606C22.0014 110.606 22.6444 109.963 22.6444 109.17C22.6444 108.377 22.0014 107.734 21.2083 107.734C20.4151 107.734 19.7721 108.377 19.7721 109.17C19.7721 109.963 20.4151 110.606 21.2083 110.606Z" fill="#F2F2F2"/>
<path d="M21.3952 154.698L21.1821 154.65C23.3001 145.288 28.1486 136.764 35.1138 130.159C42.079 123.554 50.8476 119.164 60.3093 117.545C69.7709 115.926 79.5001 117.152 88.2649 121.066C97.0298 124.98 104.436 131.407 109.546 139.533C112.452 144.141 114.554 149.209 115.762 154.521L115.55 154.57C110.52 132.488 91.1676 117.066 68.4869 117.066C46.1034 117.066 26.2985 132.893 21.3952 154.698Z" fill="#F2F2F2"/>
<path d="M95.9785 98.0043H93.8108V183.628H95.9785V98.0043Z" fill="#F2F2F2"/>
<path d="M115.984 108.916C116.122 138.856 95.0572 163.225 95.0572 163.225C95.0572 163.225 73.7689 139.051 73.6309 109.111C73.4929 79.1709 94.5575 54.8019 94.5575 54.8019C94.5575 54.8019 115.846 78.9757 115.984 108.916Z" fill="#6C63FF"/>
<path d="M48.5523 135.939H47.347V183.548H48.5523V135.939Z" fill="#F2F2F2"/>
<path d="M59.6758 142.006C59.7525 158.654 48.04 172.204 48.04 172.204C48.04 172.204 36.2031 158.762 36.1264 142.115C36.0497 125.467 47.7622 111.917 47.7622 111.917C47.7622 111.917 59.5991 125.358 59.6758 142.006Z" fill="#6C63FF"/>
<path opacity="0.1" d="M59.6758 142.006C59.7525 158.654 48.04 172.204 48.04 172.204C48.04 172.204 36.2031 158.762 36.1264 142.115C36.0497 125.467 47.7622 111.917 47.7622 111.917C47.7622 111.917 59.5991 125.358 59.6758 142.006Z" fill="black"/>
<path d="M32.8836 135.939H31.6783V183.548H32.8836V135.939Z" fill="#F2F2F2"/>
<path d="M44.0071 142.006C44.0838 158.654 32.3713 172.204 32.3713 172.204C32.3713 172.204 20.5344 158.762 20.4577 142.115C20.381 125.467 32.0935 111.917 32.0935 111.917C32.0935 111.917 43.9304 125.358 44.0071 142.006Z" fill="#6C63FF"/>
<path d="M49.0803 85.1631H48.7066V84.7891H48.6336V85.1631H48.2597V85.2361H48.6336V85.6098H48.7066V85.2361H49.0803V85.1631Z" fill="#F2F2F2"/>
<path d="M44.7719 107.731H44.3981V107.357H44.3252V107.731H43.9512V107.804H44.3252V108.178H44.3981V107.804H44.7719V107.731Z" fill="#F2F2F2"/>
<path d="M69.3916 114.502H69.0177V114.128H68.9449V114.502H68.571V114.574H68.9449V114.948H69.0177V114.574H69.3916V114.502Z" fill="#F2F2F2"/>
<path d="M65.0831 97.5094C65.5363 97.5094 65.9038 97.1419 65.9038 96.6887C65.9038 96.2355 65.5363 95.868 65.0831 95.868C64.6299 95.868 64.2625 96.2355 64.2625 96.6887C64.2625 97.1419 64.6299 97.5094 65.0831 97.5094Z" fill="#FF6584"/>
<path d="M108.031 94.9351C105.785 91.5965 104.81 87.5635 105.282 83.5676C105.755 79.5716 107.644 75.8773 110.606 73.1545C113.569 70.4317 117.409 68.8607 121.431 68.7265C125.452 68.5923 129.389 69.9037 132.526 72.4229C135.664 74.9421 137.795 78.5023 138.533 82.4579C139.271 86.4134 138.566 90.5024 136.548 93.9834C134.53 97.4643 131.331 100.107 127.531 101.431C123.732 102.756 119.583 102.675 115.838 101.203C115.595 102.07 115.141 102.863 114.517 103.511C113.893 104.159 113.117 104.642 112.26 104.917C111.404 105.192 110.492 105.251 109.607 105.087C108.722 104.923 107.891 104.542 107.19 103.979C106.488 103.416 105.937 102.687 105.586 101.858C105.235 101.03 105.095 100.127 105.178 99.2307C105.261 98.3346 105.566 97.4732 106.064 96.7235C106.561 95.9738 107.238 95.3594 108.031 94.9351V94.9351Z" fill="#3F3D56"/>
<path d="M125.559 91.9748C126.026 91.705 124.796 88.6994 122.811 85.2616C120.826 81.8238 118.838 79.2555 118.371 79.5253C117.904 79.7951 119.134 82.8007 121.119 86.2386C123.104 89.6764 125.091 92.2446 125.559 91.9748Z" fill="#6C63FF"/>
<path d="M122.811 86.2386C124.796 82.8007 126.026 79.7951 125.559 79.5253C125.091 79.2556 123.104 81.8238 121.119 85.2616C119.134 88.6994 117.904 91.705 118.371 91.9748C118.838 92.2446 120.826 89.6764 122.811 86.2386Z" fill="#6C63FF"/>
<path d="M172.012 160.252L170.922 172.784L166.018 173.874L164.928 170.605C164.928 170.605 166.835 161.614 166.835 159.98L172.012 160.252Z" fill="#A0616A"/>
<path d="M158.39 151.534C158.39 151.534 160.569 156.983 161.386 157.528C162.204 158.072 158.934 165.156 158.934 165.156L154.03 164.339C154.03 164.339 155.665 158.617 154.303 155.348L158.39 151.534Z" fill="#A0616A"/>
<path d="M159.888 154.667C159.888 154.667 161.931 155.348 162.749 158.345C163.566 161.342 163.566 161.614 163.566 161.614L162.204 164.611H161.386C161.386 164.611 160.024 169.243 160.297 170.877C160.569 172.512 158.39 178.778 154.575 178.506C150.761 178.233 151.578 173.602 151.578 173.602L153.486 164.066C153.486 164.066 153.486 161.614 154.03 161.614C154.575 161.614 158.934 162.432 158.934 162.432V163.249C158.934 163.249 162.068 159.026 159.888 154.667Z" fill="#2F2E41"/>
<path d="M166.835 171.422V169.788C166.835 169.788 172.557 170.605 172.557 171.422V173.329C172.557 173.329 177.461 183.682 172.012 183.682C166.563 183.682 165.473 181.503 165.473 181.503V178.506C165.473 178.506 162.749 177.143 162.749 176.326C162.749 175.509 165.407 168.289 165.407 168.289C165.407 168.289 165.473 172.512 166.835 171.422Z" fill="#2F2E41"/>
<path d="M173.374 36.5628C178.189 36.5628 182.092 32.6595 182.092 27.8446C182.092 23.0297 178.189 19.1264 173.374 19.1264C168.559 19.1264 164.656 23.0297 164.656 27.8446C164.656 32.6595 168.559 36.5628 173.374 36.5628Z" fill="#A0616A"/>
<path d="M176.779 34.5195C176.779 34.5195 175.69 39.6959 175.69 40.2408C175.69 40.7857 170.513 43.2377 170.513 43.2377L165.882 42.4203L164.247 37.5164C164.247 37.5164 166.972 33.4297 166.972 31.7951L176.779 34.5195Z" fill="#A0616A"/>
<path d="M176.05 38.111C176.05 38.111 173.238 42.6928 169.151 41.3306C168.015 40.9856 167.016 40.2905 166.298 39.3443C165.58 38.3982 165.18 37.2495 165.153 36.0621L151.715 40.7857L154.167 60.674L151.987 83.8317L153.622 86.8286H177.597C177.597 86.8286 178.414 82.7419 178.687 82.7419C178.959 82.7419 179.504 81.9246 179.231 81.6522C178.959 81.3797 178.414 81.1073 178.687 80.2899C178.959 79.4726 179.231 70.482 179.231 70.482L187.405 46.7794L176.05 38.111Z" fill="#D0CDE1"/>
<path d="M186.451 89.9617L181.547 96.5003C181.547 96.5003 180.73 89.6892 179.64 89.4168L182.365 87.5097L186.451 89.9617Z" fill="#A0616A"/>
<path d="M131.963 84.7853C131.963 84.7853 124.607 89.4168 125.424 92.4137C126.241 95.4105 134.687 87.2372 134.687 86.9648C134.687 86.6923 131.963 84.7853 131.963 84.7853Z" fill="#A0616A"/>
<path d="M177.733 84.7853H178.278L179.095 88.5995C179.095 88.5995 183.454 92.4137 181.275 98.4074L176.916 127.014L176.371 160.252L171.467 161.614L166.018 160.524L164.656 116.116C164.656 116.116 162.749 112.03 163.566 110.667C164.383 109.305 163.294 109.578 163.294 109.578L157.572 125.379C157.572 125.379 159.479 130.556 157.572 132.19C157.572 132.19 157.845 133.008 157.572 133.28C157.3 133.553 155.938 134.642 156.482 135.187C157.027 135.732 157.3 135.187 157.3 136.005C157.3 136.822 160.024 143.633 158.934 152.351L155.393 157.8L152.123 155.893L146.13 139.001C146.13 139.001 147.492 136.549 146.13 136.005C144.767 135.46 144.495 134.915 145.04 134.097C145.585 133.28 145.585 130.556 144.767 129.193C143.95 127.831 144.767 125.652 144.767 125.652L147.764 98.135C147.764 98.135 146.402 90.779 151.034 86.9648L151.851 83.9679C151.851 83.9679 158.662 88.8719 177.733 84.7853Z" fill="#2F2E41"/>
<path d="M180.934 20.8207C180.934 20.8207 178.166 14.8234 172.861 16.2074C167.556 17.5913 164.557 19.6673 164.326 21.7433C164.096 23.8193 164.442 26.9333 164.442 26.9333C164.442 26.9333 165.018 22.666 168.709 23.5887C172.4 24.5113 178.166 23.8193 178.166 23.8193L179.089 32.1233C179.089 32.1233 180.127 30.624 181.28 31.5466C182.434 32.4693 184.625 22.666 180.934 20.8207Z" fill="#2F2E41"/>
<path d="M183.318 46.7794H187.405C187.405 46.7794 190.947 49.7763 190.674 55.4976L192.581 71.5718C192.581 71.5718 192.581 79.4726 189.312 85.1939L185.77 92.005C185.77 92.005 184.408 88.1908 180.321 88.7357L182.501 83.0144V81.6522C182.501 81.6522 183.318 80.5624 183.318 80.2899C183.318 80.0175 182.228 80.0175 183.046 79.4726C183.863 78.9277 184.68 73.4789 184.68 73.4789C184.68 73.4789 184.408 72.3891 184.135 72.1166C183.863 71.8442 184.408 71.0269 184.408 71.0269L183.863 70.2095L180.321 56.8598L183.318 46.7794Z" fill="#D0CDE1"/>
<path d="M156.346 39.9684L151.715 40.7857C151.715 40.7857 148.99 43.5101 147.9 46.7794L145.721 56.5874L142.179 63.6709C142.179 63.6709 138.093 67.7575 135.096 77.0206L130.737 85.1939L135.368 87.9184C135.368 87.9184 148.173 72.934 149.808 67.7576L156.891 54.1354L156.346 39.9684Z" fill="#D0CDE1"/>
</g>
<defs>
<clipPath id="clip0_1_118">
<rect width="200" height="200" fill="white"/>
</clipPath>
</defs>
</svg>
