<svg width="200" height="200" viewBox="0 0 200 200" fill="none" xmlns="http://www.w3.org/2000/svg">
<g clip-path="url(#clip0_1_163)">
<path opacity="0.1" d="M38.615 183.475C54.7989 183.475 67.9186 181.185 67.9186 178.36C67.9186 175.535 54.7989 173.245 38.615 173.245C22.431 173.245 9.31133 175.535 9.31133 178.36C9.31133 181.185 22.431 183.475 38.615 183.475Z" fill="black"/>
<path opacity="0.1" d="M161.387 183.978C177.571 183.978 190.691 182.005 190.691 179.572C190.691 177.138 177.571 175.165 161.387 175.165C145.203 175.165 132.083 177.138 132.083 179.572C132.083 182.005 145.203 183.978 161.387 183.978Z" fill="black"/>
<path d="M43.6275 87.6749L52.3012 88.0075C52.3012 88.0075 59.9741 91.6653 59.9741 94.6581C59.9741 97.6509 50.9668 91.3328 50.9668 91.3328L43.6275 91.0003L43.6275 87.6749Z" fill="#FFB9B9"/>
<path opacity="0.1" d="M43.6275 87.6749L52.3012 88.0075C52.3012 88.0075 59.9741 91.6653 59.9741 94.6581C59.9741 97.6509 50.9668 91.3328 50.9668 91.3328L43.6275 91.0003L43.6275 87.6749Z" fill="black"/>
<path d="M43.9611 85.0146C43.9611 85.0146 45.6291 89.0051 45.2955 91.0003C44.9619 92.9955 32.2849 92.3304 32.2849 92.3304L34.2865 86.3448L43.9611 85.0146Z" fill="#FFB9B9"/>
<path d="M31.9514 157.175L31.2842 166.153L36.9555 166.485L37.9561 157.84L31.9514 157.175Z" fill="#FFB9B9"/>
<path d="M31.9513 90.3352L30.6169 93.6605C30.6169 93.6605 27.6144 96.6533 28.2816 103.969C28.9489 111.285 29.2825 111.617 29.2825 111.617C29.2825 111.617 26.6136 157.84 28.9489 158.172C31.2841 158.505 44.2947 164.823 45.6291 157.507C46.9635 150.191 47.6307 120.596 47.6307 120.596L32.2849 92.9954L31.9513 90.3352Z" fill="#2F2E41"/>
<path opacity="0.1" d="M31.9513 90.3352L30.6169 93.6605C30.6169 93.6605 27.6144 96.6533 28.2816 103.969C28.9489 111.285 29.2825 111.617 29.2825 111.617C29.2825 111.617 26.6136 157.84 28.9489 158.172C31.2841 158.505 44.2947 164.823 45.6291 157.507C46.9635 150.191 47.6307 120.596 47.6307 120.596L32.2849 92.9954L31.9513 90.3352Z" fill="black"/>
<path d="M46.9634 151.854L43.961 156.177L48.9651 158.172L53.3021 151.189L46.9634 151.854Z" fill="#FFB9B9"/>
<path d="M43.9611 59.4095C48.1987 59.4095 51.634 55.9853 51.634 51.7613C51.634 47.5372 48.1987 44.113 43.9611 44.113C39.7235 44.113 36.2882 47.5372 36.2882 51.7613C36.2882 55.9853 39.7235 59.4095 43.9611 59.4095Z" fill="#FFB9B9"/>
<path d="M37.9562 49.101C37.9562 49.101 31.2841 56.0842 29.2825 56.4167C27.2808 56.7493 36.2882 62.4023 36.2882 62.4023V60.4071C36.2882 60.4071 39.2906 57.4143 40.9586 57.0818C42.6267 56.7493 37.9562 49.101 37.9562 49.101Z" fill="#FFB9B9"/>
<path d="M32.6185 88.6725L30.6169 93.6605C30.6169 93.6605 26.6136 103.637 32.2849 108.957C37.9562 114.278 54.3028 130.904 53.6356 134.562C52.9684 138.22 43.0799 151.15 46.1893 152.832C49.2987 154.514 83.3264 148.529 83.66 144.538C83.7851 143.042 82.5498 140.143 80.9567 137.103C77.9492 131.406 74.2478 126.1 69.9366 121.307L47.2971 95.9883C47.2971 95.9883 44.9619 91.0002 45.6291 90.0026C45.6291 90.0026 42.9602 87.3424 34.9537 89.3376L32.6185 88.6725Z" fill="#2F2E41"/>
<path d="M30.9505 165.155C30.9505 165.155 29.2825 170.476 28.6153 170.808C27.9481 171.141 27.2808 174.799 27.9481 175.464C28.6153 176.129 28.9489 179.122 28.9489 179.122H29.6161L29.9497 175.796C29.9497 175.796 36.8612 179.956 37.9562 180.452C39.791 181.283 47.9643 181.117 47.6307 179.454C47.2971 177.792 37.6226 172.471 37.9562 171.141C38.2898 169.811 37.289 165.82 37.289 165.82L30.9505 165.155Z" fill="#2F2E41"/>
<path d="M49.966 157.84L43.2939 155.179C43.2939 155.179 41.6258 157.84 39.6242 157.84C37.6226 157.84 36.0667 160.258 36.1774 160.379C36.2882 160.5 33.2857 164.49 33.2857 164.49L33.8248 165.457L37.6226 163.16L38.687 167.616C39.2727 170.132 40.426 172.483 42.0592 174.488C43.368 176.076 44.999 177.422 46.6299 177.127C46.6299 177.127 47.2971 177.127 46.6299 172.471C45.9627 167.816 47.2971 162.828 47.2971 162.828L49.966 157.84Z" fill="#2F2E41"/>
<path d="M32.6185 56.0842C32.6185 56.0842 33.2857 57.7469 33.9529 58.0794C34.6201 58.4119 36.6218 59.7421 36.9554 61.0722C37.289 62.4023 38.957 66.3927 38.957 66.3927C38.957 66.3927 42.6267 68.3879 42.293 72.0458C41.9594 75.7037 41.6258 78.6965 42.293 79.029C42.9603 79.3616 43.6275 79.3616 43.2939 80.3592C42.9603 81.3568 43.9611 82.3544 44.2947 82.6869C44.6283 83.0194 45.2955 82.3544 44.6283 83.352C43.9611 84.3496 44.2947 84.6821 44.6283 85.0146C44.9619 85.3472 45.2955 85.3472 44.9619 86.0122C44.6283 86.6773 32.2849 91.0003 31.6177 91.0003C30.9505 91.0003 30.9505 90.3352 31.2841 89.3376C31.6177 88.34 32.9521 87.3424 31.6177 87.0098C30.2833 86.6773 29.9497 86.6773 29.9497 85.0146C29.9497 83.352 24.2784 73.3759 24.2784 73.3759C24.2784 73.3759 21.9431 65.7277 24.2784 62.4023C26.6136 59.077 28.2816 56.7493 29.6161 56.0842C30.9505 55.4191 32.6185 56.0842 32.6185 56.0842Z" fill="#6C63FF"/>
<path d="M21.6096 71.7133L17.6063 82.6869L9.59979 106.297C9.59979 106.297 1.25968 117.936 6.93094 117.27C12.6022 116.605 13.2694 106.297 13.2694 106.297L20.9423 88.0074L27.9481 74.041L21.6096 71.7133Z" fill="#FFB9B9"/>
<path d="M25.6128 62.0698L24.2784 62.4023C24.2784 62.4023 19.6079 71.7133 20.6087 72.7109C21.6096 73.7085 26.9472 76.3687 27.948 76.0362C28.9488 75.7037 30.2833 66.0602 30.2833 66.0602L25.6128 62.0698Z" fill="#6C63FF"/>
<path d="M26.0059 48.8576C28.5942 47.7232 31.7262 45.2398 34.7004 43.1904C35.6643 42.5262 36.6029 41.8292 37.5368 41.1237C39.419 39.7017 43.9487 39.2085 47.8582 41.7072C52.3265 44.5632 54.5071 49.1198 53.2973 51.0004C52.2972 52.5552 48.9772 52.2825 45.3318 50.5279C44.8193 53.9321 43.6474 57.3246 42.3671 59.3149C39.4702 63.8184 37.0329 59.5726 32.5149 56.6849C27.9969 53.7972 21.0928 51.011 26.0059 48.8576Z" fill="#2F2E41"/>
<path d="M86.6123 125.307C95.1228 125.307 102.022 118.43 102.022 109.947C102.022 101.464 95.1228 94.587 86.6123 94.587C78.1018 94.587 71.2027 101.464 71.2027 109.947C71.2027 118.43 78.1018 125.307 86.6123 125.307Z" fill="#6C63FF"/>
<path d="M161.387 29.8727V58.2534L162.65 57.5715V60.8449L164.166 64.8738C164.166 64.8738 165.682 64.8738 165.682 65.6293C165.682 66.3847 164.166 67.6437 164.166 67.6437H161.387V81.0331L163.155 76.9606H166.439L168.713 81.4931C168.713 81.4931 167.197 81.9967 167.197 83.0039C167.197 84.0111 168.966 86.0256 168.713 87.2846C168.46 88.5437 167.45 90.5581 166.692 91.3135L163.408 94.587H161.387V182.467H176.039V29.8727H161.387Z" fill="#3F3D56"/>
<path d="M153.051 95.8461L156.84 93.8316C156.84 93.8316 157.85 97.6087 156.84 98.3641C155.829 99.1195 151.03 101.134 151.03 101.134L154.061 104.156H149.261L153.051 95.8461Z" fill="#3F3D56"/>
<path d="M143.61 180.183L144.821 180.846C144.821 180.846 143.206 181.641 142.785 181.495C142.365 181.35 141.073 180.433 141.073 180.433L139.961 181.628L139.573 180.422L143.61 180.183Z" fill="#3F3D56"/>
<path d="M147.12 178.555C147.12 178.555 143.032 175.998 146.596 176.61C148.783 176.978 151.007 177.084 153.22 176.925L153.743 178.87L147.12 178.555Z" fill="#3F3D56"/>
<path d="M152.279 182.409C152.279 182.409 148.486 181.563 151.429 181.085C153.242 180.783 155.015 180.278 156.713 179.579L157.563 180.903L152.279 182.409Z" fill="#3F3D56"/>
<path d="M153.303 114.983V113.473H157.345V118.257L153.303 114.983Z" fill="#3F3D56"/>
</g>
<defs>
<clipPath id="clip0_1_163">
<rect width="200" height="200" fill="white"/>
</clipPath>
</defs>
</svg>
