<svg width="200" height="200" viewBox="0 0 200 200" fill="none" xmlns="http://www.w3.org/2000/svg">
<g clip-path="url(#clip0_1_117)">
<g clip-path="url(#clip1_1_117)">
<path d="M6.81695 172.409C6.91666 176.371 7.54012 180.298 8.66895 184.074C8.69398 184.162 8.72176 184.248 8.74879 184.336H15.6595C15.6523 184.257 15.6447 184.17 15.6375 184.074C15.1767 178.435 17.8091 144.524 20.9855 138.655C20.7072 139.131 6.28112 154.492 6.81695 172.409Z" fill="#E6E6E6"/>
<path d="M7.33549 184.074C7.3933 184.162 7.45337 184.25 7.51493 184.336H12.6995C12.6603 184.261 12.6147 184.174 12.5619 184.074C11.7055 182.429 9.17048 177.509 6.81743 172.409C4.28969 166.929 1.96868 161.24 2.16414 159.181C2.10358 159.645 0.353682 173.801 7.33549 184.074Z" fill="#E6E6E6"/>
<path d="M91.371 178.277C91.4216 180.289 91.7384 182.284 92.3119 184.203C92.3246 184.248 92.3387 184.291 92.3525 184.336H95.8636C95.8599 184.296 95.8561 184.252 95.8524 184.203C95.6183 181.338 96.9557 164.109 98.5695 161.127C98.4281 161.369 91.0988 169.173 91.371 178.277Z" fill="#E6E6E6"/>
<path d="M91.6344 184.203C91.6638 184.248 91.6943 184.292 91.7256 184.336H94.3597C94.3397 184.298 94.3166 184.254 94.2898 184.203C93.8547 183.367 92.5667 180.868 91.3712 178.277C90.087 175.492 88.9078 172.602 89.0071 171.556C88.9763 171.792 88.0873 178.984 91.6344 184.203Z" fill="#E6E6E6"/>
<path d="M70.5847 63.5298L61.6475 70.2968L67.2085 70.9308L74.9544 63.9534L70.5847 63.5298Z" fill="#3F3D56"/>
<path d="M35.6191 179.072L40.9944 179.071L43.5517 157L35.6181 157.001L35.6191 179.072Z" fill="#9F616A"/>
<path d="M34.2479 177.204L44.8339 177.203H44.8344C46.6235 177.203 48.3394 177.96 49.6045 179.307C50.8697 180.653 51.5805 182.48 51.5806 184.385V184.618L34.2482 184.619L34.2479 177.204Z" fill="#2F2E41"/>
<path d="M32.2397 100.239C32.2397 100.239 29.9101 103.042 33.7676 113.97L33.0881 173.887L45.5891 173.628L48.337 144.4L53.34 101.749L32.2397 100.239Z" fill="#2F2E41"/>
<path d="M19.7585 90.7802C19.0199 90.7781 18.3112 90.4697 17.7828 89.9204C17.2543 89.3711 16.9477 88.6243 16.9281 87.8383L16.3414 64.3036L26.3794 44.0312C26.6074 43.5746 26.9409 43.1875 27.3485 42.9064C27.756 42.6253 28.2242 42.4595 28.7087 42.4246L36.3586 41.9018L35.6981 89.3414L20.0073 90.7689C19.924 90.7766 19.8411 90.7804 19.7585 90.7802Z" fill="#6C63FF"/>
<path d="M57.6274 108.523L57.4906 108.501C41.4983 105.904 29.4302 103.415 29.3102 103.39L29.1603 103.359L33.3525 92.5049C33.3194 91.3707 32.4119 59.5203 34.1491 50.3694C35.8309 41.5107 43.7579 40.059 44.6613 39.9224L45.5683 36.7232L57.0275 43.0707L59.0261 50.3929L59.4321 70.4612L57.6274 108.523Z" fill="#3F3D56"/>
<path d="M41.8797 78.1409C34.4967 78.1409 28.4902 69.5956 28.4902 59.0921C28.4902 48.5885 34.4967 40.0432 41.8797 40.0432C49.2627 40.0432 55.2692 48.5885 55.2692 59.0921C55.2692 69.5956 49.2627 78.1409 41.8797 78.1409ZM41.8797 41.9081C35.4627 41.9081 30.2421 49.6168 30.2421 59.0921C30.2421 68.5673 35.4627 76.276 41.8797 76.276C48.2966 76.276 53.5173 68.5673 53.5173 59.0921C53.5173 49.6168 48.2967 41.9081 41.8797 41.9081Z" fill="#6C63FF"/>
<path d="M64.5292 67.2178C64.0132 67.2177 63.5027 67.3312 63.0299 67.5513C62.5571 67.7715 62.1322 68.0934 61.782 68.4968H42.5209L35.4657 70.0955L36.624 79.6062L61.7215 73.8604C62.137 74.36 62.6635 74.7408 63.2528 74.968C63.8421 75.1953 64.4755 75.2618 65.0952 75.1614C65.7148 75.0611 66.301 74.7971 66.8002 74.3936C67.2994 73.99 67.6956 73.4599 67.9528 72.8514C68.21 72.2429 68.3199 71.5755 68.2725 70.9102C68.2251 70.2449 68.0219 69.6028 67.6815 69.0426C67.341 68.4824 66.8742 68.0219 66.3235 67.7031C65.7729 67.3843 65.156 67.2175 64.5292 67.2178Z" fill="#9F616A"/>
<path d="M63.115 35.3755C66.7402 31.5164 66.7402 25.2597 63.115 21.4007C59.4898 17.5416 53.6123 17.5416 49.9871 21.4007C46.362 25.2597 46.362 31.5164 49.9871 35.3755C53.6123 39.2345 59.4898 39.2345 63.115 35.3755Z" fill="#9F616A"/>
<path d="M47.8204 20.4882L47.3704 19.524L49.6348 18.3263C49.6348 18.3263 52.1328 13.9995 56.6531 15.2155C61.1733 16.4314 63.2071 17.1591 63.2071 17.1591L65.4658 18.3689L64.3321 19.5696L66.3658 20.2973L65.0072 21.0159L66.588 21.9831L65.737 26.9415C65.737 26.9415 64.3236 23.1808 61.6063 24.6179C58.889 26.0551 53.9187 23.875 53.9187 23.875L49.6006 32.7711C49.6006 32.7711 48.7098 29.6526 47.1215 30.4841C47.1214 30.4841 43.0638 23.6051 47.8204 20.4882Z" fill="#2F2E41"/>
<path d="M128.48 81.3241L128.083 73.4026L124.079 69.9391L121.759 77.2746L108.784 95.6955C108.171 95.8002 107.598 96.0896 107.134 96.5297C106.671 96.9698 106.335 97.5421 106.167 98.1788C106 98.8156 106.007 99.4902 106.188 100.123C106.369 100.755 106.717 101.32 107.189 101.748C107.662 102.177 108.241 102.453 108.856 102.543C109.472 102.633 110.098 102.533 110.662 102.256C111.226 101.979 111.704 101.535 112.038 100.978C112.373 100.421 112.551 99.7731 112.55 99.1118C112.55 99.0652 112.545 99.0199 112.544 98.9738L128.48 81.3241Z" fill="#FFB7B7"/>
<path d="M136.191 181.161L133.122 181.161L131.663 168.562L136.191 168.563L136.191 181.161Z" fill="#FFB7B7"/>
<path d="M136.973 184.327L127.08 184.327V184.193C127.08 183.106 127.485 182.064 128.208 181.295C128.93 180.526 129.909 180.094 130.93 180.094H130.931L136.973 180.094L136.973 184.327Z" fill="#2F2E41"/>
<path d="M150.456 181.161L147.388 181.161L145.928 168.562L150.456 168.563L150.456 181.161Z" fill="#FFB7B7"/>
<path d="M151.238 184.327L141.345 184.327V184.193C141.345 183.106 141.751 182.064 142.473 181.295C143.195 180.526 144.174 180.094 145.196 180.094H145.196L151.238 180.094L151.238 184.327Z" fill="#2F2E41"/>
<path d="M147.213 48.2319C148.512 42.5222 149.613 36.0823 147.163 30.8236C145.463 27.1749 139.175 25.9461 135.57 27.2606C131.965 28.5751 129.359 32.1414 128.213 36.0299C127.066 39.9183 127.2 44.1083 127.699 48.1506C134.329 48.015 140.958 47.8795 147.213 48.2319Z" fill="#2F2E41"/>
<path d="M139.734 47.2218C143.48 45.0417 144.857 40.0414 142.809 36.0533C140.761 32.0652 136.064 30.5996 132.317 32.7796C128.571 34.9597 127.194 39.96 129.242 43.9481C131.29 47.9362 135.987 49.4019 139.734 47.2218Z" fill="#FFB8B8"/>
<path d="M145.476 38.3055C145.501 36.9204 145.263 35.5442 144.778 34.2586C144.294 32.9731 143.571 31.8044 142.653 30.822C141.736 29.8396 140.642 29.0636 139.437 28.5401C138.232 28.0166 136.941 27.7562 135.64 27.7745C134.338 27.7927 133.054 28.0893 131.862 28.6464C130.671 29.2036 129.597 30.01 128.704 31.0178C127.811 32.0255 127.117 33.2141 126.664 34.5128C126.212 35.8115 126.008 37.1939 126.067 38.5778C132.684 38.5928 139.301 38.6077 145.476 38.3055Z" fill="#2F2E41"/>
<path d="M123.611 89.5821C123.611 89.5821 122.353 109.034 123.036 114.967C123.718 120.901 131.152 172.775 131.152 172.775L136.759 172.765L138.424 111.634L145.054 173.359L150.853 172.717L154.142 112.339C154.142 112.339 153.627 89.7342 149.434 87.4676L123.611 89.5821Z" fill="#2F2E41"/>
<path d="M132.406 108.864C128.288 108.862 124.229 107.816 120.566 105.812L120.486 105.768L123.585 83.876L123.384 57.7848C123.378 57.0687 123.507 56.3586 123.762 55.6959C124.017 55.0332 124.393 54.4312 124.869 53.925C125.345 53.4189 125.911 53.0187 126.534 52.7479C127.157 52.477 127.824 52.3409 128.497 52.3475L145.127 52.5099C145.864 52.5171 146.591 52.6855 147.263 53.0047C147.936 53.3238 148.54 53.7869 149.037 54.3651C149.534 54.9433 149.914 55.6242 150.154 56.3655C150.393 57.1067 150.486 57.8925 150.428 58.674L148.872 79.5905L154.019 96.5675L153.124 97.8335C150.712 101.258 147.585 104.038 143.988 105.953C140.392 107.867 136.427 108.864 132.406 108.864V108.864Z" fill="#3F3D56"/>
<path d="M121.713 74.8569L123.456 55.9273L124.016 55.0789C124.399 54.4978 124.887 54.0031 125.451 53.6232C126.014 53.2433 126.643 52.9857 127.301 52.8651C127.958 52.7445 128.632 52.7633 129.282 52.9205C129.933 53.0777 130.548 53.3701 131.092 53.781L131.572 54.1436L131.098 73.327L121.713 74.8569Z" fill="#3F3D56"/>
<path d="M193.121 167.339C197.626 166.014 199.549 173.297 195.055 174.664C190.55 175.989 188.628 168.706 193.121 167.339Z" fill="#3F3D56"/>
<path d="M168.142 176.712C172.648 175.388 174.57 182.67 170.076 184.037C165.571 185.362 163.649 178.079 168.142 176.712Z" fill="#3F3D56"/>
<path d="M158.033 99.9023L158.103 99.8814L169.707 133.419L171.237 132.961L159.549 99.1831C159.524 98.6625 159.332 98.1668 159.006 97.7782C158.679 97.3897 158.238 97.1317 157.755 97.0471C151.951 96.0702 149.599 101.554 149.599 101.554L149.622 101.591L161.486 135.878L163.016 135.42L151.501 102.142C155.007 98.4507 158.033 99.9023 158.033 99.9023Z" fill="#3F3D56"/>
<path d="M171.333 178.599C169.677 178.584 168.069 178.006 166.743 176.95C165.417 175.894 164.443 174.415 163.962 172.729C161.747 165.012 156.521 146.523 155.829 141.505C154.927 134.972 160.007 133.114 160.12 133.074C160.257 133.025 162.3 132.417 165.126 131.574C169.931 130.143 177.193 127.98 177.459 127.852C178.585 127.436 179.778 127.271 180.966 127.369C182.154 127.466 183.309 127.824 184.361 128.419C185.445 129.026 186.402 129.862 187.173 130.874C187.944 131.887 188.514 133.056 188.847 134.311L196.322 162.619C196.783 164.354 196.654 166.207 195.957 167.851C195.26 169.494 194.04 170.823 192.512 171.603C186.745 174.552 178.286 178.487 171.446 178.598C171.408 178.599 171.37 178.599 171.333 178.599Z" fill="#6C63FF"/>
<path d="M156.799 98.7422L153.042 75.378L152.622 67.4929L146.548 69.6109L151.671 100.205C151.464 100.8 151.415 101.445 151.529 102.068C151.643 102.691 151.916 103.268 152.318 103.738C152.72 104.207 153.235 104.549 153.807 104.728C154.379 104.906 154.987 104.913 155.563 104.749C156.139 104.585 156.661 104.255 157.073 103.796C157.485 103.337 157.77 102.766 157.898 102.146C158.026 101.526 157.99 100.881 157.797 100.28C157.603 99.6799 157.258 99.1478 156.799 98.7422V98.7422Z" fill="#FFB7B7"/>
<path d="M154.069 73.9126L144.588 73.3636L142.361 54.3205L142.578 54.1203C143.111 53.6273 143.732 53.2514 144.402 53.0143C145.073 52.7771 145.781 52.6832 146.486 52.7381C147.191 52.793 147.878 52.9955 148.51 53.3341C149.141 53.6727 149.703 54.1406 150.164 54.711L150.602 55.254L150.609 55.2883L154.069 73.9126Z" fill="#3F3D56"/>
<path d="M192.678 166.933L182.988 132.019L160.201 138.874L160.065 138.361L183.328 131.363L183.398 131.615L193.158 166.782L192.678 166.933Z" fill="#3F3D56"/>
<path d="M20.4817 88.277L19.4499 64.3258L30.0193 42.332L30.4648 42.5747L19.9562 64.4425L20.9818 88.2525L20.4817 88.277Z" fill="#3F3D56"/>
<path d="M214.75 184.869H-15.7497C-15.8161 184.869 -15.8798 184.841 -15.9267 184.791C-15.9736 184.741 -16 184.673 -16 184.602C-16 184.532 -15.9736 184.464 -15.9267 184.414C-15.8798 184.364 -15.8161 184.336 -15.7497 184.336H214.75C214.816 184.336 214.88 184.364 214.927 184.414C214.974 184.464 215 184.532 215 184.602C215 184.673 214.974 184.741 214.927 184.791C214.88 184.841 214.816 184.869 214.75 184.869Z" fill="#CCCCCC"/>
<path d="M36.7474 81.389L34.5447 74.4143L34.0119 51.1645L34.9504 47.8657C35.2882 46.6784 35.8477 45.576 36.5954 44.6244C37.343 43.6728 38.2634 42.8917 39.3015 42.3279C40.3395 41.7641 41.4738 41.4291 42.6364 41.3432C43.7989 41.2572 44.9658 41.4219 46.0671 41.8275C47.1684 42.2331 48.1815 42.8713 49.0456 43.7036C49.9096 44.536 50.607 45.5455 51.0958 46.6717C51.5846 47.7978 51.8548 49.0174 51.8901 50.2574C51.9255 51.4974 51.7254 52.7322 51.3017 53.8878L46.2714 67.6099L46.5271 68.1382L57.4254 68.0442L61.2966 75.462L36.7474 81.389Z" fill="#3F3D56"/>
<path d="M106.174 131.023L106.166 131.024L94.0868 133.599L83.6958 138.053C83.5615 138.111 83.4178 138.14 83.273 138.138C83.1282 138.136 82.9851 138.105 82.8518 138.044C82.7186 137.984 82.5978 137.896 82.4964 137.786C82.395 137.676 82.315 137.546 82.2609 137.403C82.2482 137.369 82.2369 137.335 82.2272 137.3L74.6362 110.242C74.5564 109.962 74.5784 109.66 74.6978 109.396C74.8172 109.132 75.0253 108.926 75.2809 108.817L85.862 104.281L85.8697 104.28L97.9489 101.705L108.34 97.2508C108.611 97.1345 108.915 97.1377 109.184 97.2596C109.453 97.3816 109.666 97.6124 109.775 97.9012C109.788 97.9348 109.799 97.969 109.809 98.0038L117.399 125.062C117.479 125.342 117.457 125.644 117.338 125.908C117.219 126.172 117.01 126.378 116.755 126.487L106.174 131.023Z" fill="#E5E5E5"/>
<path d="M93.2119 112.847C90.442 111.807 87.579 110.895 84.7031 110.138L84.5588 110.1L86.0189 115.305L93.4579 112.94L93.2119 112.847ZM86.1329 115.08L84.8064 110.352C87.5437 111.077 90.2676 111.942 92.9094 112.926L86.1329 115.08ZM107.727 119.883C106.437 119.107 105.129 118.364 103.803 117.653C103.437 117.457 103.07 117.264 102.702 117.073C100.456 115.91 98.1756 114.85 95.8608 113.892L95.8338 113.881L86.4558 116.862L89.0168 125.991L107.9 119.988L107.727 119.883ZM89.1308 125.766L86.667 116.984L95.8267 114.072C98.0589 114.996 100.266 116.019 102.447 117.142C102.825 117.337 103.203 117.535 103.579 117.736C104.892 118.436 106.189 119.169 107.469 119.936L89.1308 125.766ZM107.727 119.883C106.437 119.107 105.129 118.364 103.803 117.653C103.437 117.457 103.07 117.264 102.702 117.073C100.456 115.91 98.1756 114.85 95.8608 113.892L95.8338 113.881L86.4558 116.862L89.0168 125.991L107.9 119.988L107.727 119.883ZM89.1308 125.766L86.667 116.984L95.8267 114.072C98.0589 114.996 100.266 116.019 102.447 117.142C102.825 117.337 103.203 117.535 103.579 117.736C104.892 118.436 106.189 119.169 107.469 119.936L89.1308 125.766ZM93.2119 112.847C90.442 111.807 87.579 110.895 84.7031 110.138L84.5588 110.1L86.0189 115.305L93.4579 112.94L93.2119 112.847ZM86.1329 115.08L84.8064 110.352C87.5437 111.077 90.2676 111.942 92.9094 112.926L86.1329 115.08ZM93.2119 112.847C90.442 111.807 87.579 110.895 84.7031 110.138L84.5588 110.1L86.0189 115.305L93.4579 112.94L93.2119 112.847ZM86.1329 115.08L84.8064 110.352C87.5437 111.077 90.2676 111.942 92.9094 112.926L86.1329 115.08ZM107.727 119.883C106.437 119.107 105.129 118.364 103.803 117.653C103.437 117.457 103.07 117.264 102.702 117.073C100.456 115.91 98.1756 114.85 95.8608 113.892L95.8338 113.881L86.4558 116.862L89.0168 125.991L107.9 119.988L107.727 119.883ZM89.1308 125.766L86.667 116.984L95.8267 114.072C98.0589 114.996 100.266 116.019 102.447 117.142C102.825 117.337 103.203 117.535 103.579 117.736C104.892 118.436 106.189 119.169 107.469 119.936L89.1308 125.766ZM81.4076 130.106L81.4561 130.279L87.8766 128.238L88.5806 130.747L82.1601 132.789L82.2086 132.962L88.7917 130.869L87.9907 128.013L81.4076 130.106ZM90.6918 131.961L91.1837 133.715L91.3418 133.647L90.9029 132.083L115.938 124.124L115.889 123.951L90.6918 131.961ZM114.7 119.711L114.651 119.538L89.4538 127.548L90.2548 130.404L115.452 122.393L115.404 122.22L90.3688 130.179L89.6649 127.67L114.7 119.711ZM95.9864 111.948C92.1492 110.378 88.2075 109.115 84.194 108.169L83.7024 106.417L83.5443 106.484L84.0397 108.25L84.206 108.357C88.2039 109.302 92.1303 110.562 95.9526 112.127L95.9797 112.138L111.216 107.294L111.168 107.121L95.9864 111.948ZM84.3447 115.649L77.9242 117.69L77.9727 117.863L84.5558 115.77L82.1218 107.094L81.9637 107.162L84.3447 115.649ZM111.653 108.852L98.2585 113.11L98.4766 113.208C100.531 114.128 102.58 115.145 104.624 116.259C104.914 116.418 105.205 116.578 105.495 116.741C106.937 117.547 108.369 118.399 109.789 119.295L109.947 119.337L114.214 117.98L114.166 117.807L109.909 119.161C108.503 118.273 107.085 117.428 105.654 116.626C105.367 116.465 105.081 116.306 104.794 116.149C102.793 115.056 100.782 114.052 98.7597 113.139L111.702 109.025L111.653 108.852ZM82.6456 134.519L82.6941 134.692L89.1147 132.651L89.6031 134.392L89.7611 134.324L89.2287 132.426L82.6456 134.519ZM78.4097 119.42L78.4582 119.593L84.8787 117.552L87.3426 126.335L80.9221 128.376L80.9707 128.549L87.5537 126.456L84.9928 117.327L78.4097 119.42ZM93.2119 112.847C90.442 111.807 87.579 110.895 84.7031 110.138L84.5588 110.1L86.0189 115.305L93.4579 112.94L93.2119 112.847ZM86.1329 115.08L84.8064 110.352C87.5437 111.077 90.2676 111.942 92.9094 112.926L86.1329 115.08ZM107.727 119.883C106.437 119.107 105.129 118.364 103.803 117.653C103.437 117.457 103.07 117.264 102.702 117.073C100.456 115.91 98.1756 114.85 95.8608 113.892L95.8338 113.881L86.4558 116.862L89.0168 125.991L107.9 119.988L107.727 119.883ZM89.1308 125.766L86.667 116.984L95.8267 114.072C98.0589 114.996 100.266 116.019 102.447 117.142C102.825 117.337 103.203 117.535 103.579 117.736C104.892 118.436 106.189 119.169 107.469 119.936L89.1308 125.766ZM93.2119 112.847C90.442 111.807 87.579 110.895 84.7031 110.138L84.5588 110.1L86.0189 115.305L93.4579 112.94L93.2119 112.847ZM86.1329 115.08L84.8064 110.352C87.5437 111.077 90.2676 111.942 92.9094 112.926L86.1329 115.08ZM107.727 119.883C106.437 119.107 105.129 118.364 103.803 117.653C103.437 117.457 103.07 117.264 102.702 117.073C100.456 115.91 98.1756 114.85 95.8608 113.892L95.8338 113.881L86.4558 116.862L89.0168 125.991L107.9 119.988L107.727 119.883ZM89.1308 125.766L86.667 116.984L95.8267 114.072C98.0589 114.996 100.266 116.019 102.447 117.142C102.825 117.337 103.203 117.535 103.579 117.736C104.892 118.436 106.189 119.169 107.469 119.936L89.1308 125.766Z" fill="white"/>
<path d="M95.3687 113.663C95.9835 115.854 93.6257 121.921 93.6257 121.921C93.6257 121.921 88.5288 118.224 87.914 116.033C87.6188 114.98 87.7283 113.846 88.2186 112.88C88.7089 111.913 89.5396 111.194 90.5282 110.88C91.5168 110.565 92.5821 110.682 93.4899 111.204C94.3977 111.726 95.0735 112.61 95.3687 113.663H95.3687Z" fill="#6C63FF"/>
<path d="M93.2969 114.133C93.3975 114.492 93.396 114.875 93.2924 115.232C93.1889 115.59 92.988 115.907 92.7151 116.144C92.4423 116.38 92.1098 116.525 91.7596 116.56C91.4094 116.595 91.0574 116.519 90.7479 116.341C90.4384 116.163 90.1855 115.891 90.021 115.56C89.8565 115.229 89.788 114.854 89.824 114.481C89.8599 114.109 89.9989 113.756 90.2232 113.468C90.4475 113.179 90.7471 112.968 91.0841 112.861C91.3078 112.79 91.5426 112.766 91.7749 112.792C92.0073 112.817 92.2326 112.891 92.4381 113.009C92.6436 113.127 92.8253 113.287 92.9726 113.48C93.12 113.673 93.2301 113.895 93.2969 114.133Z" fill="white"/>
<path d="M94.129 124.831C94.7082 124.831 95.1776 124.331 95.1776 123.715C95.1776 123.098 94.7082 122.599 94.129 122.599C93.5499 122.599 93.0804 123.098 93.0804 123.715C93.0804 124.331 93.5499 124.831 94.129 124.831Z" fill="#6C63FF"/>
<path d="M105.571 109.038L98.2834 111.355C98.2743 111.358 98.265 111.36 98.2556 111.361L99.9193 103.91C99.9292 103.864 99.9505 103.821 99.981 103.786C100.011 103.752 100.05 103.726 100.093 103.713C100.135 103.699 100.181 103.698 100.224 103.709C100.267 103.72 100.307 103.743 100.339 103.776L103.849 107.306L104.017 107.475L105.571 109.038Z" fill="white"/>
<path opacity="0.2" d="M105.571 109.038L103.083 109.829L103.775 107.552L103.824 107.388L103.849 107.306L104.017 107.475L105.571 109.038Z" fill="black"/>
<path d="M109.629 107.748L103.326 109.752L104.017 107.475L104.067 107.311L104.968 104.344C104.986 104.297 105.012 104.255 105.046 104.22C105.08 104.185 105.12 104.158 105.165 104.141C105.209 104.124 105.256 104.117 105.303 104.12C105.35 104.124 105.396 104.138 105.438 104.161C105.449 104.168 105.459 104.176 105.469 104.184L109.629 107.748Z" fill="white"/>
</g>
</g>
<defs>
<clipPath id="clip0_1_117">
<rect width="200" height="200" fill="white"/>
</clipPath>
<clipPath id="clip1_1_117">
<rect width="231" height="169.869" fill="white" transform="translate(-16 15)"/>
</clipPath>
</defs>
</svg>
