<svg width="200" height="200" viewBox="0 0 200 200" fill="none" xmlns="http://www.w3.org/2000/svg">
<g clip-path="url(#clip0_0_3)">
<g clip-path="url(#clip1_0_3)">
<path d="M227.939 47.4889H160.254C159.497 47.4898 158.771 47.7914 158.236 48.3276C157.701 48.8637 157.4 49.5906 157.399 50.3488V156.732C157.4 157.49 157.701 158.217 158.236 158.753C158.771 159.289 159.497 159.591 160.254 159.592H227.939C228.696 159.591 229.422 159.289 229.957 158.753C230.492 158.217 230.793 157.49 230.794 156.732V50.3488C230.793 49.5906 230.492 48.8637 229.957 48.3276C229.422 47.7914 228.696 47.4898 227.939 47.4889V47.4889Z" fill="white"/>
<path d="M162.003 42.0375C162.004 41.8522 162.077 41.6746 162.208 41.5436C162.339 41.4125 162.516 41.3388 162.701 41.3386H167.445C167.63 41.3386 167.808 41.4123 167.939 41.5433C168.069 41.6744 168.143 41.8522 168.143 42.0375C168.143 42.2229 168.069 42.4007 167.939 42.5317C167.808 42.6628 167.63 42.7364 167.445 42.7364H162.701C162.516 42.7362 162.339 42.6625 162.208 42.5315C162.077 42.4004 162.004 42.2228 162.003 42.0375Z" fill="#E6E6E6"/>
<path d="M169.817 42.0375C169.818 41.8522 169.891 41.6746 170.022 41.5436C170.153 41.4125 170.33 41.3388 170.515 41.3386H175.259C175.444 41.3386 175.622 41.4123 175.753 41.5433C175.883 41.6744 175.957 41.8522 175.957 42.0375C175.957 42.2229 175.883 42.4007 175.753 42.5317C175.622 42.6628 175.444 42.7364 175.259 42.7364H170.515C170.33 42.7362 170.153 42.6625 170.022 42.5315C169.891 42.4005 169.818 42.2228 169.817 42.0375Z" fill="#E6E6E6"/>
<path d="M166.887 54.4105C167.706 54.4105 168.369 53.7311 168.369 52.893C168.369 52.055 167.706 51.3755 166.887 51.3755C166.069 51.3755 165.405 52.055 165.405 52.893C165.405 53.7311 166.069 54.4105 166.887 54.4105Z" fill="#3F3D56"/>
<path d="M172.006 54.4105C172.825 54.4105 173.488 53.7311 173.488 52.893C173.488 52.055 172.825 51.3755 172.006 51.3755C171.188 51.3755 170.524 52.055 170.524 52.893C170.524 53.7311 171.188 54.4105 172.006 54.4105Z" fill="#3F3D56"/>
<path d="M177.125 54.4105C177.944 54.4105 178.607 53.7311 178.607 52.893C178.607 52.055 177.944 51.3755 177.125 51.3755C176.307 51.3755 175.643 52.055 175.643 52.893C175.643 53.7311 176.307 54.4105 177.125 54.4105Z" fill="#3F3D56"/>
<path d="M123.334 103.225H88.015C87.5153 103.226 87.0365 103.426 86.6836 103.78C86.3308 104.134 86.1328 104.615 86.1334 105.115V161.007H125.221V105.115C125.221 104.867 125.172 104.621 125.077 104.392C124.983 104.162 124.844 103.954 124.668 103.778C124.493 103.603 124.285 103.464 124.056 103.369C123.827 103.274 123.582 103.225 123.334 103.225ZM105.793 134.982C104.689 134.977 103.631 134.535 102.85 133.753C102.069 132.97 101.628 131.911 101.623 130.804V124.358C101.624 123.25 102.064 122.189 102.846 121.406C103.628 120.623 104.688 120.183 105.793 120.183C106.899 120.183 107.959 120.623 108.741 121.406C109.523 122.189 109.963 123.25 109.964 124.358V130.804C109.959 131.911 109.518 132.97 108.737 133.753C107.956 134.535 106.898 134.977 105.793 134.982V134.982Z" fill="#E6E6E6"/>
<path d="M86.0121 159.219V164.611C86.0127 164.891 86.1237 165.159 86.321 165.356C86.5182 165.554 86.7856 165.665 87.0645 165.666H124.289C124.568 165.664 124.835 165.553 125.032 165.355C125.229 165.158 125.34 164.891 125.342 164.611V159.219L86.0121 159.219Z" fill="#CCCCCC"/>
<path d="M181.82 16H30.8438C29.5467 16.0021 28.3033 16.5192 27.3861 17.438C26.4689 18.3568 25.9527 19.6024 25.9507 20.9017V122.959C25.9519 124.259 26.4678 125.505 27.3852 126.424C28.3026 127.343 29.5465 127.86 30.8438 127.861H181.82C183.117 127.86 184.361 127.343 185.278 126.424C186.196 125.505 186.712 124.259 186.713 122.959V20.9017C186.711 19.6024 186.195 18.3568 185.277 17.438C184.36 16.5192 183.117 16.0021 181.82 16Z" fill="#E6E6E6"/>
<path d="M180.559 19.5405H32.1052C31.4107 19.542 30.7452 19.8194 30.2546 20.3119C29.764 20.8043 29.4884 21.4716 29.4884 22.1674V121.695C29.4896 122.39 29.7656 123.056 30.2561 123.548C30.7466 124.039 31.4116 124.316 32.1052 124.317H180.559C181.253 124.316 181.918 124.039 182.408 123.548C182.899 123.056 183.175 122.39 183.176 121.695V22.1674C183.176 21.4716 182.901 20.8043 182.41 20.3119C181.919 19.8194 181.254 19.542 180.559 19.5405Z" fill="white"/>
<path d="M183.176 22.1674V121.695C183.175 122.39 182.899 123.056 182.408 123.548C181.918 124.039 181.253 124.316 180.559 124.317H128.211C122.42 118.937 117.669 112.533 114.196 105.427C113.968 104.969 113.75 104.506 113.544 104.037C110.38 97.1593 108.464 89.7719 107.886 82.2209C107.847 81.7577 107.815 81.2944 107.793 80.8257C107.722 79.6267 107.69 78.4114 107.69 77.1906C107.679 69.0713 109.21 61.0242 112.2 53.4776C112.379 53.0089 112.57 52.5456 112.766 52.0824C118.783 37.9194 129.656 26.3777 143.423 19.5405H180.559C181.254 19.542 181.919 19.8194 182.41 20.3119C182.901 20.8043 183.176 21.4716 183.176 22.1674Z" fill="#6C63FF"/>
<path d="M173.097 33.2532H34.1889C34.0444 33.2501 33.9069 33.1904 33.8058 33.087C33.7047 32.9836 33.6481 32.8446 33.6481 32.6998C33.6481 32.5551 33.7047 32.4161 33.8058 32.3126C33.9069 32.2092 34.0444 32.1495 34.1889 32.1465H173.097C173.241 32.1495 173.379 32.2092 173.48 32.3126C173.581 32.4161 173.638 32.5551 173.638 32.6998C173.638 32.8446 173.581 32.9836 173.48 33.087C173.379 33.1904 173.241 33.2501 173.097 33.2532V33.2532Z" fill="#CACACA"/>
<path d="M43.6445 29.3211C45.4324 29.3211 46.8818 27.8368 46.8818 26.0058C46.8818 24.1749 45.4324 22.6906 43.6445 22.6906C41.8566 22.6906 40.4072 24.1749 40.4072 26.0058C40.4072 27.8368 41.8566 29.3211 43.6445 29.3211Z" fill="#3F3D56"/>
<path d="M54.828 29.3211C56.6159 29.3211 58.0653 27.8368 58.0653 26.0058C58.0653 24.1749 56.6159 22.6906 54.828 22.6906C53.04 22.6906 51.5907 24.1749 51.5907 26.0058C51.5907 27.8368 53.04 29.3211 54.828 29.3211Z" fill="#3F3D56"/>
<path d="M66.0114 29.3211C67.7993 29.3211 69.2487 27.8368 69.2487 26.0058C69.2487 24.1749 67.7993 22.6906 66.0114 22.6906C64.2235 22.6906 62.7741 24.1749 62.7741 26.0058C62.7741 27.8368 64.2235 29.3211 66.0114 29.3211Z" fill="#3F3D56"/>
<path d="M166.363 23.5123H158.419C158.262 23.5154 158.112 23.5803 158.002 23.6929C157.891 23.8056 157.83 23.9571 157.83 24.1149C157.83 24.2726 157.891 24.4241 158.002 24.5368C158.112 24.6494 158.262 24.7143 158.419 24.7174H166.363C166.521 24.7143 166.671 24.6494 166.781 24.5368C166.891 24.4241 166.953 24.2726 166.953 24.1149C166.953 23.9571 166.891 23.8056 166.781 23.6929C166.671 23.5803 166.521 23.5154 166.363 23.5123V23.5123Z" fill="#3F3D56"/>
<path d="M166.363 25.7742H158.419C158.262 25.7773 158.112 25.8421 158.002 25.9548C157.891 26.0675 157.83 26.2189 157.83 26.3767C157.83 26.5345 157.891 26.686 158.002 26.7987C158.112 26.9113 158.262 26.9762 158.419 26.9793H166.363C166.521 26.9762 166.671 26.9113 166.781 26.7987C166.891 26.686 166.953 26.5345 166.953 26.3767C166.953 26.2189 166.891 26.0675 166.781 25.9548C166.671 25.8421 166.521 25.7773 166.363 25.7742V25.7742Z" fill="#3F3D56"/>
<path d="M166.363 28.033H158.419C158.262 28.0361 158.112 28.101 158.002 28.2137C157.891 28.3263 157.83 28.4778 157.83 28.6356C157.83 28.7934 157.891 28.9449 158.002 29.0575C158.112 29.1702 158.262 29.235 158.419 29.2382H166.363C166.521 29.235 166.671 29.1702 166.781 29.0575C166.891 28.9449 166.953 28.7934 166.953 28.6356C166.953 28.4778 166.891 28.3263 166.781 28.2137C166.671 28.101 166.521 28.0361 166.363 28.033V28.033Z" fill="#3F3D56"/>
<path d="M76.7208 65.5814H57.2957C56.563 65.5814 55.969 66.1765 55.969 66.9105V68.9819C55.969 69.7159 56.563 70.3109 57.2957 70.3109H76.7208C77.4535 70.3109 78.0475 69.7159 78.0475 68.9819V66.9105C78.0475 66.1765 77.4535 65.5814 76.7208 65.5814Z" fill="#6C63FF"/>
<path d="M87.9337 75.0404H46.0828C45.3501 75.0404 44.7561 75.6355 44.7561 76.3695V78.4409C44.7561 79.1749 45.3501 79.7699 46.0828 79.7699H87.9337C88.6664 79.7699 89.2604 79.1749 89.2604 78.4409V76.3695C89.2604 75.6355 88.6664 75.0404 87.9337 75.0404Z" fill="#E6E6E6"/>
<path d="M87.9337 84.4994H46.0828C45.3501 84.4994 44.7561 85.0944 44.7561 85.8285V87.8999C44.7561 88.6339 45.3501 89.2289 46.0828 89.2289H87.9337C88.6664 89.2289 89.2604 88.6339 89.2604 87.8999V85.8285C89.2604 85.0944 88.6664 84.4994 87.9337 84.4994Z" fill="#E6E6E6"/>
<path d="M48.3885 118.611C48.3918 120.559 48.0454 122.492 47.3657 124.317H32.1052C31.4116 124.316 30.7466 124.039 30.2561 123.548C29.7656 123.056 29.4896 122.39 29.4884 121.695V102.468C30.341 102.33 31.2034 102.26 32.0671 102.261C34.2105 102.26 36.333 102.683 38.3132 103.505C40.2935 104.327 42.0928 105.531 43.6084 107.049C45.124 108.567 46.3263 110.37 47.1464 112.354C47.9666 114.337 48.3887 116.463 48.3885 118.611V118.611Z" fill="#6C63FF"/>
<path opacity="0.2" d="M183.312 53.4776V52.0824H159.967V35.9123H158.58V52.0824H131.824V35.9123H130.436V52.0824H112.766C112.57 52.5457 112.379 53.009 112.2 53.4777H130.436V80.8258H107.793C107.815 81.2945 107.847 81.7577 107.886 82.221H130.436V104.037H113.544C113.75 104.506 113.968 104.969 114.196 105.427H130.436V123.766H131.824V105.427H158.58V123.766H159.967V105.427H183.312V104.037H159.967V104.037C159.967 101.172 160.53 98.3354 161.625 95.6886C162.719 93.0417 164.324 90.6367 166.346 88.6108C168.368 86.585 170.769 84.978 173.411 83.8816C176.053 82.7853 178.885 82.221 181.745 82.221H183.312V80.8257H159.967V53.4776H183.312ZM158.58 104.037H131.824V82.221H158.58V104.037ZM158.58 80.8258H131.824V80.2807C131.824 73.1721 134.643 66.3546 139.66 61.3281C144.678 56.3015 151.484 53.4776 158.58 53.4776H158.58V80.8258Z" fill="black"/>
<path d="M164.516 113.991C164.218 114.005 163.923 113.926 163.671 113.767C163.42 113.607 163.223 113.374 163.108 113.098C162.993 112.823 162.965 112.518 163.029 112.227C163.092 111.935 163.243 111.67 163.462 111.467C163.499 111.321 163.525 111.216 163.562 111.07C163.549 111.038 163.536 111.007 163.522 110.975C162.184 107.778 157.648 107.8 156.321 111.002C155.143 113.844 153.643 116.69 153.274 119.695C153.111 121.023 153.18 122.37 153.477 123.674C150.71 117.629 149.273 111.058 149.264 104.408C149.264 102.739 149.356 101.072 149.541 99.413C149.694 98.0534 149.907 96.7035 150.179 95.3633C151.661 88.0912 154.845 81.2753 159.468 75.4751C161.706 74.2521 163.515 72.3714 164.653 70.0865C165.065 69.2651 165.356 68.3883 165.518 67.4834C165.265 67.5165 165.009 67.5372 164.756 67.5538C164.678 67.5579 164.595 67.5621 164.516 67.5662L164.487 67.5676C164.209 67.58 163.934 67.5119 163.694 67.3714C163.455 67.2309 163.261 67.024 163.136 66.7756C163.011 66.5272 162.96 66.2479 162.99 65.9714C163.02 65.6948 163.129 65.4328 163.304 65.2168C163.413 65.0824 163.522 64.9481 163.631 64.8139C163.796 64.6066 163.966 64.4035 164.131 64.1963C164.151 64.1766 164.168 64.1558 164.185 64.1341C164.376 63.8978 164.566 63.6657 164.756 63.4294C164.409 62.8892 163.941 62.4367 163.391 62.1072C161.483 60.988 158.852 61.7631 157.474 63.4916C156.092 65.2201 155.831 67.645 156.311 69.8046C156.721 71.6533 157.614 73.3487 158.62 74.9611C158.516 75.0937 158.409 75.2222 158.305 75.3549C156.414 77.7907 154.766 80.4064 153.384 83.1643C153.72 80.0746 153.319 76.9492 152.214 74.045C151.094 71.3385 148.995 69.059 147.147 66.7192C144.926 63.9088 140.373 65.1354 139.982 68.698C139.978 68.7325 139.974 68.767 139.971 68.8015C140.245 68.9567 140.514 69.1214 140.777 69.2956C141.107 69.5167 141.363 69.8326 141.511 70.202C141.659 70.5713 141.693 70.9769 141.607 71.3655C141.521 71.7541 141.32 72.1076 141.03 72.3798C140.74 72.6519 140.374 72.83 139.982 72.8906L139.942 72.8968C140.039 73.8882 140.212 74.8706 140.459 75.8357C141.173 78.5299 142.435 81.0473 144.166 83.2299C145.897 85.4126 148.06 87.2135 150.518 88.5197C150.679 88.6026 150.837 88.6855 150.998 88.7643C149.61 92.7051 148.739 96.81 148.408 100.976C148.22 103.433 148.231 105.902 148.441 108.358L148.428 108.271C147.899 105.54 146.444 103.076 144.311 101.295C141.143 98.6876 136.666 97.7275 133.248 95.6318C131.603 94.6229 129.494 95.9266 129.782 97.8376C129.786 97.8681 129.791 97.8986 129.796 97.9291C130.305 98.137 130.801 98.3765 131.281 98.6462C131.556 98.8014 131.824 98.9661 132.087 99.1403C132.418 99.3614 132.674 99.6773 132.822 100.047C132.97 100.416 133.003 100.822 132.917 101.21C132.831 101.599 132.63 101.952 132.34 102.224C132.05 102.497 131.685 102.675 131.292 102.735L131.252 102.742C131.223 102.746 131.198 102.75 131.169 102.754C132.04 104.836 133.262 106.753 134.782 108.42C136.659 110.438 138.928 112.051 141.45 113.159C143.971 114.268 146.693 114.848 149.446 114.866H149.45C150.198 118.12 151.281 121.287 152.682 124.317H164.227C164.268 124.188 164.305 124.056 164.342 123.927C163.274 123.994 162.201 123.93 161.148 123.736C162.005 122.684 162.861 121.622 163.718 120.57C163.737 120.55 163.755 120.529 163.771 120.507C164.206 119.969 164.644 119.434 165.079 118.895L165.079 118.894C165.102 117.243 164.913 115.595 164.516 113.991L164.516 113.991ZM151.296 87.9394L151.302 87.9312L151.296 87.9477V87.9394ZM148.739 111.032L148.639 110.808C148.643 110.646 148.643 110.485 148.639 110.319C148.639 110.273 148.631 110.228 148.631 110.182C148.668 110.468 148.701 110.754 148.743 111.04L148.739 111.032Z" fill="#2F2E41"/>
<path d="M61.7154 86.9434V71.4005C61.7154 69.0147 60.7693 66.7266 59.0852 65.0396C57.4011 63.3525 55.117 62.4048 52.7354 62.4048H19.8633C17.4817 62.4048 15.1976 63.3525 13.5135 65.0396C11.8294 66.7266 10.8833 69.0147 10.8833 71.4006V156.67C10.8833 159.056 11.8294 161.344 13.5135 163.031C15.1976 164.718 17.4817 165.666 19.8633 165.666H52.7354C53.9146 165.666 55.0824 165.433 56.1719 164.981C57.2614 164.529 58.2513 163.866 59.0852 163.031C59.9191 162.195 60.5805 161.204 61.0318 160.112C61.4831 159.021 61.7154 157.851 61.7154 156.67V98.0071C61.8656 98.0071 62.0097 97.9473 62.1159 97.8409C62.2221 97.7345 62.2818 97.5902 62.2818 97.4397V87.5108C62.2818 87.3603 62.2221 87.216 62.1159 87.1096C62.0097 87.0032 61.8656 86.9434 61.7154 86.9434V86.9434Z" fill="#E6E6E6"/>
<path d="M59.8043 71.4623V156.608C59.8045 158.377 59.108 160.074 57.8662 161.331C56.6244 162.589 54.9376 163.304 53.1722 163.323C53.1478 163.325 53.1233 163.326 53.0988 163.326H20.0667C18.2884 163.325 16.5829 162.618 15.3254 161.358C14.068 160.098 13.3614 158.39 13.3613 156.608V71.4623C13.3614 69.6808 14.0679 67.9724 15.3254 66.7127C16.5829 65.453 18.2884 64.7452 20.0667 64.7451H24.0753C23.8783 65.2299 23.8032 65.7557 23.8566 66.2764C23.9101 66.7971 24.0905 67.2966 24.3819 67.7311C24.6734 68.1655 25.067 68.5216 25.528 68.7679C25.9891 69.0142 26.5035 69.1432 27.026 69.1436H45.8582C46.3803 69.1421 46.894 69.0124 47.3543 68.7657C47.8147 68.5191 48.2076 68.163 48.4985 67.7288C48.7895 67.2946 48.9697 66.7955 49.0233 66.2753C49.0768 65.7551 49.0022 65.2296 48.8058 64.7451H53.0988C54.8771 64.7452 56.5826 65.453 57.8401 66.7127C59.0976 67.9724 59.8041 69.6808 59.8043 71.4623Z" fill="white"/>
<path d="M53.2547 160.698C53.2547 161.58 53.2272 162.455 53.1722 163.323C53.1478 163.325 53.1233 163.326 53.0988 163.326H20.0667C18.2884 163.325 16.5829 162.618 15.3254 161.358C14.068 160.098 13.3614 158.39 13.3613 156.608V118.664C24.1237 119.207 34.266 123.873 41.691 131.697C49.1161 139.52 53.256 149.903 53.2547 160.698V160.698Z" fill="#F2F2F2"/>
<path d="M11.065 95.6387C10.8623 95.6384 10.668 95.5577 10.5247 95.4141C10.3814 95.2706 10.3008 95.0759 10.3005 94.8729V89.6658C10.3005 89.4627 10.3811 89.2679 10.5244 89.1243C10.6678 88.9807 10.8622 88.9 11.065 88.9C11.2677 88.9 11.4621 88.9807 11.6055 89.1243C11.7488 89.2679 11.8294 89.4627 11.8294 89.6658V94.8729C11.8291 95.0759 11.7485 95.2706 11.6052 95.4141C11.4619 95.5577 11.2676 95.6384 11.065 95.6387Z" fill="#E6E6E6"/>
<path d="M40.6386 91.4809H32.5269C31.7942 91.4809 31.2002 92.076 31.2002 92.81V94.8814C31.2002 95.6154 31.7942 96.2104 32.5269 96.2104H40.6386C41.3713 96.2104 41.9653 95.6154 41.9653 94.8814V92.81C41.9653 92.076 41.3713 91.4809 40.6386 91.4809Z" fill="#6C63FF"/>
<path d="M51.8515 100.94H21.314C20.5813 100.94 19.9873 101.535 19.9873 102.269V104.34C19.9873 105.074 20.5813 105.669 21.314 105.669H51.8515C52.5842 105.669 53.1782 105.074 53.1782 104.34V102.269C53.1782 101.535 52.5842 100.94 51.8515 100.94Z" fill="#E6E6E6"/>
<path d="M51.8515 110.399H21.314C20.5813 110.399 19.9873 110.994 19.9873 111.728V113.799C19.9873 114.533 20.5813 115.128 21.314 115.128H51.8515C52.5842 115.128 53.1782 114.533 53.1782 113.799V111.728C53.1782 110.994 52.5842 110.399 51.8515 110.399Z" fill="#E6E6E6"/>
<path d="M44.5037 158.48C44.364 158.487 44.2257 158.45 44.1075 158.375C43.9893 158.3 43.897 158.19 43.843 158.061C43.789 157.932 43.776 157.789 43.8058 157.652C43.8355 157.515 43.9066 157.391 44.0093 157.296L44.056 157.109C44.0499 157.094 44.0437 157.08 44.0375 157.065C43.8967 156.732 43.6608 156.448 43.3594 156.248C43.058 156.049 42.7046 155.944 42.3435 155.945C41.9824 155.946 41.6298 156.054 41.3299 156.256C41.03 156.457 40.7962 156.743 40.6579 157.077C40.1052 158.411 39.4015 159.747 39.2282 161.157C39.1519 161.78 39.1841 162.412 39.3233 163.024C38.0251 160.187 37.351 157.104 37.3466 153.983C37.3463 153.2 37.3898 152.417 37.4767 151.639C37.5486 151.001 37.6482 150.368 37.7758 149.739C38.4716 146.326 39.9656 143.128 42.135 140.406C43.185 139.832 44.0341 138.949 44.568 137.877C44.7614 137.492 44.8981 137.08 44.9738 136.656C44.8554 136.671 44.735 136.681 44.6165 136.689C44.5796 136.691 44.5408 136.693 44.5039 136.694L44.49 136.695C44.3598 136.701 44.2307 136.669 44.1183 136.603C44.0058 136.537 43.9148 136.44 43.8561 136.323C43.7975 136.207 43.7737 136.076 43.7876 135.946C43.8016 135.816 43.8527 135.693 43.9349 135.592C43.986 135.529 44.0372 135.466 44.0884 135.403C44.1661 135.306 44.2457 135.21 44.3233 135.113C44.3323 135.104 44.3407 135.094 44.3486 135.084C44.4379 134.973 44.5272 134.864 44.6165 134.753C44.4535 134.5 44.2342 134.287 43.9758 134.133C43.0806 133.608 41.8457 133.971 41.199 134.782C40.5505 135.593 40.4282 136.731 40.6534 137.745C40.8749 138.607 41.2413 139.425 41.7369 140.165C41.6884 140.227 41.6379 140.287 41.5893 140.349C40.7019 141.492 39.9285 142.72 39.2802 144.014C39.4378 142.564 39.2496 141.098 38.7311 139.735C38.2055 138.465 37.2204 137.395 36.3529 136.297C36.1235 136.002 35.8119 135.782 35.4576 135.664C35.1032 135.547 34.722 135.537 34.3622 135.636C34.0023 135.736 33.68 135.94 33.4358 136.223C33.1917 136.505 33.0368 136.855 32.9906 137.226C32.9889 137.242 32.9871 137.258 32.9854 137.274C33.1143 137.347 33.2404 137.424 33.3638 137.506C33.5189 137.61 33.639 137.758 33.7085 137.931C33.778 138.105 33.7936 138.295 33.7532 138.477C33.7129 138.66 33.6185 138.826 33.4825 138.953C33.3464 139.081 33.175 139.165 32.9907 139.193L32.9719 139.196C33.0178 139.661 33.0989 140.122 33.2146 140.575C33.5497 141.839 34.142 143.021 34.9543 144.045C35.7666 145.069 36.7814 145.914 37.935 146.527C38.0107 146.566 38.0845 146.605 38.1602 146.642C37.5088 148.491 37.1002 150.418 36.9447 152.372C36.8566 153.526 36.8618 154.684 36.9602 155.837L36.9544 155.796C36.7058 154.514 36.0234 153.358 35.0223 152.522C33.5355 151.299 31.4349 150.848 29.8309 149.865C29.6604 149.755 29.4622 149.697 29.2596 149.696C29.0571 149.696 28.8586 149.753 28.6876 149.862C28.5166 149.971 28.3802 150.126 28.2945 150.31C28.2089 150.494 28.1775 150.699 28.2041 150.9L28.2107 150.943C28.4498 151.04 28.6826 151.153 28.9078 151.279C29.0366 151.352 29.1627 151.429 29.2861 151.511C29.4412 151.615 29.5613 151.763 29.6308 151.936C29.7003 152.11 29.7159 152.3 29.6756 152.482C29.6352 152.665 29.5408 152.831 29.4048 152.958C29.2687 153.086 29.0973 153.17 28.913 153.198L28.8942 153.201C28.8806 153.203 28.8689 153.205 28.8553 153.207C29.2639 154.184 29.8373 155.084 30.5505 155.866C31.4315 156.813 32.4963 157.57 33.6796 158.09C34.8629 158.61 36.1398 158.882 37.432 158.891H37.434C37.7848 160.418 38.293 161.904 38.9505 163.326H44.368C44.3874 163.265 44.4049 163.203 44.4224 163.143C43.9209 163.174 43.4175 163.144 42.9233 163.053C43.3253 162.559 43.7272 162.061 44.1291 161.567C44.1381 161.558 44.1465 161.548 44.1544 161.538C44.3583 161.285 44.5641 161.034 44.768 160.781L44.7681 160.781C44.779 160.006 44.6902 159.233 44.5039 158.48L44.5037 158.48ZM38.3 146.255L38.3029 146.251L38.3 146.259V146.255ZM37.1 157.091L37.0534 156.986C37.0554 156.91 37.0554 156.835 37.0534 156.757C37.0534 156.735 37.0495 156.714 37.0495 156.693C37.067 156.827 37.0825 156.961 37.1019 157.095L37.1 157.091Z" fill="#CCCCCC"/>
<path d="M10.9121 85.5307C10.7094 85.5304 10.5151 85.4497 10.3718 85.3061C10.2285 85.1626 10.1479 84.9679 10.1476 84.7649V79.5578C10.1476 79.3547 10.2282 79.1599 10.3715 79.0163C10.5149 78.8727 10.7093 78.792 10.9121 78.792C11.1148 78.792 11.3092 78.8727 11.4526 79.0163C11.5959 79.1599 11.6765 79.3547 11.6765 79.5578V84.7649C11.6762 84.9679 11.5956 85.1626 11.4523 85.3061C11.309 85.4497 11.1147 85.5304 10.9121 85.5307V85.5307Z" fill="#E6E6E6"/>
<path d="M31.2456 65.621C31.2458 65.4179 31.3264 65.2233 31.4697 65.0798C31.613 64.9362 31.8073 64.8554 32.01 64.8552H37.208C37.4108 64.8552 37.6052 64.9359 37.7486 65.0795C37.8919 65.2231 37.9725 65.4179 37.9725 65.621C37.9725 65.8241 37.8919 66.0188 37.7486 66.1624C37.6052 66.306 37.4108 66.3867 37.208 66.3867H32.01C31.8073 66.3865 31.613 66.3057 31.4697 66.1622C31.3264 66.0186 31.2458 65.824 31.2456 65.621Z" fill="white"/>
<path d="M11.065 104.521C10.8623 104.521 10.668 104.44 10.5247 104.297C10.3814 104.153 10.3008 103.959 10.3005 103.756V98.5485C10.3005 98.3454 10.3811 98.1507 10.5244 98.0071C10.6678 97.8635 10.8622 97.7828 11.065 97.7828C11.2677 97.7828 11.4621 97.8635 11.6055 98.0071C11.7488 98.1507 11.8294 98.3454 11.8294 98.5485V103.756C11.8291 103.959 11.7485 104.153 11.6052 104.297C11.4619 104.44 11.2676 104.521 11.065 104.521V104.521Z" fill="#E6E6E6"/>
<path d="M40.1128 66.3867C40.535 66.3867 40.8773 66.0439 40.8773 65.621C40.8773 65.1981 40.535 64.8552 40.1128 64.8552C39.6907 64.8552 39.3484 65.1981 39.3484 65.621C39.3484 66.0439 39.6907 66.3867 40.1128 66.3867Z" fill="white"/>
<path d="M243.636 165.664L-18.6359 165.758C-18.7323 165.757 -18.8246 165.719 -18.8927 165.65C-18.9607 165.582 -18.999 165.49 -18.999 165.393C-18.999 165.296 -18.9607 165.204 -18.8927 165.135C-18.8246 165.067 -18.7323 165.029 -18.6359 165.028L243.636 164.934C243.732 164.934 243.825 164.973 243.893 165.041C243.962 165.109 244 165.202 244 165.299C244 165.396 243.962 165.488 243.893 165.557C243.825 165.625 243.732 165.664 243.636 165.664Z" fill="#CACACA"/>
<path d="M93.1473 85.257L91.7677 85.5532C91.7587 84.9751 91.6868 84.3997 91.5533 83.8373C91.4278 84.5261 91.1635 85.182 90.7765 85.7651L82.8644 87.4577L75.2682 79.4272C75.2566 75.4119 77.4824 72.3606 81.4733 72.3606C81.7138 72.3606 81.963 72.3722 82.2152 72.3954C84.3714 72.0339 86.5835 72.5246 88.3858 73.7641C90.1881 75.0037 91.44 76.8954 91.8779 79.0411C94.7065 81.8311 93.6806 83.4715 93.1473 85.257Z" fill="#2F2E41"/>
<path d="M97.0371 179.171H99.9071L101.273 168.081L97.0365 168.082L97.0371 179.171Z" fill="#FFB6B6"/>
<path d="M96.3254 177.753L100.862 177.481V179.429L105.176 182.413C105.389 182.56 105.549 182.772 105.634 183.017C105.718 183.262 105.722 183.528 105.645 183.776C105.568 184.023 105.414 184.24 105.205 184.393C104.997 184.547 104.745 184.63 104.486 184.63H99.0843L98.1534 182.704L97.7899 184.63H95.7533L96.3254 177.753Z" fill="#2F2E41"/>
<path d="M63.4138 176.042L65.91 177.46L72.5605 168.49L68.8763 166.396L63.4138 176.042Z" fill="#FFB6B6"/>
<path d="M63.4934 174.456L67.5729 176.463L66.6137 178.157L68.8951 182.884C69.0078 183.118 69.0431 183.381 68.9957 183.636C68.9484 183.891 68.8209 184.124 68.6319 184.302C68.4429 184.479 68.2023 184.591 67.9452 184.622C67.6881 184.652 67.428 184.6 67.2028 184.472L62.505 181.802L62.6441 179.666L61.3791 181.162L59.6078 180.155L63.4934 174.456Z" fill="#2F2E41"/>
<path d="M107.646 87.1999C107.278 87.2531 106.926 87.3866 106.616 87.5907C106.305 87.7949 106.043 88.0648 105.847 88.3814C105.652 88.6981 105.528 89.0538 105.485 89.4235C105.442 89.7932 105.48 90.1679 105.597 90.5213L101.205 94.3292L102.864 97.5671L108.991 92.1024C109.57 91.8662 110.043 91.4253 110.32 90.8632C110.597 90.3011 110.658 89.6568 110.492 89.0525C110.326 88.4482 109.945 87.9259 109.42 87.5844C108.896 87.2429 108.264 87.1061 107.646 87.1999H107.646Z" fill="#FFB6B6"/>
<path d="M103.223 100.294C101.758 102.517 98.4749 104.664 93.602 106.567C93.3333 106.674 93.0451 106.725 92.7557 106.716C92.4663 106.706 92.182 106.637 91.9208 106.512C90.082 105.673 88.9034 102.557 88.7928 102.254L85.2312 97.4414C85.168 97.3713 83.5026 95.4778 83.6931 93.6164C83.736 93.2263 83.8627 92.8502 84.0644 92.5138C84.2662 92.1774 84.5383 91.8888 84.8619 91.6677C87.558 89.6656 93.6003 96.6191 94.3844 97.5436L98.3278 95.1367L101.201 93.8525L103.521 91.0251L106.787 94.3701L103.849 99.0513C103.693 99.49 103.482 99.9075 103.223 100.294V100.294Z" fill="#2F2E41"/>
<path d="M92.9805 108.822C92.9805 108.822 101.419 122.287 99.8903 123.819C98.3615 125.35 95.9824 125.752 95.9824 125.752L90.7173 118.918L92.9805 108.822Z" fill="#2F2E41"/>
<path d="M85.5193 90.4316L89.4965 93.1268C91.3451 94.3795 92.7354 96.202 93.4567 98.3177C94.178 100.434 94.1909 102.727 93.4934 104.851L92.3737 108.26L85.5193 90.4316Z" fill="#2F2E41"/>
<path d="M78.4866 127.188L77.9548 129.043L76.1404 151.416L67.0756 168.339L71.4019 171.435L83.7632 155.337L88.6524 139.353L96.3305 174.737L102.099 174.324L98.0927 125.265L90.4904 111.456L78.4866 127.188Z" fill="#2F2E41"/>
<path d="M84.8429 91.1094L90.3783 95.6412C91.5932 96.6358 92.468 97.9853 92.8809 99.5016V99.5016C93.0683 100.19 93.1574 100.902 93.1454 101.615L92.9805 111.456L98.0558 125.044C98.0558 125.044 84.2962 130.251 82.4616 125.656C80.627 121.062 84.8429 91.1094 84.8429 91.1094Z" fill="#6C63FF"/>
<path d="M86.4985 128.041C79.6248 128.041 77.9496 128.093 77.8411 128.071L77.7324 128.049V123.908L79.4039 116.467C79.2086 114.157 78.7509 111.112 78.7924 108.504C78.9422 99.077 78.4796 89.8689 78.4796 89.8689L82.1177 86.5049L83.7704 87.5823L86.8362 90.6533C90.3997 99.4385 93.2274 107.709 93.2452 108.241L93.4692 117.386L92.5519 121.062C88.4023 123.996 92.1938 128.041 86.4985 128.041Z" fill="#2F2E41"/>
<path opacity="0.2" d="M80.0215 98.0809L79.1858 103.306L84.8428 105.643L80.0215 98.0809Z" fill="black"/>
<path d="M85.7203 85.5247C88.7791 85.5247 91.2588 83.0407 91.2588 79.9764C91.2588 76.9122 88.7791 74.4282 85.7203 74.4282C82.6614 74.4282 80.1817 76.9122 80.1817 79.9764C80.1817 83.0407 82.6614 85.5247 85.7203 85.5247Z" fill="#FFB6B6"/>
<path opacity="0.2" d="M76.4399 108.128C77.914 109.838 79.9134 111.008 82.1239 111.456C84.3345 111.903 86.6308 111.603 88.6521 110.6L89.8575 110.003L76.4399 108.128Z" fill="black"/>
<path d="M95.7128 106.851C95.4657 106.572 95.1608 106.352 94.8195 106.205C94.4782 106.058 94.1089 105.987 93.7375 105.998C93.366 106.01 93.0016 106.102 92.6698 106.27C92.338 106.437 92.0469 106.676 91.8171 106.968L86.2249 105.396L84.442 108.567L92.3704 110.677C92.8864 111.031 93.5143 111.183 94.135 111.105C94.7557 111.026 95.3261 110.722 95.7381 110.251C96.15 109.779 96.375 109.173 96.3704 108.546C96.3657 107.919 96.1317 107.316 95.7127 106.851H95.7128Z" fill="#FFB6B6"/>
<path d="M82.368 110.37C79.7092 110.37 76.1118 108.808 71.8413 105.784C71.6033 105.619 71.4021 105.406 71.2505 105.159C71.0989 104.912 71.0002 104.636 70.9607 104.348C70.6457 102.349 72.5923 99.6464 72.7832 99.3873L74.8295 93.7579C74.853 93.6664 75.5125 91.2308 77.1681 90.3642C77.5167 90.1851 77.8998 90.0837 78.2912 90.067C78.6826 90.0503 79.0729 90.1187 79.4355 90.2674C82.589 91.4178 80.1265 100.301 79.7885 101.465L83.9666 103.435L86.6198 105.13L90.2533 105.51L89.2667 110.084L83.7486 110.208C83.2968 110.319 82.8331 110.373 82.368 110.37V110.37Z" fill="#2F2E41"/>
<path d="M92.3619 76.3265C91.9184 76.9042 90.3911 77.4152 88.5768 77.8275C88.5797 77.7897 88.5797 77.752 88.5797 77.7143C88.5706 77.1362 88.4987 76.5608 88.3652 75.9984C88.2397 76.6872 87.9754 77.3431 87.5885 77.9262C87.5595 77.9698 87.5305 78.0133 87.4986 78.0568C85.9423 78.3646 84.2961 78.6027 83.0064 78.7624C83.8932 81.9618 87.2929 84.5864 86.9248 86.5316L76.9636 88.5697C77.0249 87.7614 76.9603 86.9484 76.7723 86.16C76.5818 87.2006 76.0782 88.1579 75.329 88.9036L74.4827 89.0778L74.2306 87.8323C72.0453 82.5744 75.0914 77.1917 80.0821 74.4074C80.9719 73.0712 82.3536 72.1421 83.9251 71.8234L85.1685 71.568C85.9527 71.4072 86.7609 71.4028 87.5468 71.555C88.3327 71.7071 89.081 72.0128 89.749 72.4547C90.417 72.8966 90.9915 73.466 91.4399 74.1303C91.8882 74.7946 92.2015 75.5409 92.3619 76.3265Z" fill="#2F2E41"/>
<path d="M116.157 176.912L116.305 173.594C117.84 172.772 119.553 172.338 121.294 172.329C118.898 174.292 119.197 178.075 117.573 180.714C117.06 181.533 116.369 182.226 115.552 182.742C114.736 183.258 113.814 183.583 112.854 183.693L110.849 184.923C110.574 183.386 110.635 181.808 111.027 180.297C111.419 178.786 112.134 177.378 113.122 176.171C113.682 175.499 114.325 174.9 115.036 174.389C115.516 175.658 116.157 176.912 116.157 176.912Z" fill="#F2F2F2"/>
<path d="M121.019 185H51.1872C51.0909 185 50.9985 184.961 50.9305 184.893C50.8624 184.824 50.8242 184.732 50.8242 184.635C50.8242 184.539 50.8624 184.446 50.9305 184.378C50.9985 184.309 51.0909 184.271 51.1872 184.271H121.019C121.067 184.27 121.114 184.28 121.159 184.298C121.203 184.316 121.243 184.343 121.277 184.377C121.311 184.411 121.338 184.451 121.356 184.495C121.375 184.54 121.384 184.587 121.384 184.635C121.384 184.683 121.375 184.731 121.356 184.775C121.338 184.819 121.311 184.86 121.277 184.894C121.243 184.927 121.203 184.954 121.159 184.973C121.114 184.991 121.067 185 121.019 185Z" fill="#CACACA"/>
</g>
</g>
<defs>
<clipPath id="clip0_0_3">
<rect width="200" height="200" fill="white"/>
</clipPath>
<clipPath id="clip1_0_3">
<rect width="263" height="169" fill="white" transform="translate(-19 16)"/>
</clipPath>
</defs>
</svg>
