<svg width="200" height="167" viewBox="0 0 200 167" fill="none" xmlns="http://www.w3.org/2000/svg">
<path d="M164.939 25.7294C164.939 25.5463 165.012 25.3708 165.141 25.2413C165.27 25.1118 165.446 25.039 165.628 25.0388H170.319C170.501 25.0388 170.677 25.1115 170.806 25.241C170.936 25.3706 171.008 25.5462 171.008 25.7294C171.008 25.9126 170.936 26.0882 170.806 26.2177C170.677 26.3473 170.501 26.42 170.319 26.42H165.628C165.446 26.4198 165.27 26.347 165.141 26.2175C165.012 26.088 164.939 25.9125 164.939 25.7294Z" fill="#E6E6E6"/>
<path d="M172.664 25.7294C172.664 25.5463 172.736 25.3708 172.866 25.2413C172.995 25.1118 173.17 25.039 173.353 25.0388H178.043C178.226 25.0388 178.402 25.1115 178.531 25.241C178.66 25.3706 178.733 25.5462 178.733 25.7294C178.733 25.9126 178.66 26.0882 178.531 26.2177C178.402 26.3473 178.226 26.42 178.043 26.42H173.353C173.17 26.4198 172.995 26.347 172.866 26.2175C172.736 26.088 172.664 25.9125 172.664 25.7294Z" fill="#E6E6E6"/>
<path d="M169.767 37.956C170.576 37.956 171.232 37.2846 171.232 36.4565C171.232 35.6283 170.576 34.9569 169.767 34.9569C168.958 34.9569 168.302 35.6283 168.302 36.4565C168.302 37.2846 168.958 37.956 169.767 37.956Z" fill="#3F3D56"/>
<path d="M174.827 37.956C175.636 37.956 176.292 37.2846 176.292 36.4565C176.292 35.6283 175.636 34.9569 174.827 34.9569C174.018 34.9569 173.362 35.6283 173.362 36.4565C173.362 37.2846 174.018 37.956 174.827 37.956Z" fill="#3F3D56"/>
<path d="M179.888 37.956C180.697 37.956 181.353 37.2846 181.353 36.4565C181.353 35.6283 180.697 34.9569 179.888 34.9569C179.079 34.9569 178.423 35.6283 178.423 36.4565C178.423 37.2846 179.079 37.956 179.888 37.956Z" fill="#3F3D56"/>
<path d="M126.711 86.193H91.7943C91.3003 86.194 90.8269 86.391 90.4781 86.741C90.1293 87.091 89.9336 87.566 89.9341 88.06V143.291H128.576V88.06C128.576 87.815 128.528 87.572 128.434 87.346C128.34 87.119 128.203 86.913 128.03 86.74C127.856 86.566 127.651 86.429 127.424 86.335C127.198 86.241 126.956 86.193 126.711 86.193ZM109.37 117.574C108.278 117.569 107.232 117.132 106.46 116.359C105.688 115.586 105.252 114.539 105.247 113.446V107.075C105.248 105.981 105.683 104.932 106.456 104.158C107.229 103.385 108.277 102.95 109.37 102.95C110.463 102.95 111.511 103.385 112.284 104.158C113.057 104.932 113.492 105.981 113.493 107.075V113.446C113.488 114.539 113.052 115.586 112.28 116.359C111.508 117.132 110.462 117.569 109.37 117.574Z" fill="#E6E6E6"/>
<path d="M89.8143 141.524V146.853C89.8148 147.129 89.9246 147.393 90.1196 147.589C90.3146 147.784 90.5789 147.894 90.8546 147.894H127.655C127.931 147.893 128.194 147.783 128.389 147.588C128.584 147.393 128.694 147.129 128.695 146.853V141.524H89.8143Z" fill="#CCCCCC"/>
<path d="M184.529 0H35.2753C33.993 0.002 32.7637 0.513 31.857 1.4209C30.9503 2.3289 30.44 3.5597 30.4379 4.8437V105.694C30.4391 106.978 30.9492 108.209 31.8561 109.117C32.763 110.025 33.9927 110.536 35.2753 110.537H184.529C185.811 110.536 187.041 110.025 187.948 109.117C188.855 108.209 189.365 106.978 189.366 105.694V4.8437C189.364 3.5597 188.854 2.3289 187.947 1.4209C187.04 0.513 185.811 0.002 184.529 0Z" fill="#E6E6E6"/>
<path d="M183.283 3.4986H36.5223C35.8357 3.5 35.1777 3.7742 34.6927 4.2608C34.2077 4.7475 33.9353 5.4069 33.9353 6.0944V104.444C33.9364 105.131 34.2094 105.789 34.6943 106.275C35.1792 106.76 35.8365 107.034 36.5223 107.035H183.283C183.969 107.034 184.626 106.76 185.111 106.275C185.596 105.789 185.869 105.131 185.87 104.444V6.0944C185.87 5.4069 185.598 4.7475 185.113 4.2608C184.628 3.7742 183.97 3.5 183.283 3.4986Z" fill="white"/>
<path d="M185.87 6.0944V104.444C185.869 105.131 185.596 105.789 185.111 106.275C184.626 106.76 183.969 107.034 183.283 107.035H131.532C125.807 101.719 121.11 95.391 117.677 88.369C117.451 87.916 117.236 87.459 117.032 86.995C113.904 80.1989 112.01 72.8988 111.438 65.4372C111.401 64.9795 111.368 64.5217 111.347 64.0585C111.277 62.8737 111.245 61.6728 111.245 60.4664C111.234 52.4433 112.747 44.4913 115.703 37.0341C115.881 36.5709 116.069 36.1131 116.263 35.6554C122.211 21.66 132.961 10.2549 146.57 3.4986H183.283C183.97 3.5 184.628 3.7742 185.113 4.2608C185.598 4.7475 185.87 5.4069 185.87 6.0944Z" fill="#6C63FF"/>
<path d="M175.906 17.049H38.5822C38.4393 17.046 38.3034 16.987 38.2035 16.8848C38.1035 16.7826 38.0476 16.6452 38.0476 16.5022C38.0476 16.3591 38.1035 16.2218 38.2035 16.1196C38.3034 16.0174 38.4393 15.9584 38.5822 15.9554H175.906C176.048 15.9584 176.184 16.0174 176.284 16.1196C176.384 16.2218 176.44 16.3591 176.44 16.5022C176.44 16.6452 176.384 16.7826 176.284 16.8848C176.184 16.987 176.048 17.046 175.906 17.049Z" fill="#CACACA"/>
<path d="M47.9299 13.1634C49.6975 13.1634 51.1303 11.6967 51.1303 9.88739C51.1303 8.07809 49.6975 6.61139 47.9299 6.61139C46.1624 6.61139 44.7296 8.07809 44.7296 9.88739C44.7296 11.6967 46.1624 13.1634 47.9299 13.1634Z" fill="#3F3D56"/>
<path d="M58.9858 13.1634C60.7533 13.1634 62.1862 11.6967 62.1862 9.88739C62.1862 8.07809 60.7533 6.61139 58.9858 6.61139C57.2183 6.61139 55.7854 8.07809 55.7854 9.88739C55.7854 11.6967 57.2183 13.1634 58.9858 13.1634Z" fill="#3F3D56"/>
<path d="M70.0417 13.1634C71.8092 13.1634 73.2421 11.6967 73.2421 9.88739C73.2421 8.07809 71.8092 6.61139 70.0417 6.61139C68.2742 6.61139 66.8413 8.07809 66.8413 9.88739C66.8413 11.6967 68.2742 13.1634 70.0417 13.1634Z" fill="#3F3D56"/>
<path d="M169.249 7.4234H161.395C161.24 7.4265 161.092 7.4906 160.983 7.6019C160.874 7.7132 160.812 7.8629 160.812 8.0188C160.812 8.1747 160.874 8.3244 160.983 8.4358C161.092 8.5471 161.24 8.6112 161.395 8.6143H169.249C169.405 8.6112 169.553 8.5471 169.662 8.4358C169.771 8.3244 169.832 8.1747 169.832 8.0188C169.832 7.8629 169.771 7.7132 169.662 7.6019C169.553 7.4906 169.405 7.4265 169.249 7.4234Z" fill="#3F3D56"/>
<path d="M169.249 9.65851H161.395C161.24 9.66161 161.092 9.72571 160.983 9.83701C160.874 9.94831 160.812 10.098 160.812 10.2539C160.812 10.4098 160.874 10.5595 160.983 10.6708C161.092 10.7822 161.24 10.8463 161.395 10.8493H169.249C169.405 10.8463 169.553 10.7822 169.662 10.6708C169.771 10.5595 169.832 10.4098 169.832 10.2539C169.832 10.098 169.771 9.94831 169.662 9.83701C169.553 9.72571 169.405 9.66161 169.249 9.65851Z" fill="#3F3D56"/>
<path d="M169.249 11.8906H161.395C161.24 11.8937 161.092 11.9578 160.983 12.0691C160.874 12.1805 160.812 12.3302 160.812 12.4861C160.812 12.642 160.874 12.7917 160.983 12.903C161.092 13.0143 161.24 13.0784 161.395 13.0815H169.249C169.405 13.0784 169.553 13.0143 169.662 12.903C169.771 12.7917 169.832 12.642 169.832 12.4861C169.832 12.3302 169.771 12.1805 169.662 12.0691C169.553 11.9578 169.405 11.8937 169.249 11.8906Z" fill="#3F3D56"/>
<path d="M80.6289 48.9947H61.4254C60.701 48.9947 60.1138 49.5827 60.1138 50.308V52.3549C60.1138 53.0802 60.701 53.6682 61.4254 53.6682H80.6289C81.3533 53.6682 81.9405 53.0802 81.9405 52.3549V50.308C81.9405 49.5827 81.3533 48.9947 80.6289 48.9947Z" fill="#6C63FF"/>
<path d="M91.7139 58.3417H50.3404C49.6161 58.3417 49.0288 58.9297 49.0288 59.655V61.7019C49.0288 62.4272 49.6161 63.0152 50.3404 63.0152H91.7139C92.4383 63.0152 93.0255 62.4272 93.0255 61.7019V59.655C93.0255 58.9297 92.4383 58.3417 91.7139 58.3417Z" fill="#E6E6E6"/>
<path d="M91.7139 67.6888H50.3404C49.6161 67.6888 49.0288 68.2768 49.0288 69.0021V71.049C49.0288 71.7743 49.6161 72.3623 50.3404 72.3623H91.7139C92.4383 72.3623 93.0255 71.7743 93.0255 71.049V69.0021C93.0255 68.2768 92.4383 67.6888 91.7139 67.6888Z" fill="#E6E6E6"/>
<path d="M52.6199 101.396C52.6231 103.321 52.2806 105.231 51.6087 107.035H36.5223C35.8365 107.034 35.1792 106.76 34.6943 106.275C34.2094 105.789 33.9364 105.131 33.9353 104.444V85.444C34.7782 85.308 35.6307 85.239 36.4846 85.24C38.6036 85.24 40.7018 85.657 42.6595 86.469C44.6171 87.281 46.3959 88.471 47.8942 89.972C49.3926 91.472 50.5811 93.253 51.3919 95.213C52.2027 97.174 52.62 99.275 52.6199 101.396Z" fill="#6C63FF"/>
<path opacity="0.2" d="M186.004 37.0341V35.6554H162.926V19.6767H161.554V35.6554H135.103V19.6767H133.732V35.6554H116.263C116.069 36.1132 115.881 36.571 115.703 37.0341H133.732V64.0586H111.347C111.368 64.5217 111.401 64.9795 111.438 65.4373H133.732V86.996H117.032C117.236 87.459 117.451 87.916 117.677 88.369H133.732V106.491H135.103V88.369H161.554V106.491H162.926V88.369H186.004V86.995H162.926C162.926 84.164 163.483 81.3611 164.565 78.7455C165.647 76.1299 167.232 73.7534 169.232 71.7515C171.231 69.7497 173.604 68.1617 176.216 67.0783C178.829 65.9949 181.628 65.4373 184.456 65.4373H186.004V64.0586H162.926V37.0341H186.004ZM161.554 86.995H135.103V65.4373H161.554V86.995ZM161.554 64.0586H135.103V63.52C135.103 56.4955 137.89 49.7587 142.85 44.7917C147.811 39.8246 154.539 37.0341 161.554 37.0341V64.0586Z" fill="black"/>
<path d="M167.423 96.831C167.128 96.845 166.837 96.768 166.588 96.61C166.339 96.452 166.144 96.221 166.031 95.949C165.917 95.677 165.889 95.376 165.952 95.088C166.015 94.799 166.165 94.537 166.381 94.337C166.417 94.193 166.443 94.089 166.479 93.945C166.466 93.914 166.453 93.882 166.44 93.851C165.117 90.692 160.633 90.713 159.321 93.877C158.156 96.686 156.674 99.499 156.309 102.468C156.148 103.78 156.216 105.111 156.509 106.4C153.774 100.426 152.354 93.933 152.345 87.362C152.344 85.713 152.436 84.065 152.619 82.4259C152.77 81.0824 152.98 79.7484 153.249 78.424C154.715 71.2381 157.862 64.5028 162.432 58.7713C164.644 57.5627 166.433 55.7043 167.558 53.4464C167.965 52.6348 168.253 51.7683 168.413 50.8741C168.163 50.9068 167.91 50.9273 167.66 50.9437C167.582 50.9478 167.501 50.9519 167.423 50.956L167.394 50.9573C167.119 50.9696 166.847 50.9023 166.61 50.7635C166.374 50.6246 166.182 50.4202 166.058 50.1747C165.935 49.9293 165.885 49.6533 165.914 49.38C165.943 49.1067 166.051 48.8477 166.224 48.6343C166.332 48.5015 166.44 48.3688 166.547 48.2362C166.711 48.0314 166.879 47.8307 167.042 47.6259C167.061 47.6065 167.079 47.5859 167.096 47.5644C167.284 47.331 167.472 47.1016 167.66 46.8681C167.317 46.3343 166.855 45.8871 166.31 45.5615C164.424 44.4556 161.823 45.2215 160.461 46.9296C159.094 48.6376 158.837 51.0338 159.311 53.1678C159.716 54.9947 160.6 56.67 161.594 58.2633C161.491 58.3944 161.385 58.5214 161.283 58.6525C159.413 61.0595 157.784 63.6442 156.418 66.3695C156.75 63.3164 156.354 60.2279 155.261 57.3581C154.154 54.6836 152.079 52.4311 150.251 50.119C148.056 47.3418 143.555 48.5539 143.168 52.0744C143.164 52.1085 143.161 52.1425 143.157 52.1766C143.429 52.3299 143.694 52.4927 143.954 52.6649C144.281 52.8834 144.534 53.1956 144.68 53.5605C144.827 53.9255 144.86 54.3263 144.775 54.7103C144.69 55.0943 144.491 55.4436 144.204 55.7126C143.918 55.9815 143.556 56.1574 143.168 56.2173L143.129 56.2235C143.225 57.2031 143.396 58.1739 143.64 59.1276C144.346 61.7899 145.594 64.2775 147.305 66.4343C149.016 68.5911 151.154 70.3707 153.584 71.6615C153.744 71.7434 153.899 71.8253 154.059 71.9032C152.686 75.7973 151.826 79.8536 151.498 83.9701C151.313 86.399 151.323 88.838 151.531 91.265L151.518 91.179C150.995 88.481 149.557 86.046 147.448 84.285C144.316 81.7091 139.891 80.7603 136.512 78.6894C134.885 77.6925 132.801 78.9807 133.084 80.8691C133.089 80.8992 133.094 80.9294 133.098 80.9595C133.602 81.165 134.092 81.4016 134.567 81.6681C134.838 81.8215 135.104 81.9842 135.364 82.1564C135.691 82.3749 135.944 82.6871 136.09 83.0521C136.236 83.417 136.269 83.8178 136.184 84.202C136.099 84.586 135.901 84.935 135.614 85.204C135.327 85.473 134.966 85.649 134.578 85.709L134.538 85.715C134.51 85.719 134.485 85.723 134.456 85.727C135.317 87.785 136.525 89.679 138.027 91.327C139.883 93.321 142.127 94.914 144.62 96.01C147.112 97.105 149.803 97.679 152.525 97.696H152.529C153.268 100.911 154.339 104.041 155.724 107.035H167.137C167.177 106.908 167.214 106.777 167.251 106.65C166.195 106.716 165.134 106.653 164.093 106.461C164.94 105.421 165.787 104.372 166.633 103.332C166.652 103.313 166.67 103.292 166.687 103.271C167.116 102.738 167.55 102.21 167.979 101.677C168.002 100.044 167.815 98.416 167.423 96.832V96.831ZM154.353 71.088L154.359 71.0799L154.353 71.0962V71.088ZM151.825 93.907L151.727 93.686C151.731 93.526 151.731 93.366 151.727 93.203C151.727 93.158 151.719 93.112 151.719 93.067C151.756 93.35 151.788 93.633 151.829 93.915L151.825 93.907Z" fill="#2F2E41"/>
<path d="M65.7947 70.1038V54.7449C65.7947 52.3873 64.8594 50.1263 63.1945 48.4592C61.5296 46.7922 59.2716 45.8556 56.9171 45.8556H24.42C22.0655 45.8556 19.8075 46.7922 18.1426 48.4592C16.4777 50.1263 15.5424 52.3873 15.5424 54.7449V139.005C15.5424 141.363 16.4777 143.624 18.1426 145.291C19.8075 146.958 22.0655 147.894 24.42 147.894H56.9171C58.0829 147.894 59.2373 147.664 60.3144 147.218C61.3915 146.771 62.3701 146.116 63.1945 145.291C64.0189 144.465 64.6728 143.485 65.1189 142.407C65.5651 141.328 65.7947 140.172 65.7947 139.005V81.0366C65.9432 81.0366 66.0856 80.9775 66.1906 80.8724C66.2956 80.7672 66.3546 80.6246 66.3546 80.4759V70.6645C66.3546 70.5158 66.2956 70.3732 66.1906 70.2681C66.0856 70.1629 65.9432 70.1038 65.7947 70.1038Z" fill="#E6E6E6"/>
<path d="M63.9054 54.8059V138.944C63.9056 140.692 63.2171 142.369 61.9894 143.612C60.7618 144.854 59.0942 145.561 57.3489 145.579C57.3248 145.582 57.3006 145.583 57.2764 145.582H24.6211C22.863 145.582 21.177 144.883 19.9339 143.638C18.6907 142.393 17.9923 140.705 17.9921 138.944V54.8059C17.9923 53.0455 18.6907 51.3573 19.9339 50.1125C21.177 48.8677 22.863 48.1684 24.6211 48.1682H28.584C28.3892 48.6472 28.3149 49.1669 28.3678 49.6814C28.4206 50.1959 28.599 50.6896 28.8871 51.1189C29.1752 51.5482 29.5643 51.9 30.0201 52.1434C30.4759 52.3868 30.9844 52.5143 31.501 52.5147H50.1184C50.6345 52.5132 51.1424 52.385 51.5974 52.1413C52.0525 51.8975 52.4409 51.5457 52.7286 51.1166C53.0162 50.6876 53.1944 50.1944 53.2473 49.6803C53.3003 49.1662 53.2265 48.647 53.0323 48.1682H57.2764C59.0344 48.1684 60.7204 48.8677 61.9636 50.1125C63.2067 51.3573 63.9052 53.0455 63.9054 54.8059Z" fill="white"/>
<path d="M57.4305 142.985C57.4305 143.857 57.4033 144.721 57.3489 145.579C57.3248 145.582 57.3006 145.583 57.2763 145.582H24.6211C22.863 145.582 21.177 144.883 19.9339 143.638C18.6907 142.393 17.9923 140.705 17.9921 138.944V101.449C28.6317 101.986 38.6584 106.596 45.9987 114.327C53.3391 122.058 57.4317 132.318 57.4305 142.985Z" fill="#F2F2F2"/>
<path d="M15.722 78.6962C15.5216 78.696 15.3296 78.6162 15.1879 78.4743C15.0462 78.3324 14.9665 78.1401 14.9663 77.9395V72.794C14.9663 72.5933 15.0459 72.4008 15.1876 72.2589C15.3294 72.117 15.5216 72.0373 15.722 72.0373C15.9224 72.0373 16.1146 72.117 16.2564 72.2589C16.3981 72.4008 16.4777 72.5933 16.4777 72.794V77.9395C16.4775 78.1401 16.3978 78.3324 16.2561 78.4743C16.1144 78.6162 15.9224 78.696 15.722 78.6962Z" fill="#E6E6E6"/>
<path d="M44.9583 74.5877H36.9392C36.2148 74.5877 35.6276 75.1757 35.6276 75.901V77.9479C35.6276 78.6732 36.2148 79.2612 36.9392 79.2612H44.9583C45.6827 79.2612 46.2699 78.6732 46.2699 77.9479V75.901C46.2699 75.1757 45.6827 74.5877 44.9583 74.5877Z" fill="#6C63FF"/>
<path d="M56.0433 83.9347H25.8542C25.1298 83.9347 24.5426 84.523 24.5426 85.248V87.295C24.5426 88.02 25.1298 88.608 25.8542 88.608H56.0433C56.7677 88.608 57.3549 88.02 57.3549 87.295V85.248C57.3549 84.523 56.7677 83.9347 56.0433 83.9347Z" fill="#E6E6E6"/>
<path d="M56.0433 93.282H25.8542C25.1298 93.282 24.5426 93.87 24.5426 94.595V96.642C24.5426 97.367 25.1298 97.955 25.8542 97.955H56.0433C56.7677 97.955 57.3549 97.367 57.3549 96.642V94.595C57.3549 93.87 56.7677 93.282 56.0433 93.282Z" fill="#E6E6E6"/>
<path d="M48.7794 140.794C48.6412 140.8 48.5045 140.764 48.3876 140.69C48.2708 140.616 48.1795 140.508 48.1262 140.38C48.0728 140.252 48.06 140.111 48.0894 139.976C48.1188 139.84 48.189 139.717 48.2906 139.623L48.3368 139.439C48.3307 139.425 48.3246 139.41 48.3184 139.395C48.1793 139.066 47.946 138.786 47.6481 138.589C47.3502 138.392 47.0008 138.287 46.6438 138.289C46.2868 138.29 45.9382 138.397 45.6417 138.596C45.3453 138.795 45.1141 139.078 44.9774 139.408C44.431 140.726 43.7353 142.046 43.564 143.439C43.4885 144.055 43.5204 144.679 43.658 145.284C42.3746 142.481 41.7082 139.434 41.7039 136.35C41.7036 135.576 41.7465 134.803 41.8325 134.034C41.9035 133.403 42.0021 132.777 42.1281 132.156C42.816 128.784 44.2929 125.623 46.4376 122.934C47.4756 122.366 48.3151 121.494 48.8429 120.435C49.0341 120.054 49.1692 119.647 49.2441 119.228C49.127 119.243 49.008 119.253 48.8909 119.26C48.8544 119.262 48.816 119.264 48.7795 119.266L48.7658 119.267C48.6371 119.273 48.5095 119.241 48.3983 119.176C48.2871 119.111 48.1971 119.015 48.1391 118.9C48.0811 118.784 48.0576 118.655 48.0714 118.527C48.0853 118.398 48.1358 118.277 48.217 118.177C48.2675 118.114 48.3181 118.052 48.3687 117.99C48.4455 117.894 48.5242 117.8 48.601 117.703C48.6099 117.694 48.6182 117.685 48.626 117.675C48.7143 117.565 48.8026 117.457 48.8909 117.348C48.7297 117.097 48.5129 116.888 48.2574 116.735C47.3725 116.216 46.1516 116.575 45.5124 117.377C44.8712 118.178 44.7503 119.303 44.973 120.304C45.1919 121.156 45.5542 121.965 46.0441 122.695C45.9961 122.757 45.9462 122.816 45.8982 122.878C45.0209 124.007 44.2563 125.22 43.6154 126.499C43.7712 125.066 43.5852 123.617 43.0726 122.27C42.553 121.015 41.5791 119.958 40.7215 118.873C40.4947 118.582 40.1867 118.364 39.8364 118.248C39.4861 118.132 39.1092 118.122 38.7535 118.221C38.3977 118.319 38.0791 118.52 37.8377 118.8C37.5964 119.079 37.4432 119.424 37.3976 119.791C37.3958 119.807 37.3941 119.823 37.3924 119.839C37.5198 119.911 37.6445 119.987 37.7665 120.068C37.9198 120.171 38.0385 120.317 38.1072 120.488C38.1759 120.66 38.1913 120.848 38.1515 121.028C38.1116 121.208 38.0183 121.372 37.8838 121.498C37.7493 121.624 37.5798 121.707 37.3977 121.735L37.379 121.738C37.4244 122.198 37.5046 122.653 37.619 123.101C37.9503 124.35 38.5359 125.517 39.3389 126.53C40.1419 127.542 41.1451 128.377 42.2855 128.983C42.3604 129.021 42.4333 129.059 42.5082 129.096C41.8642 130.923 41.4603 132.827 41.3065 134.759C41.2195 135.898 41.2246 137.043 41.3219 138.182L41.3161 138.142C41.0704 136.875 40.3958 135.733 39.4061 134.907C37.9363 133.698 35.8596 133.252 34.2739 132.281C34.1054 132.172 33.9094 132.114 33.7092 132.114C33.5089 132.113 33.3127 132.17 33.1436 132.278C32.9746 132.385 32.8397 132.539 32.7551 132.721C32.6704 132.902 32.6394 133.105 32.6657 133.303L32.6722 133.346C32.9085 133.442 33.1387 133.553 33.3613 133.678C33.4887 133.75 33.6134 133.827 33.7354 133.907C33.8886 134.01 34.0074 134.156 34.0761 134.328C34.1448 134.499 34.1602 134.687 34.1203 134.867C34.0804 135.048 33.9871 135.211 33.8526 135.338C33.7181 135.464 33.5487 135.546 33.3665 135.575L33.3478 135.577C33.3344 135.579 33.3229 135.581 33.3094 135.583C33.7133 136.549 34.2802 137.438 34.9852 138.211C35.8562 139.147 36.9089 139.894 38.0787 140.408C39.2485 140.922 40.5109 141.192 41.7883 141.2H41.7903C42.137 142.709 42.6395 144.177 43.2895 145.582H48.6452C48.6644 145.523 48.6816 145.461 48.6989 145.401C48.2032 145.433 47.7055 145.403 47.217 145.313C47.6143 144.825 48.0117 144.333 48.409 143.844C48.4179 143.835 48.4262 143.826 48.434 143.816C48.6356 143.566 48.839 143.318 49.0406 143.068H49.0407C49.0515 142.302 48.9637 141.538 48.7795 140.794H48.7794ZM42.6464 128.713L42.6492 128.71L42.6464 128.717V128.713ZM41.4601 139.422L41.414 139.318C41.4159 139.243 41.4159 139.168 41.414 139.091C41.414 139.07 41.4102 139.049 41.4102 139.028C41.4275 139.16 41.4428 139.293 41.462 139.426L41.4601 139.422Z" fill="#CCCCCC"/>
<path d="M15.5709 68.7078C15.3705 68.7076 15.1784 68.6278 15.0368 68.4859C14.8951 68.3441 14.8154 68.1517 14.8152 67.9511V62.8056C14.8152 62.6049 14.8948 62.4124 15.0365 62.2705C15.1782 62.1286 15.3704 62.0489 15.5709 62.0489C15.7713 62.0489 15.9635 62.1286 16.1052 62.2705C16.2469 62.4124 16.3266 62.6049 16.3266 62.8056V67.9511C16.3263 68.1517 16.2466 68.3441 16.105 68.4859C15.9633 68.6278 15.7712 68.7076 15.5709 68.7078Z" fill="#E6E6E6"/>
<path d="M35.6724 49.0337C35.6727 48.8331 35.7524 48.6408 35.894 48.4989C36.0357 48.3571 36.2278 48.2773 36.4281 48.277H41.5669C41.7673 48.277 41.9595 48.3568 42.1012 48.4987C42.243 48.6406 42.3226 48.833 42.3226 49.0337C42.3226 49.2344 42.243 49.4269 42.1012 49.5688C41.9595 49.7107 41.7673 49.7904 41.5669 49.7904H36.4281C36.2278 49.7902 36.0357 49.7104 35.894 49.5685C35.7524 49.4267 35.6727 49.2344 35.6724 49.0337Z" fill="white"/>
<path d="M15.722 87.474C15.5216 87.474 15.3296 87.394 15.1879 87.252C15.0462 87.11 14.9665 86.918 14.9663 86.717V81.5716C14.9663 81.3709 15.0459 81.1785 15.1876 81.0366C15.3294 80.8947 15.5216 80.8149 15.722 80.8149C15.9224 80.8149 16.1146 80.8947 16.2564 81.0366C16.3981 81.1785 16.4777 81.3709 16.4777 81.5716V86.717C16.4775 86.918 16.3978 87.11 16.2561 87.252C16.1144 87.394 15.9224 87.474 15.722 87.474Z" fill="#E6E6E6"/>
<path d="M44.4385 49.7904C44.8559 49.7904 45.1942 49.4516 45.1942 49.0337C45.1942 48.6158 44.8559 48.277 44.4385 48.277C44.0212 48.277 43.6828 48.6158 43.6828 49.0337C43.6828 49.4516 44.0212 49.7904 44.4385 49.7904Z" fill="white"/>
<path d="M245.64 147.892L-13.6401 147.985C-13.7354 147.985 -13.8266 147.947 -13.8939 147.879C-13.9612 147.812 -13.999 147.72 -13.999 147.625C-13.999 147.53 -13.9612 147.438 -13.8939 147.371C-13.8266 147.303 -13.7354 147.265 -13.6401 147.265L245.64 147.172C245.736 147.172 245.827 147.21 245.895 147.277C245.962 147.345 246 147.436 246 147.532C246 147.628 245.962 147.719 245.895 147.787C245.827 147.854 245.736 147.892 245.64 147.892Z" fill="#CACACA"/>
<path d="M96.868 68.4374L95.5042 68.7301C95.4953 68.1589 95.4242 67.5903 95.2922 67.0345C95.1682 67.7151 94.9069 68.3633 94.5243 68.9395L86.7024 70.6121L79.1929 62.6766C79.1814 58.7089 81.3818 55.6936 85.3272 55.6936C85.565 55.6936 85.8114 55.7051 86.0606 55.728C88.1922 55.3708 90.3791 55.8557 92.1609 57.0806C93.9426 58.3054 95.1802 60.1748 95.6131 62.295C98.4095 65.0521 97.3952 66.673 96.868 68.4374Z" fill="#2F2E41"/>
<path d="M100.714 161.24H103.551L104.901 150.282H100.713L100.714 161.24Z" fill="#FFB6B6"/>
<path d="M100.01 159.838L104.495 159.57V161.495L108.759 164.443C108.97 164.589 109.128 164.798 109.212 165.041C109.295 165.283 109.299 165.545 109.223 165.79C109.147 166.035 108.995 166.249 108.788 166.401C108.582 166.552 108.333 166.634 108.077 166.634H102.737L101.817 164.731L101.458 166.634H99.4444L100.01 159.838Z" fill="#2F2E41"/>
<path d="M67.4737 158.148L69.9415 159.549L76.5161 150.686L72.8739 148.616L67.4737 158.148Z" fill="#FFB6B6"/>
<path d="M67.5524 156.581L71.5854 158.564L70.6371 160.238L72.8925 164.909C73.0039 165.14 73.0388 165.401 72.992 165.652C72.9451 165.904 72.8191 166.135 72.6323 166.31C72.4454 166.485 72.2076 166.596 71.9534 166.626C71.6993 166.656 71.4421 166.604 71.2195 166.478L66.5753 163.839L66.7128 161.729L65.4622 163.207L63.7112 162.212L67.5524 156.581Z" fill="#2F2E41"/>
<path d="M111.201 70.3573C110.837 70.4099 110.49 70.5418 110.183 70.7435C109.876 70.9452 109.616 71.2119 109.423 71.5249C109.23 71.8378 109.108 72.1893 109.065 72.5546C109.022 72.92 109.06 73.2902 109.176 73.6394L104.834 77.4022L106.474 80.6018L112.531 75.2017C113.104 74.9684 113.571 74.5327 113.845 73.9772C114.118 73.4218 114.179 72.7852 114.015 72.188C113.851 71.5909 113.474 71.0747 112.955 70.7373C112.437 70.3998 111.813 70.2646 111.201 70.3573Z" fill="#FFB6B6"/>
<path d="M106.829 83.2968C105.381 85.493 102.135 87.614 97.3176 89.495C97.0519 89.601 96.767 89.652 96.4809 89.642C96.1948 89.633 95.9138 89.564 95.6556 89.44C93.8377 88.612 92.6726 85.532 92.5632 85.233L89.0423 80.4776C88.9798 80.4083 87.3333 78.5373 87.5216 76.6978C87.5641 76.3124 87.6893 75.9407 87.8888 75.6083C88.0882 75.2759 88.3572 74.9907 88.6772 74.7722C91.3425 72.7938 97.3159 79.665 98.091 80.5786L101.989 78.2002L104.83 76.9312L107.123 74.1372L110.352 77.4426L107.448 82.0684C107.293 82.5019 107.085 82.9145 106.829 83.2968Z" fill="#2F2E41"/>
<path d="M96.7031 91.723C96.7031 91.723 105.046 105.029 103.534 106.543C102.023 108.056 99.6708 108.453 99.6708 108.453L94.4658 101.7L96.7031 91.723Z" fill="#2F2E41"/>
<path d="M89.327 73.5508L93.2589 76.2141C95.0864 77.452 96.4609 79.2528 97.174 81.3436C97.887 83.4343 97.8998 85.701 97.2102 87.799L96.1033 91.168L89.327 73.5508Z" fill="#2F2E41"/>
<path d="M82.3745 109.872L81.8489 111.706L80.0551 133.813L71.0938 150.536L75.3707 153.595L87.591 137.688L92.4244 121.893L100.015 156.858L105.718 156.45L101.757 107.972L94.2414 94.326L82.3745 109.872Z" fill="#2F2E41"/>
<path d="M88.6584 74.2205L94.1307 78.6987C95.3317 79.6815 96.1965 81.015 96.6047 82.5134C96.79 83.1938 96.878 83.8971 96.8662 84.602L96.7031 94.326L101.721 107.753C101.721 107.753 88.1179 112.899 86.3042 108.359C84.4906 103.819 88.6584 74.2205 88.6584 74.2205Z" fill="#6C63FF"/>
<path d="M90.2951 110.716C83.4998 110.716 81.8437 110.767 81.7365 110.745L81.629 110.723V106.631L83.2814 99.278C83.0883 96.996 82.6359 93.986 82.6769 91.409C82.825 82.0938 82.3677 72.9947 82.3677 72.9947L85.9642 69.6705L87.5981 70.7352L90.6289 73.7698C94.1518 82.4511 96.9472 90.624 96.9648 91.149L97.1863 100.186L96.2795 103.819C92.1771 106.718 95.9254 110.716 90.2951 110.716Z" fill="#2F2E41"/>
<path opacity="0.2" d="M83.892 81.1096L83.0659 86.273L88.6583 88.582L83.892 81.1096Z" fill="black"/>
<path d="M89.5257 68.7019C92.5497 68.7019 95.0011 66.2473 95.0011 63.2193C95.0011 60.1914 92.5497 57.7367 89.5257 57.7367C86.5018 57.7367 84.0504 60.1914 84.0504 63.2193C84.0504 66.2473 86.5018 68.7019 89.5257 68.7019Z" fill="#FFB6B6"/>
<path opacity="0.2" d="M80.3512 91.037C81.8085 92.727 83.7851 93.884 85.9704 94.326C88.1558 94.768 90.4259 94.471 92.4241 93.481L93.6158 92.89L80.3512 91.037Z" fill="black"/>
<path d="M99.4043 89.775C99.16 89.501 98.8586 89.283 98.5212 89.137C98.1838 88.992 97.8187 88.922 97.4515 88.933C97.0843 88.944 96.724 89.036 96.396 89.202C96.068 89.367 95.7802 89.603 95.553 89.892L90.0246 88.338L88.2621 91.471L96.1 93.556C96.6102 93.906 97.2309 94.057 97.8445 93.979C98.4581 93.902 99.022 93.601 99.4293 93.135C99.8366 92.669 100.059 92.07 100.054 91.451C100.05 90.831 99.8184 90.235 99.4043 89.775Z" fill="#FFB6B6"/>
<path d="M86.2117 93.253C83.5833 93.253 80.0269 91.71 75.8051 88.721C75.5698 88.558 75.3709 88.348 75.221 88.104C75.0712 87.859 74.9736 87.587 74.9345 87.303C74.6231 85.327 76.5475 82.6565 76.7362 82.4005L78.7592 76.8377C78.7824 76.7473 79.4344 74.3405 81.0711 73.4842C81.4157 73.3072 81.7945 73.207 82.1814 73.1905C82.5683 73.174 82.9542 73.2416 83.3126 73.3885C86.4301 74.5253 83.9958 83.3029 83.6616 84.454L87.792 86.401L90.415 88.075L94.007 88.451L93.0318 92.971L87.5765 93.093C87.1299 93.203 86.6715 93.256 86.2117 93.253Z" fill="#2F2E41"/>
<path d="M96.0916 59.6126C95.6532 60.1835 94.1433 60.6884 92.3497 61.0958C92.3525 61.0585 92.3525 61.0212 92.3525 60.9839C92.3436 60.4127 92.2725 59.8441 92.1405 59.2884C92.0165 59.969 91.7552 60.6172 91.3726 61.1933C91.344 61.2364 91.3153 61.2794 91.2838 61.3224C89.7452 61.6265 88.1178 61.8618 86.8428 62.0196C87.7195 65.1812 91.0804 67.7747 90.7165 69.6969L80.869 71.7109C80.9295 70.9121 80.8657 70.1088 80.6799 69.3297C80.4915 70.3579 79.9936 71.3039 79.253 72.0408L78.4164 72.2129L78.1671 70.9822C76.0068 65.7865 79.0181 60.4675 83.9519 57.7162C84.8315 56.3958 86.1974 55.4777 87.7511 55.1628L88.9802 54.9103C89.7555 54.7515 90.5545 54.7471 91.3314 54.8975C92.1084 55.0479 92.8482 55.35 93.5085 55.7866C94.1689 56.2233 94.7369 56.7859 95.1801 57.4423C95.6233 58.0988 95.933 58.8362 96.0916 59.6126Z" fill="#2F2E41"/>
<path d="M119.616 159.008L119.761 155.729C121.279 154.917 122.972 154.488 124.694 154.479C122.325 156.418 122.621 160.157 121.015 162.765C120.508 163.574 119.825 164.259 119.018 164.769C118.21 165.278 117.299 165.599 116.35 165.708L114.368 166.923C114.096 165.405 114.156 163.845 114.544 162.352C114.932 160.859 115.638 159.468 116.614 158.275C117.169 157.611 117.805 157.02 118.507 156.515C118.981 157.768 119.616 159.008 119.616 159.008Z" fill="#F2F2F2"/>
<path d="M124.422 167H55.3866C55.2914 167 55.2001 166.962 55.1328 166.894C55.0655 166.827 55.0277 166.735 55.0277 166.64C55.0277 166.544 55.0655 166.453 55.1328 166.385C55.2001 166.318 55.2914 166.28 55.3866 166.279H124.422C124.469 166.279 124.516 166.288 124.56 166.306C124.604 166.324 124.643 166.351 124.677 166.384C124.711 166.418 124.737 166.458 124.755 166.501C124.773 166.545 124.783 166.592 124.783 166.64C124.783 166.687 124.773 166.734 124.755 166.778C124.737 166.822 124.711 166.861 124.677 166.895C124.643 166.928 124.604 166.955 124.56 166.973C124.516 166.991 124.469 167 124.422 167Z" fill="#CACACA"/>
</svg>
