<svg width="200" height="200" viewBox="0 0 200 200" fill="none" xmlns="http://www.w3.org/2000/svg">
<path d="M123.293 114.112H52.9655C50.5806 114.109 48.2941 113.156 46.6078 111.46C44.9214 109.765 43.9728 107.467 43.9701 105.069V22.0425C43.9728 19.6451 44.9214 17.3467 46.6078 15.6515C48.2941 13.9563 50.5806 13.0027 52.9655 13H118.394L132.288 24.133V105.069C132.286 107.467 131.337 109.765 129.651 111.46C127.964 113.156 125.678 114.109 123.293 114.112V114.112Z" fill="#E6E6E6"/>
<path d="M52.9654 15.6031C51.267 15.6051 49.6388 16.2841 48.4379 17.4913C47.237 18.6985 46.5615 20.3353 46.5596 22.0425V105.069C46.5615 106.777 47.237 108.413 48.4379 109.62C49.6388 110.828 51.267 111.507 52.9654 111.509H123.293C124.991 111.507 126.619 110.828 127.82 109.62C129.021 108.413 129.697 106.777 129.699 105.069V25.387L117.488 15.6031H52.9654Z" fill="white"/>
<path d="M109.614 39.7451H77.5951C77.3984 39.7451 77.2036 39.7062 77.0219 39.6305C76.8401 39.5548 76.675 39.4439 76.5359 39.3041C76.3968 39.1642 76.2865 38.9982 76.2112 38.8155C76.1359 38.6328 76.0972 38.437 76.0972 38.2393C76.0972 38.0415 76.1359 37.8457 76.2112 37.663C76.2865 37.4803 76.3968 37.3143 76.5359 37.1745C76.675 37.0347 76.8401 36.9238 77.0219 36.8481C77.2036 36.7724 77.3984 36.7335 77.5951 36.7335H109.614C109.811 36.7335 110.006 36.7724 110.188 36.8481C110.369 36.9238 110.534 37.0347 110.673 37.1745C110.813 37.3143 110.923 37.4803 110.998 37.663C111.073 37.8457 111.112 38.0415 111.112 38.2393C111.112 38.437 111.073 38.6328 110.998 38.8155C110.923 38.9982 110.813 39.1642 110.673 39.3041C110.534 39.4439 110.369 39.5548 110.188 39.6305C110.006 39.7062 109.811 39.7451 109.614 39.7451V39.7451Z" fill="#CCCCCC"/>
<path d="M115.793 44.8273H77.5951C77.1978 44.8273 76.8168 44.6686 76.5359 44.3862C76.255 44.1038 76.0972 43.7208 76.0972 43.3214C76.0972 42.9221 76.255 42.539 76.5359 42.2567C76.8168 41.9743 77.1978 41.8156 77.5951 41.8156H115.793C116.191 41.8156 116.572 41.9743 116.853 42.2567C117.134 42.539 117.291 42.9221 117.291 43.3214C117.291 43.7208 117.134 44.1038 116.853 44.3862C116.572 44.6686 116.191 44.8273 115.793 44.8273Z" fill="#CCCCCC"/>
<path d="M109.614 62.5207H77.5951C77.1978 62.5207 76.8168 62.362 76.5359 62.0796C76.255 61.7972 76.0972 61.4142 76.0972 61.0148C76.0972 60.6155 76.255 60.2325 76.5359 59.9501C76.8168 59.6677 77.1978 59.509 77.5951 59.509H109.614C110.012 59.509 110.393 59.6677 110.673 59.9501C110.954 60.2325 111.112 60.6155 111.112 61.0148C111.112 61.4142 110.954 61.7972 110.673 62.0796C110.393 62.362 110.012 62.5207 109.614 62.5207Z" fill="#CCCCCC"/>
<path d="M115.793 67.6028H77.5951C77.1978 67.6028 76.8168 67.4441 76.5359 67.1618C76.255 66.8794 76.0972 66.4963 76.0972 66.097C76.0972 65.6976 76.255 65.3146 76.5359 65.0322C76.8168 64.7498 77.1978 64.5911 77.5951 64.5911H115.793C116.191 64.5911 116.572 64.7498 116.853 65.0322C117.134 65.3146 117.291 65.6976 117.291 66.097C117.291 66.4963 117.134 66.8794 116.853 67.1618C116.572 67.4441 116.191 67.6028 115.793 67.6028Z" fill="#CCCCCC"/>
<path d="M109.614 85.2962H77.5951C77.1978 85.2962 76.8168 85.1375 76.5359 84.8552C76.255 84.5728 76.0972 84.1897 76.0972 83.7904C76.0972 83.391 76.255 83.008 76.5359 82.7256C76.8168 82.4432 77.1978 82.2846 77.5951 82.2846H109.614C110.012 82.2846 110.393 82.4432 110.673 82.7256C110.954 83.008 111.112 83.391 111.112 83.7904C111.112 84.1897 110.954 84.5728 110.673 84.8552C110.393 85.1375 110.012 85.2962 109.614 85.2962Z" fill="#CCCCCC"/>
<path d="M115.793 90.3783H77.5951C77.1978 90.3783 76.8168 90.2197 76.5359 89.9373C76.255 89.6549 76.0972 89.2719 76.0972 88.8725C76.0972 88.4732 76.255 88.0901 76.5359 87.8077C76.8168 87.5253 77.1978 87.3667 77.5951 87.3667H115.793C116.191 87.3667 116.572 87.5253 116.853 87.8077C117.134 88.0901 117.291 88.4732 117.291 88.8725C117.291 89.2719 117.134 89.6549 116.853 89.9373C116.572 90.2197 116.191 90.3783 115.793 90.3783V90.3783Z" fill="#CCCCCC"/>
<path d="M64.2615 46.1026C67.1856 46.1026 69.556 43.7197 69.556 40.7803C69.556 37.841 67.1856 35.4581 64.2615 35.4581C61.3375 35.4581 58.967 37.841 58.967 40.7803C58.967 43.7197 61.3375 46.1026 64.2615 46.1026Z" fill="#6C63FF"/>
<path d="M63.7369 42.8106C63.6178 42.8108 63.5018 42.7721 63.4065 42.7003L63.4006 42.6958L62.1563 41.739C62.0401 41.6492 61.964 41.5168 61.9449 41.3707C61.9258 41.2246 61.9651 41.0769 62.0543 40.96C62.1435 40.843 62.2752 40.7665 62.4205 40.7471C62.5658 40.7278 62.7128 40.7672 62.8292 40.8567L63.6351 41.478L65.5396 38.9804C65.5838 38.9225 65.6388 38.8739 65.7017 38.8374C65.7645 38.8009 65.8339 38.7772 65.9059 38.7676C65.9778 38.758 66.051 38.7628 66.1211 38.7817C66.1912 38.8005 66.2569 38.8331 66.3145 38.8775L66.3147 38.8776L66.3029 38.8941L66.315 38.8776C66.4312 38.9674 66.5073 39.0999 66.5264 39.2459C66.5456 39.392 66.5063 39.5397 66.4173 39.6568L64.1772 42.5932C64.1253 42.6609 64.0587 42.7156 63.9824 42.7532C63.9062 42.7908 63.8223 42.8102 63.7374 42.81L63.7369 42.8106Z" fill="white"/>
<path d="M64.8068 68.8782C67.7309 68.8782 70.1013 66.4953 70.1013 63.5559C70.1013 60.6165 67.7309 58.2337 64.8068 58.2337C61.8828 58.2337 59.5123 60.6165 59.5123 63.5559C59.5123 66.4953 61.8828 68.8782 64.8068 68.8782Z" fill="#CCCCCC"/>
<path d="M64.2615 91.6537C67.1856 91.6537 69.556 89.2708 69.556 86.3314C69.556 83.392 67.1856 81.0092 64.2615 81.0092C61.3375 81.0092 58.967 83.392 58.967 86.3314C58.967 89.2708 61.3375 91.6537 64.2615 91.6537Z" fill="#CCCCCC"/>
<path d="M132.018 24.4912H121.134C120.339 24.4912 119.577 24.174 119.015 23.6092C118.453 23.0444 118.138 22.2783 118.138 21.4796V13.3986C118.138 13.3632 118.148 13.3286 118.166 13.2986C118.185 13.2686 118.212 13.2446 118.243 13.2292C118.275 13.2137 118.31 13.2076 118.345 13.2115C118.38 13.2154 118.414 13.2291 118.441 13.2511L132.134 24.1555C132.165 24.1797 132.187 24.2129 132.198 24.2505C132.208 24.288 132.207 24.328 132.195 24.3649C132.182 24.4018 132.158 24.4338 132.126 24.4564C132.095 24.4791 132.057 24.4912 132.018 24.4912Z" fill="#E6E6E6"/>
<path d="M58.3396 129.668L16.7303 138.485C15.5279 138.738 14.2746 138.502 13.2453 137.827C12.2161 137.153 11.495 136.096 11.2402 134.887L4.10016 100.836C3.84811 99.6269 4.08333 98.367 4.75422 97.3324C5.4251 96.2977 6.47685 95.5728 7.67874 95.3168L49.288 86.5003C50.4905 86.2469 51.7438 86.4834 52.773 87.1578C53.8023 87.8322 54.5234 88.8894 54.7781 90.0976L61.9182 124.149C62.1703 125.358 61.935 126.618 61.2641 127.653C60.5933 128.687 59.5415 129.412 58.3396 129.668Z" fill="white"/>
<path d="M58.3396 129.668L16.7303 138.485C15.5279 138.738 14.2746 138.502 13.2453 137.827C12.2161 137.153 11.495 136.096 11.2402 134.887L4.10016 100.836C3.84811 99.6269 4.08333 98.367 4.75422 97.3324C5.4251 96.2977 6.47685 95.5728 7.67874 95.3168L49.288 86.5003C50.4905 86.2469 51.7438 86.4834 52.773 87.1578C53.8023 87.8322 54.5234 88.8894 54.7781 90.0976L61.9182 124.149C62.1703 125.358 61.935 126.618 61.2641 127.653C60.5933 128.687 59.5415 129.412 58.3396 129.668ZM7.79118 95.853C6.7307 96.079 5.80269 96.7186 5.21073 97.6315C4.61878 98.5444 4.41122 99.6561 4.6336 100.723L11.7737 134.774C11.9985 135.84 12.6347 136.773 13.5429 137.368C14.451 137.963 15.5569 138.172 16.6179 137.949L58.2272 129.132C59.2877 128.906 60.2157 128.266 60.8076 127.354C61.3996 126.441 61.6071 125.329 61.3848 124.262L54.2447 90.2107C54.0199 89.1446 53.3836 88.2118 52.4755 87.6167C51.5673 87.0216 50.4614 86.813 49.4005 87.0366L7.79118 95.853Z" fill="#3F3D56"/>
<path d="M46.7028 97.7281L25.7031 102.178C25.5193 102.221 25.3262 102.192 25.1628 102.097C24.9994 102.002 24.8779 101.849 24.8228 101.667C24.7977 101.573 24.7919 101.474 24.806 101.377C24.82 101.28 24.8535 101.187 24.9045 101.104C24.9555 101.02 25.0228 100.948 25.1025 100.892C25.1821 100.835 25.2723 100.796 25.3676 100.776L46.744 96.2461C47.5786 96.719 47.3148 97.5984 46.7025 97.7282L46.7028 97.7281Z" fill="#CCCCCC"/>
<path d="M47.4791 101.431L26.4795 105.88C26.2957 105.923 26.1026 105.894 25.9392 105.8C25.7758 105.705 25.6543 105.551 25.5992 105.37C25.574 105.275 25.5683 105.177 25.5823 105.08C25.5964 104.983 25.6299 104.89 25.6809 104.806C25.7318 104.723 25.7992 104.651 25.8788 104.594C25.9585 104.538 26.0487 104.498 26.144 104.478L47.5203 99.9489C48.355 100.422 48.0912 101.301 47.4789 101.431L47.4791 101.431Z" fill="#CCCCCC"/>
<path d="M22.3818 108.951L15.973 110.309C15.7637 110.353 15.5455 110.312 15.3663 110.194C15.1872 110.077 15.0617 109.893 15.0173 109.682L13.4232 102.08C13.3793 101.869 13.4202 101.65 13.537 101.47C13.6538 101.29 13.8369 101.164 14.0461 101.119L20.455 99.7612C20.6643 99.7172 20.8824 99.7583 21.0615 99.8757C21.2407 99.9931 21.3662 100.177 21.4106 100.387L23.0047 107.99C23.0486 108.2 23.0077 108.42 22.8909 108.6C22.7741 108.78 22.5911 108.906 22.3818 108.951V108.951Z" fill="#CCCCCC"/>
<path d="M49.0077 109.025L16.9584 115.816C16.7746 115.859 16.5815 115.83 16.4181 115.735C16.2547 115.641 16.1332 115.487 16.0781 115.306C16.0529 115.211 16.0472 115.112 16.0612 115.015C16.0752 114.919 16.1088 114.826 16.1598 114.742C16.2107 114.659 16.2781 114.587 16.3577 114.53C16.4373 114.474 16.5276 114.434 16.6229 114.414L49.0492 107.543C49.8838 108.016 49.62 108.896 49.0077 109.025V109.025Z" fill="#CCCCCC"/>
<path d="M49.7844 112.729L17.7351 119.52C17.5513 119.563 17.3582 119.534 17.1948 119.439C17.0314 119.345 16.9099 119.191 16.8548 119.01C16.8296 118.915 16.8239 118.816 16.8379 118.719C16.852 118.622 16.8855 118.529 16.9365 118.446C16.9875 118.363 17.0548 118.29 17.1344 118.234C17.2141 118.178 17.3043 118.138 17.3996 118.118L49.8259 111.247C50.6606 111.72 50.3968 112.599 49.7844 112.729Z" fill="#CCCCCC"/>
<path d="M50.5605 116.431L18.5112 123.222C18.3274 123.264 18.1343 123.236 17.9709 123.141C17.8075 123.046 17.686 122.892 17.6309 122.711C17.6058 122.616 17.6 122.518 17.6141 122.421C17.6281 122.324 17.6616 122.231 17.7126 122.147C17.7636 122.064 17.8309 121.992 17.9106 121.935C17.9902 121.879 18.0804 121.84 18.1757 121.819L50.602 114.949C51.4367 115.421 51.1729 116.301 50.5605 116.431V116.431Z" fill="#CCCCCC"/>
<path d="M51.3371 120.134L19.2878 126.925C19.1041 126.968 18.9109 126.939 18.7475 126.844C18.5841 126.75 18.4626 126.596 18.4076 126.415C18.3824 126.32 18.3766 126.221 18.3907 126.124C18.4047 126.027 18.4382 125.934 18.4892 125.851C18.5402 125.768 18.6076 125.695 18.6872 125.639C18.7668 125.583 18.857 125.543 18.9523 125.523L51.3786 118.652C52.2133 119.125 51.9495 120.005 51.3371 120.134V120.134Z" fill="#CCCCCC"/>
<path d="M52.1134 123.836L20.0641 130.627C19.8803 130.67 19.6872 130.641 19.5238 130.546C19.3604 130.451 19.2389 130.298 19.1838 130.116C19.1586 130.022 19.1529 129.923 19.1669 129.826C19.181 129.729 19.2145 129.636 19.2655 129.553C19.3164 129.469 19.3838 129.397 19.4634 129.341C19.543 129.284 19.6333 129.245 19.7286 129.225L52.1549 122.354C52.9895 122.827 52.7257 123.706 52.1134 123.836V123.836Z" fill="#CCCCCC"/>
<path d="M57.7707 106.884C57.6979 107.016 57.6356 107.155 57.5845 107.297L44.4639 110.57L42.1814 108.197L38.1676 111.191L41.8021 115.788C42.0957 116.159 42.5012 116.425 42.9578 116.545C43.4143 116.665 43.8973 116.633 44.3341 116.453L58.5712 110.605C59.0391 110.951 59.6008 111.146 60.1816 111.164C60.7624 111.181 61.3348 111.021 61.8225 110.703C62.3103 110.386 62.6903 109.927 62.9121 109.387C63.1339 108.847 63.187 108.252 63.0642 107.681C62.9414 107.11 62.6486 106.59 62.2248 106.191C61.8009 105.791 61.2661 105.531 60.6915 105.444C60.1168 105.358 59.5296 105.449 59.0078 105.706C58.4861 105.963 58.0546 106.374 57.7707 106.884L57.7707 106.884Z" fill="#A0616A"/>
<path d="M12.9855 136.009C13.3946 135.882 13.771 135.667 14.0881 135.378C14.4053 135.089 14.6556 134.733 14.8214 134.336C14.9871 133.94 15.0643 133.511 15.0475 133.081C15.0307 132.651 14.9204 132.23 14.7242 131.848L23.7534 106.62L17.4829 105.503L10.5792 130.652C9.96183 131.026 9.50236 131.615 9.28784 132.306C9.07333 132.998 9.11867 133.745 9.41528 134.405C9.7119 135.065 10.2392 135.593 10.8972 135.889C11.5552 136.185 12.2983 136.228 12.9855 136.009V136.009Z" fill="#A0616A"/>
<path d="M22.6068 111.098L16.4156 108.709C16.2395 108.641 16.08 108.536 15.948 108.401C15.816 108.265 15.7146 108.103 15.6507 107.924C15.5868 107.746 15.5619 107.555 15.5778 107.366C15.5936 107.177 15.6498 106.994 15.7424 106.829L18.9903 101.04C19.3414 100.136 20.0347 99.409 20.9182 99.0182C21.8018 98.6273 22.8034 98.6045 23.7036 98.9549C24.6038 99.3052 25.3291 100 25.7204 100.887C26.1118 101.774 26.1373 102.781 25.7913 103.687L24.3588 110.153C24.3177 110.338 24.2374 110.512 24.1234 110.663C24.0094 110.814 23.8643 110.939 23.698 111.029C23.5318 111.118 23.3482 111.171 23.1599 111.183C22.9716 111.195 22.7829 111.166 22.6068 111.098V111.098Z" fill="#6C63FF"/>
<path d="M36.581 183.374L39.9229 183.373L41.5126 170.416L36.5804 170.416L36.581 183.374Z" fill="#A0616A"/>
<path d="M35.7284 182.277L42.3097 182.277H42.31C42.8607 182.277 43.4061 182.386 43.915 182.597C44.4238 182.809 44.8862 183.12 45.2757 183.511C45.6651 183.903 45.9741 184.368 46.1849 184.879C46.3956 185.391 46.5041 185.939 46.5041 186.493V186.63L35.7286 186.63L35.7284 182.277Z" fill="#2F2E41"/>
<path d="M17.7725 183.374L21.1144 183.373L22.7042 170.416L17.772 170.416L17.7725 183.374Z" fill="#A0616A"/>
<path d="M16.9199 182.277L23.5012 182.277H23.5015C24.0523 182.277 24.5977 182.386 25.1065 182.597C25.6154 182.809 26.0777 183.12 26.4672 183.511C26.8567 183.903 27.1656 184.368 27.3764 184.879C27.5872 185.391 27.6956 185.939 27.6956 186.493V186.63L16.9201 186.63L16.9199 182.277Z" fill="#2F2E41"/>
<path d="M21.2759 178.158H17.0468C16.8808 178.158 16.7166 178.124 16.564 178.059C16.4114 177.993 16.2737 177.897 16.1591 177.776C16.0446 177.655 15.9556 177.513 15.8976 177.356C15.8396 177.2 15.8137 177.033 15.8216 176.867L17.8304 133.481L17.9569 133.478L38.379 132.943L42.3752 176.353C42.3906 176.516 42.3736 176.68 42.3253 176.836C42.2769 176.992 42.1982 177.137 42.0937 177.262C41.9892 177.387 41.8609 177.49 41.7164 177.565C41.5719 177.64 41.414 177.686 41.2519 177.699L36.5017 178.08C36.2033 178.104 35.9065 178.018 35.6672 177.837C35.4279 177.656 35.2625 177.394 35.2023 177.099L29.1262 146.196C29.1097 146.103 29.0601 146.018 28.9867 145.957C28.9132 145.897 28.8206 145.865 28.7258 145.868H28.7241C28.629 145.866 28.5363 145.898 28.4629 145.959C28.3895 146.02 28.3404 146.105 28.3244 146.2L22.4795 177.163C22.4241 177.444 22.274 177.696 22.0545 177.877C21.8351 178.058 21.56 178.158 21.2759 178.158V178.158Z" fill="#2F2E41"/>
<path d="M29.0227 94.7869C32.7202 94.7869 35.7177 91.7737 35.7177 88.0568C35.7177 84.3399 32.7202 81.3267 29.0227 81.3267C25.3251 81.3267 22.3276 84.3399 22.3276 88.0568C22.3276 91.7737 25.3251 94.7869 29.0227 94.7869Z" fill="#A0616A"/>
<path d="M26.7777 138.565C23.5867 138.565 20.3092 137.722 17.5921 135.229C17.4475 135.098 17.3359 134.933 17.2663 134.75C17.1967 134.567 17.1711 134.37 17.1915 134.175C17.4824 131.548 18.8931 117.985 18.0986 108.926C17.9436 107.234 18.1819 105.528 18.7948 103.944C19.4076 102.361 20.3783 100.942 21.6301 99.7997C22.86 98.6603 24.3365 97.8237 25.9431 97.356C27.5498 96.8884 29.2425 96.8025 30.8878 97.1051H30.8878C30.9712 97.12 31.0545 97.1358 31.138 97.1519C36.498 98.1947 40.2222 103.181 39.8008 108.751C39.1859 116.879 38.6347 127.872 39.5002 134.089C39.5361 134.343 39.4919 134.602 39.3739 134.83C39.2558 135.058 39.0698 135.243 38.842 135.359C36.8726 136.36 31.9384 138.565 26.7777 138.565Z" fill="#6C63FF"/>
<path d="M35.5139 111.582C35.3568 111.477 35.2241 111.339 35.1249 111.178C35.0257 111.017 34.9622 110.836 34.9389 110.647L34.1232 104.074C33.8643 103.139 33.9847 102.139 34.4581 101.293C34.9314 100.448 35.719 99.825 36.6483 99.5621C37.5775 99.2992 38.5725 99.4175 39.4152 99.8909C40.2579 100.364 40.8794 101.154 41.1435 102.088L43.8302 108.16C43.9068 108.334 43.9455 108.521 43.9434 108.711C43.9413 108.901 43.8986 109.088 43.8181 109.259C43.7377 109.431 43.6214 109.583 43.4772 109.705C43.333 109.828 43.1642 109.917 42.9825 109.968L36.5938 111.755C36.412 111.806 36.2214 111.817 36.0351 111.787C35.8487 111.757 35.6709 111.687 35.5139 111.582V111.582Z" fill="#6C63FF"/>
<path d="M26.6855 94.6919C26.0518 94.7037 25.422 94.5891 24.8326 94.3549C24.5733 94.2544 24.3041 94.1718 24.0452 94.0713C21.7592 93.1834 20.2532 90.736 20.1993 88.273C20.1454 85.81 21.4142 83.4194 23.2984 81.8439C25.1825 80.2685 27.623 79.4596 30.0667 79.2726C32.6989 79.0711 35.663 79.7421 37.1338 81.9458C37.5254 82.5323 37.7992 83.244 37.5672 83.9522C37.4977 84.166 37.3736 84.3576 37.2073 84.508C36.5504 85.0954 35.8955 84.6537 35.2259 84.6147C34.3055 84.561 33.4788 85.3099 33.1817 86.1873C32.8846 87.0646 33.0154 88.0305 33.2553 88.9253C33.438 89.4638 33.5533 90.0231 33.5983 90.5902C33.6176 90.8746 33.5644 91.1592 33.4437 91.4172C33.323 91.6751 33.1387 91.8977 32.9084 92.064C32.3332 92.4135 31.5779 92.2112 31.0025 91.8623C30.427 91.5134 29.9297 91.0283 29.3081 90.7715C28.6865 90.5148 27.8514 90.5717 27.4896 91.141C27.3746 91.3482 27.2967 91.5741 27.2596 91.8083C26.9353 93.2938 27.0098 93.2063 26.6855 94.6918V94.6919Z" fill="#2F2E41"/>
<path d="M56.2461 187H4.45459C4.3823 187 4.31297 186.971 4.26185 186.92C4.21073 186.868 4.18201 186.799 4.18201 186.726C4.18201 186.653 4.21073 186.584 4.26185 186.532C4.31297 186.481 4.3823 186.452 4.45459 186.452H56.2461C56.3184 186.452 56.3878 186.481 56.4389 186.532C56.49 186.584 56.5187 186.653 56.5187 186.726C56.5187 186.799 56.49 186.868 56.4389 186.92C56.3878 186.971 56.3184 187 56.2461 187Z" fill="#CCCCCC"/>
<path d="M188.817 130.451L151.73 151.363C150.658 151.966 149.391 152.117 148.209 151.783C147.026 151.448 146.023 150.656 145.421 149.58L128.485 119.228C127.885 118.15 127.735 116.877 128.068 115.689C128.401 114.5 129.189 113.492 130.26 112.887L167.347 91.9744C168.42 91.3714 169.686 91.2206 170.869 91.555C172.051 91.8894 173.054 92.6818 173.656 93.7582L190.592 124.11C191.192 125.187 191.342 126.46 191.009 127.649C190.676 128.838 189.888 129.846 188.817 130.451V130.451Z" fill="white"/>
<path d="M188.817 130.451L151.73 151.363C150.658 151.966 149.391 152.117 148.209 151.783C147.026 151.448 146.023 150.656 145.421 149.58L128.485 119.228C127.885 118.15 127.735 116.877 128.068 115.689C128.401 114.5 129.189 113.492 130.26 112.887L167.347 91.9744C168.42 91.3714 169.686 91.2206 170.869 91.555C172.051 91.8894 173.054 92.6818 173.656 93.7582L190.592 124.11C191.192 125.187 191.342 126.46 191.009 127.649C190.676 128.838 189.888 129.846 188.817 130.451V130.451ZM130.527 113.365C129.582 113.899 128.886 114.788 128.593 115.837C128.299 116.886 128.432 118.009 128.961 118.96L145.897 149.311C146.428 150.261 147.313 150.96 148.356 151.255C149.4 151.551 150.517 151.417 151.463 150.885L188.551 129.973C189.495 129.439 190.191 128.55 190.484 127.501C190.778 126.452 190.646 125.329 190.116 124.378L173.18 94.0263C172.649 93.0765 171.765 92.3774 170.721 92.0823C169.677 91.7872 168.56 91.9203 167.614 92.4523L130.527 113.365Z" fill="#3F3D56"/>
<path d="M168.218 103.466L149.5 114.02C149.337 114.116 149.145 114.146 148.96 114.105C148.776 114.064 148.615 113.954 148.508 113.797C148.456 113.714 148.421 113.622 148.406 113.525C148.39 113.429 148.395 113.33 148.419 113.235C148.443 113.14 148.485 113.051 148.545 112.973C148.604 112.895 148.678 112.83 148.763 112.783L167.817 102.039C168.754 102.24 168.763 103.158 168.217 103.466L168.218 103.466Z" fill="#CCCCCC"/>
<path d="M170.059 106.766L151.342 117.32C151.179 117.416 150.986 117.447 150.802 117.405C150.618 117.364 150.457 117.254 150.35 117.098C150.298 117.015 150.263 116.922 150.248 116.826C150.232 116.729 150.237 116.63 150.26 116.535C150.284 116.44 150.327 116.351 150.386 116.273C150.446 116.196 150.52 116.131 150.605 116.083L169.658 105.34C170.595 105.54 170.605 106.459 170.059 106.766L170.059 106.766Z" fill="#CCCCCC"/>
<path d="M148.344 121.481L142.632 124.702C142.445 124.807 142.225 124.833 142.019 124.775C141.813 124.717 141.638 124.579 141.534 124.391L137.752 117.615C137.648 117.427 137.622 117.206 137.68 116.999C137.738 116.792 137.875 116.617 138.061 116.511L143.774 113.29C143.96 113.185 144.181 113.159 144.387 113.217C144.592 113.275 144.767 113.413 144.872 113.601L148.653 120.377C148.757 120.565 148.784 120.786 148.726 120.993C148.668 121.2 148.531 121.376 148.344 121.481L148.344 121.481Z" fill="#CCCCCC"/>
<path d="M173.776 113.554L145.209 129.662C145.047 129.758 144.854 129.789 144.67 129.747C144.485 129.706 144.324 129.596 144.217 129.439C144.165 129.356 144.13 129.264 144.115 129.167C144.1 129.071 144.104 128.972 144.128 128.877C144.152 128.782 144.194 128.693 144.254 128.615C144.313 128.537 144.387 128.472 144.472 128.425L173.375 112.128C174.312 112.328 174.321 113.247 173.776 113.554Z" fill="#CCCCCC"/>
<path d="M175.618 116.856L147.051 132.963C146.889 133.059 146.696 133.09 146.512 133.049C146.328 133.007 146.166 132.897 146.06 132.741C146.007 132.658 145.973 132.565 145.957 132.469C145.942 132.372 145.946 132.273 145.97 132.178C145.994 132.083 146.037 131.994 146.096 131.916C146.155 131.839 146.229 131.774 146.314 131.726L175.217 115.429C176.154 115.63 176.164 116.548 175.618 116.856V116.856Z" fill="#CCCCCC"/>
<path d="M177.459 120.155L148.892 136.263C148.73 136.359 148.537 136.389 148.353 136.348C148.168 136.306 148.007 136.196 147.9 136.04C147.848 135.957 147.813 135.865 147.798 135.768C147.783 135.671 147.787 135.572 147.811 135.477C147.835 135.382 147.877 135.293 147.937 135.216C147.996 135.138 148.07 135.073 148.155 135.025L177.058 118.728C177.995 118.929 178.004 119.847 177.459 120.155V120.155Z" fill="#CCCCCC"/>
<path d="M179.301 123.456L150.734 139.564C150.572 139.66 150.379 139.69 150.195 139.649C150.011 139.607 149.849 139.497 149.743 139.341C149.69 139.258 149.656 139.166 149.64 139.069C149.625 138.972 149.629 138.873 149.653 138.778C149.677 138.684 149.72 138.594 149.779 138.517C149.838 138.439 149.912 138.374 149.997 138.326L178.9 122.029C179.837 122.23 179.847 123.148 179.301 123.456H179.301Z" fill="#CCCCCC"/>
<path d="M181.142 126.756L152.575 142.863C152.413 142.959 152.22 142.99 152.036 142.948C151.852 142.907 151.69 142.797 151.584 142.64C151.531 142.558 151.497 142.465 151.481 142.368C151.466 142.272 151.47 142.173 151.494 142.078C151.518 141.983 151.561 141.894 151.62 141.816C151.679 141.738 151.753 141.674 151.838 141.626L180.741 125.329C181.678 125.529 181.688 126.448 181.142 126.756V126.756Z" fill="#CCCCCC"/>
<path d="M176.158 139.12C176.314 138.775 176.392 138.4 176.388 138.021C176.384 137.643 176.297 137.27 176.134 136.928C175.97 136.587 175.735 136.286 175.443 136.046C175.152 135.806 174.811 135.633 174.446 135.54L173.669 126.367L169.933 129.33L171.244 137.586C171.128 138.213 171.246 138.861 171.574 139.407C171.902 139.953 172.417 140.358 173.023 140.548C173.629 140.737 174.283 140.696 174.86 140.433C175.438 140.169 175.9 139.702 176.158 139.12V139.12Z" fill="#FFB8B8"/>
<path d="M173.74 134.579L170.637 134.951C170.479 134.97 170.32 134.956 170.168 134.91C170.016 134.864 169.875 134.787 169.754 134.683C169.633 134.58 169.534 134.453 169.465 134.309C169.395 134.166 169.355 134.01 169.349 133.85L168.896 123.327L163.014 107.175C162.779 106.674 162.671 106.122 162.702 105.568C162.732 105.015 162.9 104.478 163.189 104.006C163.333 103.778 163.498 103.564 163.682 103.366C164.044 102.975 164.495 102.676 164.996 102.498C165.497 102.319 166.034 102.264 166.561 102.339C167.104 102.411 167.621 102.613 168.071 102.927C168.521 103.241 168.889 103.658 169.146 104.144L172.982 112.224C174.586 115.604 175.344 119.327 175.188 123.068L174.756 133.477C174.744 133.75 174.638 134.009 174.455 134.21C174.272 134.412 174.024 134.542 173.755 134.577L173.74 134.579Z" fill="#6C63FF"/>
<path d="M184.76 180.058L181.883 181.327L175.643 170.776L179.889 168.903L184.76 180.058Z" fill="#FFB8B8"/>
<path d="M186.717 182.537L177.441 186.63L177.39 186.512C177.182 186.036 177.069 185.522 177.058 185.002C177.047 184.482 177.138 183.964 177.326 183.479C177.515 182.994 177.796 182.551 178.154 182.175C178.513 181.8 178.941 181.499 179.415 181.29L179.415 181.289L185.081 178.79L186.717 182.537Z" fill="#2F2E41"/>
<path d="M146.137 183.569H142.995L141.501 171.387L146.138 171.387L146.137 183.569Z" fill="#FFB8B8"/>
<path d="M146.938 186.63L136.808 186.63V186.501C136.808 185.98 136.91 185.465 137.108 184.984C137.306 184.503 137.596 184.066 137.963 183.698C138.329 183.33 138.763 183.038 139.242 182.839C139.72 182.64 140.233 182.537 140.751 182.537H140.751L146.938 182.537L146.938 186.63Z" fill="#2F2E41"/>
<path d="M176.725 179.404L159.223 140.142C159.192 140.069 159.138 140.007 159.07 139.965C159.002 139.923 158.923 139.904 158.843 139.91C158.764 139.915 158.688 139.946 158.626 139.997C158.565 140.048 158.52 140.116 158.499 140.194L147.836 178.116C147.765 178.381 147.603 178.613 147.378 178.769C147.153 178.924 146.88 178.994 146.608 178.966L140.784 178.38C140.484 178.348 140.208 178.2 140.015 177.968C139.821 177.735 139.726 177.435 139.749 177.133C141.601 153.972 144.521 132.113 153.27 117.803L153.316 117.727L166.548 120.335L184.214 176.885C184.302 177.176 184.272 177.49 184.132 177.76C183.992 178.029 183.752 178.233 183.464 178.327L178.137 180.049C177.864 180.138 177.568 180.121 177.307 180.002C177.046 179.882 176.838 179.669 176.725 179.404V179.404Z" fill="#2F2E41"/>
<path d="M159.712 97.6911C163.188 97.6911 166.006 94.8583 166.006 91.3639C166.006 87.8695 163.188 85.0367 159.712 85.0367C156.236 85.0367 153.418 87.8695 153.418 91.3639C153.418 94.8583 156.236 97.6911 159.712 97.6911Z" fill="#FFB8B8"/>
<path d="M152.456 118.898L152.376 118.882L152.357 118.802C151.509 115.203 151.489 111.274 152.297 107.127C152.707 105.008 153.848 103.101 155.519 101.744C157.19 100.387 159.283 99.6661 161.431 99.7084V99.7084C163.761 99.7559 165.985 100.697 167.648 102.339C169.311 103.98 170.287 106.199 170.377 108.54C170.647 115.673 167.747 121.857 167.717 121.919L167.674 122.01L152.456 118.898Z" fill="#6C63FF"/>
<path d="M135.583 130.936C135.956 130.88 136.312 130.743 136.626 130.535C136.941 130.326 137.206 130.051 137.403 129.728C137.6 129.405 137.724 129.043 137.767 128.666C137.81 128.29 137.77 127.909 137.65 127.55L144.9 121.926L140.398 120.373L134.204 125.952C133.617 126.194 133.139 126.644 132.861 127.217C132.582 127.79 132.522 128.445 132.692 129.06C132.862 129.674 133.25 130.204 133.783 130.55C134.316 130.896 134.956 131.033 135.583 130.936V130.936Z" fill="#FFB8B8"/>
<path d="M139.543 126.694C139.307 126.834 139.029 126.885 138.759 126.837C138.489 126.789 138.245 126.646 138.071 126.433L136.079 124.012C135.978 123.889 135.903 123.747 135.859 123.593C135.816 123.44 135.804 123.279 135.825 123.121C135.846 122.963 135.899 122.81 135.981 122.674C136.063 122.537 136.172 122.419 136.302 122.327L144.857 116.246L155.178 102.527C155.47 102.056 155.873 101.666 156.353 101.392C156.832 101.118 157.372 100.969 157.924 100.958C158.192 100.956 158.461 100.98 158.725 101.028V101.028C159.249 101.122 159.742 101.341 160.163 101.668C160.584 101.995 160.921 102.419 161.144 102.905C161.377 103.403 161.488 103.949 161.469 104.499C161.45 105.049 161.301 105.587 161.034 106.067L153.391 118.509L153.374 118.536L139.543 126.694Z" fill="#6C63FF"/>
<path d="M160.837 90.9713C160.373 90.2042 159.35 89.9875 158.461 90.075C157.572 90.1625 156.708 90.4766 155.815 90.4696C153.335 90.4503 151.421 87.4122 152.464 85.1505C153.319 83.2956 155.454 82.4811 157.386 81.8419C161.436 80.5015 166.088 79.2138 169.763 81.387C170.934 82.1 171.895 83.1144 172.546 84.3254C173.197 85.5365 173.514 86.9002 173.465 88.2757C173.382 89.9861 172.731 91.7429 173.282 93.3631C173.918 95.2323 175.933 96.2352 177.838 96.7204C181.178 97.5708 184.698 97.4338 188.059 98.1965C191.419 98.9593 194.862 100.985 195.768 104.326C196.363 106.52 195.742 108.883 194.714 110.909C193.665 112.976 192.207 114.806 190.43 116.287C188.653 117.769 186.594 118.87 184.379 119.523C182.163 120.176 179.839 120.368 177.547 120.086C175.256 119.805 173.046 119.056 171.052 117.886C166.99 115.501 164.057 111.471 162.309 107.081C161.317 104.52 160.619 101.854 160.228 99.1349C159.837 96.5891 160.169 94.0163 160.878 91.5409C160.912 91.4484 160.925 91.3499 160.918 91.2517C160.911 91.1536 160.884 91.058 160.837 90.9713Z" fill="#2F2E41"/>
<path d="M183.544 187H131.753C131.68 187 131.611 186.971 131.56 186.92C131.509 186.868 131.48 186.799 131.48 186.726C131.48 186.653 131.509 186.584 131.56 186.532C131.611 186.481 131.68 186.452 131.753 186.452H183.544C183.616 186.452 183.686 186.481 183.737 186.532C183.788 186.584 183.817 186.653 183.817 186.726C183.817 186.799 183.788 186.868 183.737 186.92C183.686 186.971 183.616 187 183.544 187Z" fill="#CCCCCC"/>
</svg>
