<svg width="200" height="200" viewBox="0 0 200 200" fill="none" xmlns="http://www.w3.org/2000/svg">
<g clip-path="url(#clip0_1_97)">
<path d="M171.916 164.34C166.182 169.627 159.197 174.983 152.329 177.508C150.349 178.257 148.306 178.736 146.238 178.934C144.305 179.123 142.359 178.94 140.473 178.393C135.516 176.9 130.918 174.286 126.47 171.232C125.017 170.232 123.58 169.187 122.152 168.119C119.821 166.375 117.512 164.569 115.198 162.807C114.851 162.54 114.507 162.278 114.16 162.018H114.158C113.6 161.594 113.039 161.175 112.478 160.762C112.379 160.688 112.281 160.617 112.18 160.544C111.119 159.765 110.04 159.005 108.943 158.262C108.809 158.173 108.674 158.082 108.54 157.993C106.417 156.567 104.236 155.275 102.004 154.12C100.538 153.372 99.053 152.698 97.5534 152.124H97.5513C96.9779 151.905 96.4024 151.699 95.8248 151.511C94.0929 150.935 92.328 150.517 90.5448 150.26C88.0874 149.899 85.602 149.923 83.1497 150.331C82.9838 150.359 82.8199 150.387 82.654 150.42C76.0171 151.707 69.9599 156.045 63.2936 157.067C63.0773 157.1 62.8631 157.131 62.6467 157.154C62.5543 157.164 62.4619 157.177 62.3695 157.184C60.4323 157.385 58.4827 157.327 56.5559 157.011C51.1729 156.152 45.9306 153.484 41.2113 150.122C30.1785 142.262 21.2313 130.18 15.7916 116.188C14.8575 113.791 14.0281 111.335 13.307 108.832C11.2907 101.89 10.1803 94.61 10.0158 87.2542C9.50545 61.7326 21.4833 36.1272 40.2892 24.5845C59.0973 13.0418 83.8386 16.8588 99.0068 34.5912C108.208 45.3481 113.532 59.9246 120.457 72.9473C127.382 85.9674 137.223 98.4053 149.918 100.302C156.384 101.269 163.151 99.3996 169.349 101.831C172.781 103.178 175.709 105.757 178.068 109.043C179.653 111.272 180.98 113.753 182.012 116.417C182.768 118.343 183.382 120.346 183.846 122.404C183.932 122.782 184.011 123.161 184.089 123.54C187.177 138.808 182.243 154.814 171.916 164.34Z" fill="#F2F2F2"/>
<path d="M68.6324 136.7H48.8898C45.9319 136.7 43.5341 139.604 43.5341 143.185V143.185C43.5341 146.766 45.9319 149.67 48.8898 149.67H68.6324C71.5903 149.67 73.9881 146.766 73.9881 143.185V143.185C73.9881 139.604 71.5903 136.7 68.6324 136.7Z" fill="#3F3D56"/>
<path d="M62.6466 146.364V157.154C60.6186 157.391 58.5747 157.343 56.5558 157.011V146.364H62.6466Z" fill="#3F3D56"/>
<path d="M83.1495 150.331C82.9836 150.359 82.8198 150.387 82.6539 150.42C76.017 151.707 69.9598 156.045 63.2935 157.067C63.0772 157.1 62.8629 157.131 62.6466 157.154C62.5542 157.164 62.4618 157.177 62.3694 157.184C60.7416 155.254 59.1139 153.199 57.5849 151.071C56.7553 149.919 55.953 148.744 55.199 147.554C53.2415 144.482 51.5823 141.323 50.486 138.221C50.5973 136.733 49.8328 133.293 49.4673 130.658L49.4652 130.656C49.3098 129.549 49.2258 128.588 49.3035 127.97C49.7488 124.405 52.1536 124.814 52.8929 121.32C53.5598 120.65 54.2699 120.045 55.0163 119.512C55.1402 119.423 55.2662 119.334 55.3964 119.245L63.4195 112.532L66.4859 116.173L71.1527 121.717L76.2102 127.721L71.9172 132.972C71.9172 132.972 75.5045 137.979 79.6988 144.655C80.8245 146.448 81.9944 148.362 83.1495 150.331Z" fill="#2F2E41"/>
<path d="M152.329 146.364V177.508C150.349 178.257 148.306 178.736 146.238 178.934V146.364H152.329Z" fill="#3F3D56"/>
<path d="M160.205 143.821H140.462C137.504 143.821 135.106 146.724 135.106 150.305V150.305C135.106 153.887 137.504 156.79 140.462 156.79H160.205C163.163 156.79 165.56 153.887 165.56 150.305V150.305C165.56 146.724 163.163 143.821 160.205 143.821Z" fill="#3F3D56"/>
<path d="M112.18 160.543C111.119 159.765 110.04 159.005 108.943 158.262C108.809 158.173 108.674 158.082 108.54 157.993L109.262 157.619L111.211 156.604L111.23 156.594L111.251 156.681L112.18 160.543Z" fill="#FFB6B6"/>
<path d="M115.198 162.807C114.851 162.54 114.507 162.278 114.16 162.018H114.158C113.599 161.594 113.039 161.175 112.478 160.762C112.379 160.688 112.28 160.617 112.18 160.543C111.119 159.765 110.04 159.005 108.943 158.262C108.809 158.173 108.674 158.082 108.54 157.993C106.417 156.567 104.236 155.275 102.004 154.12C100.538 153.372 99.0529 152.698 97.5533 152.124H97.5512L96.3729 149.736L91.0697 138.981L89.9041 136.619C89.9041 136.619 85.9282 138.043 80.3016 139.409C78.2538 139.907 75.9897 140.395 73.6143 140.807C71.0751 141.245 68.4119 141.593 65.7656 141.761C64.5033 141.842 63.2452 141.883 62.0061 141.87C58.8031 141.845 55.7262 141.481 53.0316 140.616C52.1326 139.594 49.4233 138.203 47.4826 136.929H47.4805C46.6656 136.395 45.9893 135.884 45.6344 135.429C43.5887 132.809 45.3361 130.767 43.5173 127.909C43.4928 126.86 43.537 125.811 43.6496 124.771C43.6685 124.598 43.6874 124.423 43.7105 124.245L44.2839 112.455L48.5433 111.774L55.0247 110.736L62.046 109.612L62.8189 116.941C62.8189 116.941 68.2859 116.605 75.2126 116.717C86.3378 116.9 101.225 118.243 103.241 124.006C103.43 124.547 103.619 125.094 103.808 125.641C104.257 126.948 104.703 128.262 105.144 129.582C106.742 134.363 108.267 139.19 109.659 143.752C110.525 146.59 111.34 149.326 112.089 151.887C112.692 153.947 113.251 155.895 113.761 157.688C114.227 159.325 114.65 160.833 115.026 162.186C115.084 162.397 115.141 162.606 115.198 162.807Z" fill="#2F2E41"/>
<path d="M76.0158 91.377L62.5624 77.5427L71.3154 66.8171L77.4219 78.9277L100.057 84.3613C100.738 83.7411 101.553 83.3741 102.403 83.305C103.253 83.2359 104.101 83.4677 104.844 83.9721C105.587 84.4766 106.193 85.2319 106.587 86.146C106.982 87.0601 107.148 88.0934 107.066 89.12C106.984 90.1466 106.657 91.1221 106.125 91.9276C105.593 92.7331 104.879 93.3337 104.07 93.6563C103.261 93.9788 102.392 94.0094 101.568 93.7442C100.745 93.479 100.004 92.9295 99.4338 92.1628L76.0158 91.377Z" fill="#A0616A"/>
<path d="M50.6726 59.3611C49.1178 65.4853 63.9253 80.0917 63.9253 80.0917C64.0898 78.6214 72.4852 91.2996 73.0564 90.1514C74.6797 86.8881 76.4659 78.8218 78.34 77.7909C79.4117 77.2013 73.2634 69.0065 73.2634 69.0065C73.2634 69.0065 70.1272 63.9825 65.9863 57.6153C64.8431 55.7889 63.337 54.3423 61.6079 53.4103C59.8789 52.4783 57.9832 52.0911 56.0973 52.2848C56.0973 52.2848 52.2274 53.2369 50.6726 59.3611Z" fill="#3F3D56"/>
<path d="M57.2196 45.8034C62.245 45.8034 66.3189 40.8708 66.3189 34.7861C66.3189 28.7014 62.245 23.7688 57.2196 23.7688C52.1942 23.7688 48.1204 28.7014 48.1204 34.7861C48.1204 40.8708 52.1942 45.8034 57.2196 45.8034Z" fill="#A0616A"/>
<path d="M61.7692 53.0851C63.7295 54.4962 64.9022 57.0888 65.5754 59.7271C66.8216 64.6115 67.5718 69.6616 67.8093 74.7656L68.5203 90.0464L77.326 122.583C69.6944 130.402 41.0082 124.36 41.0082 124.36C41.0082 124.36 40.1276 124.005 41.0082 122.939C41.8888 121.873 42.746 122.817 41.8655 121.751C40.9849 120.685 41.5919 121.873 41.8854 120.806C42.179 119.74 41.8854 120.451 41.5919 120.096C41.2984 119.74 43.8642 116.542 43.8642 116.542L41.516 97.8651L38.5808 60.193C42.1031 54.8621 49.1869 51.7195 49.1869 51.7195L51.0173 47.7304L60.1691 48.6168L61.7692 53.0851Z" fill="#3F3D56"/>
<path d="M64.7205 28.9328C65.4277 29.5715 65.9516 30.4626 66.2186 31.4808C66.3211 29.8169 66.3276 28.1464 66.2381 26.4814C66.1308 25.3114 65.4505 25.0482 64.6628 24.7433C63.9514 24.4678 63.1468 24.1565 62.9304 23.0207C60.0701 19.6517 55.0909 19.8216 51.6833 20.9967C49.8082 21.6434 48.7293 22.4743 48.6328 22.961L48.6128 23.0612L48.5366 23.1073C47.0913 23.9823 46.8099 26.7454 46.8285 28.9092C46.8637 32.986 48.0263 37.6162 48.6812 37.9923C48.7159 38.0122 48.7247 38.0044 48.7397 37.9893C49.7258 37.0351 50.929 38.0618 51.4577 38.62C51.7696 36.0862 52.7737 33.752 54.3097 31.9902C55.8457 30.2285 57.825 29.1408 59.9315 28.9008C60.6194 28.8203 61.3019 28.6817 61.9739 28.4861C62.3147 28.3794 62.6651 28.3237 63.0172 28.3204C63.6233 28.3092 64.2177 28.5229 64.7205 28.9328V28.9328Z" fill="#2F2E41"/>
<path d="M53.2551 107.976L50.4716 106.25C50.3225 106.121 50.2165 105.932 50.1731 105.716C50.1298 105.501 50.1518 105.274 50.2353 105.077C50.3188 104.879 50.4581 104.725 50.6278 104.642C50.7975 104.558 50.9863 104.552 51.1597 104.623L53.9432 106.349C54.0923 106.478 54.1982 106.667 54.2416 106.882C54.285 107.098 54.2629 107.325 54.1795 107.522C54.096 107.72 53.9567 107.874 53.7869 107.957C53.6172 108.041 53.4284 108.047 53.255 107.976L53.2551 107.976Z" fill="#6C63FF"/>
<path d="M43.8872 103.352L39.3083 82.712L51.5443 79.9075L50.8863 94.0743L66.9633 114.118C67.8144 114.076 68.6573 114.334 69.3891 114.862C70.1209 115.39 70.7101 116.164 71.0848 117.091C71.4595 118.017 71.6035 119.055 71.4992 120.079C71.395 121.102 71.047 122.067 70.4977 122.855C69.9484 123.644 69.2216 124.222 68.4058 124.518C67.59 124.815 66.7205 124.818 65.9033 124.527C65.0861 124.236 64.3565 123.663 63.8036 122.878C63.2506 122.094 62.8981 121.132 62.7891 120.109L43.8872 103.352Z" fill="#A0616A"/>
<path d="M38.0562 59.5707C33.9029 63.5408 39.2337 85.7472 39.2337 85.7472C40.0591 84.6505 41.0182 100.859 42.027 100.307C44.8941 98.7385 50.1493 93.3295 52.1753 93.7704C53.3339 94.0226 52.12 83.0493 52.12 83.0493C52.12 83.0493 51.8968 76.7575 51.4771 68.6691C51.3935 66.3798 50.8329 64.1532 49.8474 62.1968C48.8619 60.2403 47.4837 58.6176 45.8409 57.4796C45.8409 57.4796 42.2096 55.6008 38.0562 59.5707Z" fill="#3F3D56"/>
<path d="M182.012 116.417L15.7914 116.188C14.8573 113.791 14.028 111.335 13.3068 108.831L178.068 109.043C179.653 111.272 180.98 113.753 182.012 116.417V116.417Z" fill="#3F3D56"/>
<path d="M129.07 169.775C128.211 170.278 127.344 170.764 126.47 171.232C125.017 170.232 123.58 169.187 122.152 168.119L127.449 165.301L129.07 169.775Z" fill="#FFB6B6"/>
<path d="M167.69 134.732C166.829 136.131 165.941 137.501 165.025 138.844C164.18 140.082 163.314 141.297 162.425 142.488C162.057 142.981 161.685 143.472 161.305 143.958C160.606 144.866 159.891 145.758 159.161 146.636C157.846 147.137 155.183 148.019 152.329 148.843C150.251 149.441 148.073 150.008 146.238 150.369C145.21 150.592 144.171 150.727 143.127 150.771C141.888 150.783 140.63 150.743 139.368 150.661C137.944 150.57 136.518 150.427 135.108 150.244C131.443 149.779 127.894 149.054 124.832 148.309C123.71 148.04 122.656 147.765 121.686 147.498C119.848 146.997 118.31 146.529 117.197 146.173C115.943 145.776 115.229 145.519 115.229 145.519L112.089 151.887L110.46 155.19L109.262 157.619L108.943 158.262C108.809 158.173 108.674 158.082 108.54 157.993C106.417 156.567 104.236 155.275 102.004 154.12C100.538 153.372 99.0529 152.698 97.5533 152.124H97.5512C96.9778 151.905 96.4023 151.699 95.8248 151.511C96.0054 150.923 96.1881 150.332 96.373 149.736C96.7174 148.624 97.0688 147.503 97.4273 146.371C98.2023 143.92 99.0046 141.433 99.83 138.958C100.506 136.927 101.195 134.902 101.892 132.906C102.214 131.986 102.867 131.177 103.781 130.467C104.217 130.134 104.673 129.838 105.144 129.582C107.759 128.141 111.611 127.202 115.855 126.599C116.206 126.551 116.559 126.503 116.914 126.457C120.427 126.009 124.155 125.778 127.642 125.671C129.387 125.618 131.072 125.598 132.639 125.595C133.145 125.595 133.637 125.597 134.115 125.6H134.117C135.409 125.608 136.598 125.631 137.643 125.656C137.847 125.661 138.045 125.669 138.238 125.674H138.24C138.37 125.676 138.498 125.681 138.624 125.684C140.912 125.755 142.314 125.842 142.314 125.842L142.858 120.674L142.97 119.632L143.075 118.64V118.637L143.087 118.513L143.174 118.51L144.686 118.475L157.397 118.174L164.34 118.009L163.24 123.721L161.423 133.145C161.608 134.635 167.753 133.468 167.69 134.732Z" fill="#2F2E41"/>
<path d="M130.637 168.834C130.118 169.154 129.595 169.469 129.07 169.775C128.211 170.278 127.344 170.764 126.47 171.232C125.017 170.232 123.58 169.187 122.152 168.119C119.82 166.375 117.512 164.569 115.198 162.807C114.851 162.54 114.507 162.278 114.16 162.018H114.158C113.205 160.304 112.232 158.519 111.251 156.681C111.237 156.655 111.224 156.63 111.211 156.604C110.959 156.136 110.709 155.665 110.459 155.19C108.891 152.215 107.313 149.113 105.782 145.944L109.659 143.752L116.867 139.678L118.111 138.976L121.685 147.498L124.874 155.099L125.584 156.79L130.637 168.834Z" fill="#2F2E41"/>
<path d="M131.723 127.921L150.101 106.462L155.194 88.9997L147.681 85.044C143.822 89.52 139.65 103.461 139.65 103.461L127.004 122.942C126.906 122.983 126.807 123.026 126.71 123.078C126.141 123.382 125.645 123.859 125.272 124.463C124.9 125.066 124.662 125.776 124.581 126.524C124.501 127.271 124.582 128.031 124.815 128.73C125.048 129.428 125.427 130.043 125.913 130.513C126.4 130.983 126.978 131.293 127.593 131.413C128.207 131.534 128.837 131.46 129.421 131.199C130.006 130.939 130.524 130.5 130.928 129.926C131.331 129.352 131.605 128.661 131.723 127.921V127.921Z" fill="#FFB8B8"/>
<path d="M145.567 86.9937L155.097 90.657L155.133 90.6497C158.68 89.9303 161.624 82.9158 163.468 77.1581C164.075 75.259 164.064 73.1517 163.436 71.2622C162.809 69.3728 161.613 67.8422 160.089 66.9799V66.9799C158.962 66.3529 157.712 66.1203 156.481 66.3084C155.25 66.4964 154.087 67.0976 153.124 68.044L148.23 72.8857L145.567 86.9937Z" fill="#6C63FF"/>
<path d="M167.652 134.989L167.707 134.9C170.681 130.125 166.614 118.301 165.999 116.586L168.764 115.594L168.282 109.221L168.05 106.379L170.2 103.907L170.207 103.844L171.685 91.1053L173.62 82.6743C174.349 79.487 174.364 76.1222 173.664 72.9253C172.964 69.7284 171.575 66.8146 169.637 64.483L165.683 59.7294L160.946 50.751L153.002 50.5027L150.146 56.6463C147.49 57.3027 145.108 59.0665 143.415 61.6306C141.723 64.1947 140.827 67.3965 140.883 70.6782L141.152 87.0337L138.302 107.298L138.222 110.979L135.425 114.553L135.942 118.167L133.849 119.176L132.825 124.311C132.434 124.903 129.852 128.855 129.829 129.957C129.825 130.122 129.923 130.285 130.135 130.469C131.807 131.917 141.148 135.055 145.353 133.168C149.831 131.161 167.384 134.931 167.561 134.97L167.652 134.989Z" fill="#6C63FF"/>
<path d="M156.28 47.7503C162.092 47.7503 166.803 42.0458 166.803 35.009C166.803 27.9721 162.092 22.2676 156.28 22.2676C150.468 22.2676 145.757 27.9721 145.757 35.009C145.757 42.0458 150.468 47.7503 156.28 47.7503Z" fill="#FFB8B8"/>
<path d="M154.996 47.9208C156.626 47.9516 158.255 47.8138 159.865 47.5088C161.461 47.1159 165.032 43.9478 166.027 42.0414C166.766 40.625 167.239 38.4132 167.506 36.8072C167.865 34.682 167.851 32.4891 167.466 30.3707C167.08 28.2523 166.332 26.2555 165.268 24.5097C164.86 23.7795 164.296 23.1965 163.636 22.8226C163.577 22.7949 163.517 22.7704 163.456 22.7494C162.495 22.4431 161.631 21.7958 160.975 20.8907C160.848 20.7077 160.711 20.5359 160.563 20.3768C159.822 19.6199 158.944 19.0859 158 18.8187C156.477 18.325 154.272 18.815 151.447 20.2766C150.028 21.011 148.476 20.7452 147.282 20.4316C147.215 20.416 147.145 20.4218 147.081 20.4486C147.016 20.4753 146.959 20.5221 146.914 20.5842C146.406 21.1617 145.736 21.4849 145.039 21.4889C144.612 21.5116 144.165 22.2271 143.623 23.1601C143.501 23.3719 143.357 23.6191 143.254 23.7694L143.24 23.4806L142.999 23.8028C142.619 24.3093 142.352 24.9237 142.221 25.589C142.091 26.2543 142.101 26.9488 142.252 27.6077C142.403 28.2667 142.689 28.8688 143.084 29.3578C143.479 29.8469 143.969 30.207 144.51 30.4047C144.939 30.543 145.379 30.6279 145.822 30.658C146.091 30.6873 146.369 30.7176 146.635 30.7735C147.49 30.9854 148.285 31.4621 148.942 32.157C149.599 32.8518 150.096 33.7411 150.385 34.7381C150.453 34.9685 150.564 35.1769 150.709 35.3471C150.855 35.5173 151.03 35.6449 151.223 35.7198C151.415 35.7948 151.62 35.8152 151.82 35.7795C152.02 35.7437 152.21 35.6528 152.377 35.5138C152.654 35.2522 152.98 35.0758 153.325 34.9995C153.671 34.9232 154.027 34.9494 154.363 35.0758C154.653 35.2711 154.879 35.5813 155.003 35.9544C155.153 36.37 155.402 36.7219 155.719 36.9654C156.8 37.6406 156.875 40.6317 156.486 43.1251C156.112 45.5285 155.372 47.2672 154.686 47.3532C154.159 47.4192 154.098 47.4646 154.06 47.5776L154.026 47.6787L154.085 47.7733C154.377 47.9012 154.688 47.9515 154.996 47.9208V47.9208Z" fill="#2F2E41"/>
<path d="M148.18 83.1415L144.123 73.347C138.233 73.8341 126.545 82.079 126.545 82.079L104.429 87.7564C103.774 87.4515 103.064 87.3609 102.371 87.4938C101.677 87.6267 101.025 87.9784 100.48 88.5134C99.9345 89.0485 99.5152 89.748 99.2642 90.5416C99.0131 91.3352 98.9391 92.1949 99.0497 93.0342C99.1603 93.8734 99.4515 94.6625 99.8941 95.3222C100.337 95.9818 100.915 96.4887 101.571 96.7917C102.226 97.0947 102.936 97.1832 103.629 97.0483C104.322 96.9134 104.974 96.5599 105.518 96.0233L133.651 93.5817L148.18 83.1415Z" fill="#FFB8B8"/>
<path d="M146.544 84.7498L157.14 75.2149L159.007 67.0704C159.369 65.4699 159.353 63.7788 158.963 62.1883C158.572 60.5977 157.822 59.1711 156.797 58.0697V58.0697C155.4 56.5879 153.589 55.804 151.732 55.8766C149.876 55.9491 148.111 56.8726 146.795 58.4604C142.807 63.2797 138.259 70.0031 139.236 74.6652L139.246 74.7125L146.544 84.7498Z" fill="#6C63FF"/>
<path d="M133.426 110.253H105.072V114.83H133.426V110.253Z" fill="white"/>
<path d="M60.9664 110.253H32.6126V114.83H60.9664V110.253Z" fill="white"/>
<path d="M64.2773 88.2404V110.035C64.2775 110.313 64.3687 110.579 64.5309 110.775C64.6931 110.972 64.913 111.082 65.1424 111.082H91.8169C92.0463 111.082 92.2662 110.972 92.4284 110.775C92.5906 110.579 92.6818 110.313 92.682 110.035V88.2404C92.6815 87.9629 92.5901 87.6969 92.428 87.5008C92.2658 87.3047 92.0461 87.1944 91.8169 87.194H65.1424C64.9132 87.1944 64.6935 87.3047 64.5313 87.5008C64.3692 87.6969 64.2778 87.9629 64.2773 88.2404Z" fill="#3F3D56"/>
<path d="M64.903 88.5115V109.766C64.9032 109.914 64.952 110.057 65.0387 110.162C65.1253 110.267 65.2428 110.326 65.3654 110.326H91.5948C91.7174 110.326 91.8349 110.267 91.9215 110.162C92.0082 110.057 92.057 109.914 92.0572 109.766V88.5115C92.0572 88.3629 92.0085 88.2204 91.9218 88.1153C91.8351 88.0101 91.7175 87.9509 91.5948 87.9505H65.3654C65.2427 87.9509 65.1251 88.0101 65.0384 88.1153C64.9517 88.2204 64.903 88.3629 64.903 88.5115Z" fill="#6C63FF"/>
<path d="M63.7194 114.285C63.7682 114.36 63.8303 114.419 63.901 114.46C63.9717 114.501 64.0492 114.522 64.1276 114.522H92.6897C92.7678 114.522 92.8449 114.501 92.9154 114.46C92.9859 114.419 93.048 114.36 93.0972 114.286C93.1464 114.213 93.1815 114.127 93.1999 114.035C93.2182 113.943 93.2195 113.848 93.2034 113.755L92.7601 111.205C92.7417 111.101 92.7021 111.004 92.645 110.924C92.5878 110.843 92.5149 110.781 92.4328 110.743C92.3734 110.715 92.3101 110.7 92.2463 110.7H64.5692C64.5053 110.7 64.4421 110.715 64.3827 110.743C64.3006 110.781 64.2277 110.843 64.1705 110.924C64.1134 111.004 64.0738 111.101 64.0554 111.205L63.612 113.755C63.5963 113.847 63.5977 113.943 63.6163 114.035C63.6348 114.127 63.6701 114.212 63.7194 114.285V114.285Z" fill="#2F2E41"/>
<path d="M91.2663 111.798H91.9409C91.9976 111.798 92.0435 111.743 92.0435 111.674V111.284C92.0435 111.215 91.9976 111.159 91.9409 111.159H91.2663C91.2097 111.159 91.1638 111.215 91.1638 111.284V111.674C91.1638 111.743 91.2097 111.798 91.2663 111.798Z" fill="#3F3D56"/>
<path d="M89.5069 111.798H90.1815C90.2381 111.798 90.2841 111.743 90.2841 111.674V111.284C90.2841 111.215 90.2381 111.159 90.1815 111.159H89.5069C89.4503 111.159 89.4044 111.215 89.4044 111.284V111.674C89.4044 111.743 89.4503 111.798 89.5069 111.798Z" fill="#3F3D56"/>
<path d="M87.7475 111.798H88.4221C88.4788 111.798 88.5247 111.743 88.5247 111.674V111.284C88.5247 111.215 88.4788 111.159 88.4221 111.159H87.7475C87.6909 111.159 87.645 111.215 87.645 111.284V111.674C87.645 111.743 87.6909 111.798 87.7475 111.798Z" fill="#3F3D56"/>
<path d="M85.9881 111.798H86.6628C86.7194 111.798 86.7653 111.743 86.7653 111.674V111.284C86.7653 111.215 86.7194 111.159 86.6628 111.159H85.9881C85.9315 111.159 85.8856 111.215 85.8856 111.284V111.674C85.8856 111.743 85.9315 111.798 85.9881 111.798Z" fill="#3F3D56"/>
<path d="M84.2287 111.798H84.9033C84.96 111.798 85.0059 111.743 85.0059 111.674V111.284C85.0059 111.215 84.96 111.159 84.9033 111.159H84.2287C84.1721 111.159 84.1262 111.215 84.1262 111.284V111.674C84.1262 111.743 84.1721 111.798 84.2287 111.798Z" fill="#3F3D56"/>
<path d="M82.4693 111.798H83.1439C83.2005 111.798 83.2465 111.743 83.2465 111.674V111.284C83.2465 111.215 83.2005 111.159 83.1439 111.159H82.4693C82.4127 111.159 82.3668 111.215 82.3668 111.284V111.674C82.3668 111.743 82.4127 111.798 82.4693 111.798Z" fill="#3F3D56"/>
<path d="M80.7099 111.798H81.3845C81.4412 111.798 81.4871 111.743 81.4871 111.674V111.284C81.4871 111.215 81.4412 111.159 81.3845 111.159H80.7099C80.6533 111.159 80.6074 111.215 80.6074 111.284V111.674C80.6074 111.743 80.6533 111.798 80.7099 111.798Z" fill="#3F3D56"/>
<path d="M78.9505 111.798H79.6251C79.6818 111.798 79.7277 111.743 79.7277 111.674V111.284C79.7277 111.215 79.6818 111.159 79.6251 111.159H78.9505C78.8939 111.159 78.848 111.215 78.848 111.284V111.674C78.848 111.743 78.8939 111.798 78.9505 111.798Z" fill="#3F3D56"/>
<path d="M77.1911 111.798H77.8657C77.9224 111.798 77.9683 111.743 77.9683 111.674V111.284C77.9683 111.215 77.9224 111.159 77.8657 111.159H77.1911C77.1345 111.159 77.0886 111.215 77.0886 111.284V111.674C77.0886 111.743 77.1345 111.798 77.1911 111.798Z" fill="#3F3D56"/>
<path d="M75.4317 111.798H76.1063C76.163 111.798 76.2089 111.743 76.2089 111.674V111.284C76.2089 111.215 76.163 111.159 76.1063 111.159H75.4317C75.3751 111.159 75.3292 111.215 75.3292 111.284V111.674C75.3292 111.743 75.3751 111.798 75.4317 111.798Z" fill="#3F3D56"/>
<path d="M73.6723 111.798H74.3469C74.4036 111.798 74.4495 111.743 74.4495 111.674V111.284C74.4495 111.215 74.4036 111.159 74.3469 111.159H73.6723C73.6157 111.159 73.5698 111.215 73.5698 111.284V111.674C73.5698 111.743 73.6157 111.798 73.6723 111.798Z" fill="#3F3D56"/>
<path d="M71.9129 111.798H72.5875C72.6442 111.798 72.6901 111.743 72.6901 111.674V111.284C72.6901 111.215 72.6442 111.159 72.5875 111.159H71.9129C71.8563 111.159 71.8104 111.215 71.8104 111.284V111.674C71.8104 111.743 71.8563 111.798 71.9129 111.798Z" fill="#3F3D56"/>
<path d="M70.1535 111.798H70.8281C70.8848 111.798 70.9307 111.743 70.9307 111.674V111.284C70.9307 111.215 70.8848 111.159 70.8281 111.159H70.1535C70.0969 111.159 70.051 111.215 70.051 111.284V111.674C70.051 111.743 70.0969 111.798 70.1535 111.798Z" fill="#3F3D56"/>
<path d="M68.3941 111.798H69.0687C69.1254 111.798 69.1713 111.743 69.1713 111.674V111.284C69.1713 111.215 69.1254 111.159 69.0687 111.159H68.3941C68.3375 111.159 68.2916 111.215 68.2916 111.284V111.674C68.2916 111.743 68.3375 111.798 68.3941 111.798Z" fill="#3F3D56"/>
<path d="M66.6347 111.798H67.3093C67.366 111.798 67.4119 111.743 67.4119 111.674V111.284C67.4119 111.215 67.366 111.159 67.3093 111.159H66.6347C66.5781 111.159 66.5322 111.215 66.5322 111.284V111.674C66.5322 111.743 66.5781 111.798 66.6347 111.798Z" fill="#3F3D56"/>
<path d="M64.8753 111.798H65.5499C65.6066 111.798 65.6525 111.743 65.6525 111.674V111.284C65.6525 111.215 65.6066 111.159 65.5499 111.159H64.8753C64.8187 111.159 64.7728 111.215 64.7728 111.284V111.674C64.7728 111.743 64.8187 111.798 64.8753 111.798Z" fill="#3F3D56"/>
<path d="M91.2871 112.864H91.9617C92.0184 112.864 92.0643 112.808 92.0643 112.739V112.349C92.0643 112.28 92.0184 112.225 91.9617 112.225H91.2871C91.2305 112.225 91.1846 112.28 91.1846 112.349V112.739C91.1846 112.808 91.2305 112.864 91.2871 112.864Z" fill="#3F3D56"/>
<path d="M89.5277 112.864H90.2023C90.259 112.864 90.3049 112.808 90.3049 112.739V112.349C90.3049 112.28 90.259 112.225 90.2023 112.225H89.5277C89.4711 112.225 89.4252 112.28 89.4252 112.349V112.739C89.4252 112.808 89.4711 112.864 89.5277 112.864Z" fill="#3F3D56"/>
<path d="M87.7683 112.864H88.4429C88.4996 112.864 88.5455 112.808 88.5455 112.739V112.349C88.5455 112.28 88.4996 112.225 88.4429 112.225H87.7683C87.7117 112.225 87.6658 112.28 87.6658 112.349V112.739C87.6658 112.808 87.7117 112.864 87.7683 112.864Z" fill="#3F3D56"/>
<path d="M86.0089 112.864H86.6835C86.7402 112.864 86.7861 112.808 86.7861 112.739V112.349C86.7861 112.28 86.7402 112.225 86.6835 112.225H86.0089C85.9523 112.225 85.9064 112.28 85.9064 112.349V112.739C85.9064 112.808 85.9523 112.864 86.0089 112.864Z" fill="#3F3D56"/>
<path d="M84.2495 112.864H84.9241C84.9808 112.864 85.0267 112.808 85.0267 112.739V112.349C85.0267 112.28 84.9808 112.225 84.9241 112.225H84.2495C84.1929 112.225 84.147 112.28 84.147 112.349V112.739C84.147 112.808 84.1929 112.864 84.2495 112.864Z" fill="#3F3D56"/>
<path d="M82.4901 112.864H83.1647C83.2213 112.864 83.2672 112.808 83.2672 112.739V112.349C83.2672 112.28 83.2213 112.225 83.1647 112.225H82.4901C82.4334 112.225 82.3875 112.28 82.3875 112.349V112.739C82.3875 112.808 82.4334 112.864 82.4901 112.864Z" fill="#3F3D56"/>
<path d="M80.7307 112.864H81.4053C81.4619 112.864 81.5078 112.808 81.5078 112.739V112.349C81.5078 112.28 81.4619 112.225 81.4053 112.225H80.7307C80.674 112.225 80.6281 112.28 80.6281 112.349V112.739C80.6281 112.808 80.674 112.864 80.7307 112.864Z" fill="#3F3D56"/>
<path d="M78.9713 112.864H79.6459C79.7026 112.864 79.7485 112.808 79.7485 112.739V112.349C79.7485 112.28 79.7026 112.225 79.6459 112.225H78.9713C78.9147 112.225 78.8688 112.28 78.8688 112.349V112.739C78.8688 112.808 78.9147 112.864 78.9713 112.864Z" fill="#3F3D56"/>
<path d="M77.2118 112.864H77.8865C77.9431 112.864 77.989 112.808 77.989 112.739V112.349C77.989 112.28 77.9431 112.225 77.8865 112.225H77.2118C77.1552 112.225 77.1093 112.28 77.1093 112.349V112.739C77.1093 112.808 77.1552 112.864 77.2118 112.864Z" fill="#3F3D56"/>
<path d="M75.4525 112.864H76.1271C76.1838 112.864 76.2297 112.808 76.2297 112.739V112.349C76.2297 112.28 76.1838 112.225 76.1271 112.225H75.4525C75.3959 112.225 75.35 112.28 75.35 112.349V112.739C75.35 112.808 75.3959 112.864 75.4525 112.864Z" fill="#3F3D56"/>
<path d="M73.6931 112.864H74.3677C74.4244 112.864 74.4703 112.808 74.4703 112.739V112.349C74.4703 112.28 74.4244 112.225 74.3677 112.225H73.6931C73.6365 112.225 73.5906 112.28 73.5906 112.349V112.739C73.5906 112.808 73.6365 112.864 73.6931 112.864Z" fill="#3F3D56"/>
<path d="M71.9337 112.864H72.6083C72.665 112.864 72.7109 112.808 72.7109 112.739V112.349C72.7109 112.28 72.665 112.225 72.6083 112.225H71.9337C71.8771 112.225 71.8312 112.28 71.8312 112.349V112.739C71.8312 112.808 71.8771 112.864 71.9337 112.864Z" fill="#3F3D56"/>
<path d="M70.1742 112.864H70.8489C70.9055 112.864 70.9514 112.808 70.9514 112.739V112.349C70.9514 112.28 70.9055 112.225 70.8489 112.225H70.1742C70.1176 112.225 70.0717 112.28 70.0717 112.349V112.739C70.0717 112.808 70.1176 112.864 70.1742 112.864Z" fill="#3F3D56"/>
<path d="M68.4149 112.864H69.0895C69.1461 112.864 69.192 112.808 69.192 112.739V112.349C69.192 112.28 69.1461 112.225 69.0895 112.225H68.4149C68.3582 112.225 68.3123 112.28 68.3123 112.349V112.739C68.3123 112.808 68.3582 112.864 68.4149 112.864Z" fill="#3F3D56"/>
<path d="M66.6555 112.864H67.3301C67.3868 112.864 67.4327 112.808 67.4327 112.739V112.349C67.4327 112.28 67.3868 112.225 67.3301 112.225H66.6555C66.5989 112.225 66.553 112.28 66.553 112.349V112.739C66.553 112.808 66.5989 112.864 66.6555 112.864Z" fill="#3F3D56"/>
<path d="M64.8961 112.864H65.5707C65.6274 112.864 65.6733 112.808 65.6733 112.739V112.349C65.6733 112.28 65.6274 112.225 65.5707 112.225H64.8961C64.8395 112.225 64.7936 112.28 64.7936 112.349V112.739C64.7936 112.808 64.8395 112.864 64.8961 112.864Z" fill="#3F3D56"/>
<path d="M76.6841 114.142H83.5166C83.5732 114.142 83.6191 114.086 83.6191 114.018V113.627C83.6191 113.558 83.5732 113.503 83.5166 113.503H76.6841C76.6274 113.503 76.5815 113.558 76.5815 113.627V114.018C76.5815 114.086 76.6274 114.142 76.6841 114.142Z" fill="#3F3D56"/>
</g>
<defs>
<clipPath id="clip0_1_97">
<rect width="175" height="161" fill="white" transform="translate(10 18)"/>
</clipPath>
</defs>
</svg>
