<svg width="200" height="200" viewBox="0 0 200 200" fill="none" xmlns="http://www.w3.org/2000/svg">
<path d="M165.333 75.1564C167.334 79.0716 168.911 83.1097 173.324 83.1097C175.443 83.1097 177.475 82.2718 178.974 80.7802C180.473 79.2887 181.314 77.2658 181.314 75.1564C181.314 73.0471 180.473 71.0241 178.974 69.5326C177.475 68.0411 175.443 67.2032 173.324 67.2032C168.839 67.1473 161.609 67.8691 165.333 75.1564Z" fill="#2F2E41"/>
<path d="M171.614 170.805L168.199 171.562L163.639 158.813L168.679 157.695L171.614 170.805Z" fill="#A0616A"/>
<path d="M173.223 173.907L162.212 176.349L162.181 176.21C162.055 175.65 162.042 175.071 162.141 174.505C162.241 173.94 162.451 173.4 162.76 172.915C163.07 172.431 163.472 172.012 163.944 171.682C164.416 171.353 164.948 171.119 165.511 170.994L165.511 170.994L172.237 169.502L173.223 173.907Z" fill="#2F2E41"/>
<path d="M181.758 175.362H178.26L176.595 161.93L181.759 161.93L181.758 175.362Z" fill="#A0616A"/>
<path d="M182.651 178.738L171.369 178.737V178.595C171.369 178.021 171.483 177.453 171.704 176.923C171.924 176.392 172.248 175.911 172.656 175.505C173.063 175.099 173.547 174.777 174.08 174.557C174.613 174.338 175.184 174.225 175.76 174.225H175.761L182.651 174.225L182.651 178.738Z" fill="#2F2E41"/>
<path d="M181.782 168.323H177.316C177.006 168.322 176.707 168.21 176.473 168.007C176.239 167.804 176.087 167.524 176.044 167.218L171.996 136.054C171.983 135.956 171.936 135.866 171.864 135.799C171.791 135.732 171.698 135.692 171.599 135.686C171.5 135.68 171.403 135.708 171.322 135.765C171.242 135.823 171.184 135.906 171.159 136.001L168.76 144.9L170.922 165.167C170.959 165.479 170.878 165.794 170.696 166.051C170.514 166.308 170.243 166.489 169.935 166.56L166.393 167.373C166.079 167.444 165.749 167.395 165.468 167.236C165.188 167.076 164.978 166.818 164.88 166.512L159.176 146.809C158.716 145.365 158.558 143.843 158.711 142.336L160.496 124.574L160.631 124.581L184.458 125.723L183.065 167.09C183.055 167.421 182.915 167.735 182.675 167.966C182.435 168.196 182.115 168.324 181.782 168.323Z" fill="#2F2E41"/>
<path d="M172.931 83.2646C176.802 83.2646 179.94 80.1411 179.94 76.2881C179.94 72.4352 176.802 69.3117 172.931 69.3117C169.06 69.3117 165.921 72.4352 165.921 76.2881C165.921 80.1411 169.06 83.2646 172.931 83.2646Z" fill="#A0616A"/>
<path d="M183.925 127.637C183.902 127.637 183.878 127.636 183.855 127.635L160.099 126.363C159.902 126.353 159.711 126.298 159.54 126.202C159.368 126.107 159.221 125.973 159.11 125.812C158.998 125.651 158.925 125.466 158.897 125.273C158.868 125.079 158.885 124.882 158.945 124.695L160.825 118.884C162.838 112.654 163.182 106.008 161.823 99.6043C161.467 97.9287 161.475 96.1967 161.845 94.5242C162.215 92.8517 162.94 91.2771 163.971 89.9057C164.985 88.5533 166.277 87.4318 167.761 86.6164C169.246 85.801 170.888 85.3104 172.578 85.1774C172.694 85.1682 172.811 85.1601 172.928 85.153C174.716 85.0478 176.505 85.3411 178.165 86.0117C179.825 86.6823 181.313 87.7132 182.521 89.0291C183.73 90.3451 184.628 91.9129 185.15 93.6183C185.672 95.3237 185.806 97.1236 185.54 98.8867L183.884 109.957L185.204 126.256C185.218 126.432 185.196 126.609 185.138 126.775C185.08 126.942 184.988 127.095 184.868 127.225C184.748 127.355 184.602 127.458 184.44 127.529C184.277 127.6 184.102 127.636 183.925 127.637Z" fill="#6C63FF"/>
<path d="M154.692 129.108C155.039 128.874 155.331 128.567 155.546 128.208C155.761 127.85 155.895 127.449 155.938 127.033C155.98 126.618 155.931 126.198 155.793 125.804C155.655 125.41 155.432 125.05 155.14 124.751L159.714 115.679L154.451 116.299L150.914 124.819C150.442 125.341 150.178 126.018 150.173 126.721C150.169 127.424 150.423 128.105 150.889 128.633C151.355 129.162 151.999 129.502 152.7 129.59C153.401 129.677 154.109 129.506 154.692 129.108H154.692Z" fill="#A0616A"/>
<path d="M186.093 130.586C185.79 130.298 185.554 129.946 185.402 129.557C185.25 129.168 185.185 128.75 185.213 128.334C185.241 127.917 185.36 127.511 185.562 127.146C185.764 126.78 186.044 126.462 186.383 126.216L183.396 116.511L188.481 117.997L190.538 126.986C190.916 127.58 191.062 128.291 190.949 128.985C190.835 129.679 190.47 130.307 189.922 130.751C189.374 131.195 188.682 131.423 187.976 131.393C187.271 131.362 186.601 131.075 186.093 130.586V130.586Z" fill="#A0616A"/>
<path d="M185.599 125.502C185.287 125.503 184.986 125.391 184.752 125.186C184.518 124.982 184.367 124.699 184.327 124.392L181.951 106.547L178.159 92.6025C177.999 92.0131 177.976 91.3951 178.091 90.7953C178.205 90.1955 178.456 89.6295 178.823 89.1401C179.19 88.6507 179.663 88.2507 180.208 87.9702C180.753 87.6898 181.355 87.5363 181.968 87.5213V87.5213C182.94 87.5008 183.887 87.8275 184.637 88.4422C185.388 89.0569 185.892 89.9189 186.059 90.8719L191.708 123.805C191.738 123.984 191.73 124.168 191.684 124.343C191.638 124.519 191.555 124.683 191.441 124.824C191.326 124.965 191.182 125.08 191.02 125.162C190.857 125.243 190.678 125.29 190.496 125.297L185.655 125.501C185.636 125.501 185.617 125.502 185.599 125.502Z" fill="#6C63FF"/>
<path d="M157.238 123.498C157.146 123.498 157.055 123.488 156.965 123.469L152.226 122.463C152.048 122.425 151.879 122.35 151.733 122.243C151.586 122.135 151.463 121.997 151.374 121.839C151.285 121.681 151.23 121.506 151.215 121.325C151.199 121.144 151.222 120.962 151.282 120.791L162.381 89.2599C162.706 88.3488 163.348 87.5835 164.191 87.1024C165.034 86.6214 166.022 86.4561 166.976 86.6367V86.6367C167.578 86.7535 168.146 87.005 168.636 87.3722C169.126 87.7393 169.526 88.2126 169.806 88.7561C170.085 89.2996 170.237 89.8993 170.25 90.5098C170.262 91.1203 170.135 91.7256 169.878 92.2801L163.792 105.415L158.46 122.596C158.38 122.857 158.219 123.086 157.999 123.248C157.779 123.41 157.512 123.498 157.238 123.498V123.498Z" fill="#6C63FF"/>
<path d="M165.493 72.3454C167.094 73.4442 168.996 74.029 170.941 74.0212C170.247 74.5001 169.457 74.8236 168.625 74.9694C171.212 75.5216 173.885 75.5365 176.477 75.0133C177.053 74.9213 177.61 74.7312 178.121 74.4514C178.376 74.3097 178.598 74.1163 178.773 73.8836C178.947 73.6509 179.071 73.3842 179.136 73.1008C179.308 72.1213 178.541 71.2314 177.744 70.6316C176.524 69.7273 175.117 69.1043 173.625 68.8076C172.134 68.5109 170.594 68.548 169.119 68.9161C168.155 69.164 167.19 69.5828 166.564 70.3529C165.938 71.1231 165.753 72.3104 166.349 73.1035L165.493 72.3454Z" fill="#2F2E41"/>
<path d="M128.918 21H8.48856C7.82874 21.0006 7.19611 21.2617 6.72954 21.7261C6.26297 22.1905 6.00059 22.8201 6.00001 23.4769V140.31C6.00059 140.967 6.26297 141.597 6.72954 142.061C7.19611 142.525 7.82874 142.787 8.48856 142.787H19.0475V142.08H8.48856C8.0172 142.079 7.5653 141.893 7.232 141.561C6.89869 141.229 6.7112 140.779 6.71066 140.31V23.4769C6.7112 23.0077 6.89869 22.5579 7.232 22.2262C7.5653 21.8944 8.0172 21.7078 8.48856 21.7073H128.918C129.39 21.7072 129.842 21.8936 130.176 22.2254C130.51 22.5571 130.698 23.0073 130.699 23.4769V140.31C130.699 140.656 130.597 140.994 130.405 141.282C130.234 141.535 130.003 141.742 129.731 141.884C129.48 142.013 129.201 142.08 128.918 142.08H118.359V142.787H128.918C129.278 142.787 129.633 142.709 129.96 142.559C130.287 142.409 130.577 142.19 130.81 141.918C130.83 141.897 130.848 141.874 130.864 141.85C131.013 141.669 131.133 141.467 131.221 141.25C131.346 140.953 131.41 140.633 131.409 140.31V23.4769C131.409 22.8197 131.146 22.1897 130.679 21.7253C130.212 21.2608 129.578 21 128.918 21Z" fill="#3F3D56"/>
<path d="M131.052 30.9283H6.35452V31.6363H131.052V30.9283Z" fill="#3F3D56"/>
<path d="M12.4014 28.4358C13.58 28.4358 14.5355 27.4848 14.5355 26.3116C14.5355 25.1385 13.58 24.1874 12.4014 24.1874C11.2227 24.1874 10.2672 25.1385 10.2672 26.3116C10.2672 27.4848 11.2227 28.4358 12.4014 28.4358Z" fill="#3F3D56"/>
<path d="M18.5371 28.4358C19.7158 28.4358 20.6713 27.4848 20.6713 26.3116C20.6713 25.1385 19.7158 24.1874 18.5371 24.1874C17.3585 24.1874 16.403 25.1385 16.403 26.3116C16.403 27.4848 17.3585 28.4358 18.5371 28.4358Z" fill="#3F3D56"/>
<path d="M24.6729 28.4358C25.8516 28.4358 26.8071 27.4848 26.8071 26.3116C26.8071 25.1385 25.8516 24.1874 24.6729 24.1874C23.4942 24.1874 22.5387 25.1385 22.5387 26.3116C22.5387 27.4848 23.4942 28.4358 24.6729 28.4358Z" fill="#3F3D56"/>
<path d="M98.8118 47.3184H38.5971C37.6132 47.3184 36.6696 46.9294 35.9738 46.2369C35.2781 45.5444 34.8872 44.6052 34.8872 43.6258C34.8872 42.6465 35.2781 41.7073 35.9738 41.0148C36.6696 40.3223 37.6132 39.9333 38.5971 39.9333H98.8118C99.7958 39.9333 100.739 40.3223 101.435 41.0148C102.131 41.7073 102.522 42.6465 102.522 43.6258C102.522 44.6052 102.131 45.5444 101.435 46.2369C100.739 46.9294 99.7958 47.3184 98.8118 47.3184V47.3184ZM38.5971 40.5013C37.7646 40.5013 36.9661 40.8305 36.3774 41.4165C35.7887 42.0024 35.458 42.7972 35.458 43.6258C35.458 44.4545 35.7887 45.2492 36.3774 45.8352C36.9661 46.4211 37.7646 46.7503 38.5971 46.7503H98.8118C99.6444 46.7503 100.443 46.4211 101.032 45.8352C101.62 45.2492 101.951 44.4545 101.951 43.6258C101.951 42.7972 101.62 42.0024 101.032 41.4165C100.443 40.8305 99.6444 40.5013 98.8118 40.5013H38.5971Z" fill="#3F3D56"/>
<path d="M114.08 98.8993H23.3294C22.0432 98.8979 20.81 98.3887 19.9005 97.4834C18.991 96.5782 18.4794 95.3508 18.478 94.0706V65.098C18.4794 63.8178 18.991 62.5904 19.9005 61.6851C20.81 60.7799 22.0432 60.2707 23.3294 60.2692H114.08C115.366 60.2707 116.599 60.7799 117.508 61.6851C118.418 62.5904 118.929 63.8178 118.931 65.098V94.0706C118.929 95.3508 118.418 96.5782 117.508 97.4834C116.599 98.3887 115.366 98.8979 114.08 98.8993V98.8993ZM23.3294 60.8373C22.1945 60.8386 21.1064 61.2879 20.3039 62.0867C19.5014 62.8854 19.05 63.9684 19.0487 65.098V94.0706C19.05 95.2002 19.5014 96.2831 20.3039 97.0819C21.1064 97.8807 22.1945 98.33 23.3294 98.3312H114.08C115.214 98.33 116.302 97.8807 117.105 97.0819C117.907 96.2831 118.359 95.2002 118.36 94.0706V65.098C118.359 63.9684 117.907 62.8854 117.105 62.0867C116.302 61.2879 115.214 60.8386 114.08 60.8373H23.3294Z" fill="#3F3D56"/>
<path d="M80.605 78.022H48.9281C48.3226 78.022 47.7419 77.7826 47.3137 77.3565C46.8856 76.9303 46.645 76.3523 46.645 75.7497C46.645 75.147 46.8856 74.569 47.3137 74.1429C47.7419 73.7167 48.3226 73.4773 48.9281 73.4773H80.605C81.2105 73.4773 81.7912 73.7167 82.2193 74.1429C82.6475 74.569 82.888 75.147 82.888 75.7497C82.888 76.3523 82.6475 76.9303 82.2193 77.3565C81.7912 77.7826 81.2105 78.022 80.605 78.022Z" fill="#6C63FF"/>
<path d="M109.999 85.6912H48.9281C48.3226 85.6912 47.7419 85.4518 47.3137 85.0256C46.8856 84.5995 46.645 84.0215 46.645 83.4188C46.645 82.8162 46.8856 82.2382 47.3137 81.812C47.7419 81.3859 48.3226 81.1465 48.9281 81.1465H109.999C110.604 81.1465 111.185 81.3859 111.613 81.812C112.041 82.2382 112.282 82.8162 112.282 83.4188C112.282 84.0215 112.041 84.5995 111.613 85.0256C111.185 85.4518 110.604 85.6912 109.999 85.6912Z" fill="#6C63FF"/>
<path d="M33.6884 88.1056C38.4167 88.1056 42.2497 84.2905 42.2497 79.5843C42.2497 74.8781 38.4167 71.0629 33.6884 71.0629C28.9601 71.0629 25.1271 74.8781 25.1271 79.5843C25.1271 84.2905 28.9601 88.1056 33.6884 88.1056Z" fill="#6C63FF"/>
<path d="M109.996 94.9227H102.005C101.399 94.9227 100.819 94.6833 100.391 94.2571C99.9624 93.831 99.7219 93.253 99.7219 92.6503C99.7219 92.0477 99.9624 91.4697 100.391 91.0435C100.819 90.6174 101.399 90.378 102.005 90.378H109.996C110.601 90.378 111.182 90.6174 111.61 91.0435C112.038 91.4697 112.279 92.0477 112.279 92.6503C112.279 93.253 112.038 93.831 111.61 94.2571C111.182 94.6833 110.601 94.9227 109.996 94.9227Z" fill="white"/>
<path d="M109.996 94.9227H102.005C101.399 94.9227 100.819 94.6833 100.391 94.2571C99.9624 93.831 99.7219 93.253 99.7219 92.6503C99.7219 92.0477 99.9624 91.4697 100.391 91.0435C100.819 90.6174 101.399 90.378 102.005 90.378H109.996C110.601 90.378 111.182 90.6174 111.61 91.0435C112.038 91.4697 112.279 92.0477 112.279 92.6503C112.279 93.253 112.038 93.831 111.61 94.2571C111.182 94.6833 110.601 94.9227 109.996 94.9227Z" fill="#CCCCCC"/>
<path d="M114.078 112.534H23.3282C22.0421 112.535 20.8092 113.045 19.8997 113.95C18.9903 114.855 18.4786 116.082 18.4768 117.362V146.335C18.4786 147.615 18.9903 148.842 19.8997 149.747C20.8092 150.652 22.0421 151.162 23.3282 151.164H114.078C115.365 151.162 116.598 150.653 117.507 149.748C118.417 148.843 118.928 147.615 118.93 146.335V117.362C118.928 116.082 118.417 114.855 117.507 113.949C116.598 113.044 115.365 112.535 114.078 112.534ZM118.359 146.335C118.358 147.465 117.907 148.548 117.104 149.347C116.302 150.145 115.213 150.595 114.078 150.596H23.3282C22.1933 150.594 21.1053 150.145 20.3028 149.346C19.5004 148.547 19.0489 147.464 19.0475 146.335V117.362C19.0489 116.233 19.5004 115.15 20.3028 114.351C21.1053 113.552 22.1933 113.103 23.3282 113.102H114.078C115.213 113.103 116.302 113.552 117.104 114.351C117.907 115.149 118.358 116.233 118.359 117.362V146.335Z" fill="#3F3D56"/>
<path d="M80.605 130.286H48.9281C48.3226 130.286 47.7419 130.047 47.3137 129.621C46.8856 129.195 46.645 128.617 46.645 128.014C46.645 127.411 46.8856 126.833 47.3137 126.407C47.7419 125.981 48.3226 125.742 48.9281 125.742H80.605C81.2105 125.742 81.7912 125.981 82.2193 126.407C82.6475 126.833 82.888 127.411 82.888 128.014C82.888 128.617 82.6475 129.195 82.2193 129.621C81.7912 130.047 81.2105 130.286 80.605 130.286Z" fill="#6C63FF"/>
<path d="M109.999 137.955H48.9281C48.3226 137.955 47.7419 137.716 47.3137 137.29C46.8856 136.864 46.645 136.286 46.645 135.683C46.645 135.08 46.8856 134.502 47.3137 134.076C47.7419 133.65 48.3226 133.411 48.9281 133.411H109.999C110.604 133.411 111.185 133.65 111.613 134.076C112.041 134.502 112.282 135.08 112.282 135.683C112.282 136.286 112.041 136.864 111.613 137.29C111.185 137.716 110.604 137.955 109.999 137.955Z" fill="#6C63FF"/>
<path d="M33.6884 140.37C38.4167 140.37 42.2497 136.555 42.2497 131.849C42.2497 127.142 38.4167 123.327 33.6884 123.327C28.9601 123.327 25.1271 127.142 25.1271 131.849C25.1271 136.555 28.9601 140.37 33.6884 140.37Z" fill="#6C63FF"/>
<path d="M109.996 147.187H102.005C101.399 147.187 100.819 146.948 100.391 146.521C99.9624 146.095 99.7219 145.517 99.7219 144.915C99.7219 144.312 99.9624 143.734 100.391 143.308C100.819 142.882 101.399 142.642 102.005 142.642H109.996C110.601 142.642 111.182 142.882 111.61 143.308C112.038 143.734 112.279 144.312 112.279 144.915C112.279 145.517 112.038 146.095 111.61 146.521C111.182 146.948 110.601 147.187 109.996 147.187Z" fill="#CCCCCC"/>
<path d="M192.715 179H152.762C152.686 179 152.613 178.97 152.56 178.917C152.506 178.864 152.476 178.791 152.476 178.716C152.476 178.641 152.506 178.568 152.56 178.515C152.613 178.462 152.686 178.432 152.762 178.432H192.715C192.79 178.432 192.863 178.462 192.916 178.515C192.97 178.568 193 178.641 193 178.716C193 178.791 192.97 178.864 192.916 178.917C192.863 178.97 192.79 179 192.715 179Z" fill="#3F3D56"/>
</svg>
