<svg width="200" height="200" viewBox="0 0 200 200" fill="none" xmlns="http://www.w3.org/2000/svg">
<rect width="200" height="200" fill="#E5E5E5"/>
<g clip-path="url(#clip0_0_1)">
<rect width="200" height="200" fill="white"/>
<g clip-path="url(#clip1_0_1)">
<path d="M62.009 156.637C63.3757 153.694 64.7414 150.706 65.3345 147.517C65.9277 144.328 65.6787 140.866 63.98 138.1C62.2812 135.334 58.9364 133.458 55.7443 134.083C53.1226 134.597 51.0175 136.656 49.7849 139.019C48.5523 141.383 48.0577 144.049 47.5783 146.67C47.4234 143.693 47.2593 140.667 46.2674 137.854C45.2754 135.042 43.3221 132.42 40.5384 131.332C37.7546 130.244 34.1332 131.1 32.666 133.697C30.599 137.358 33.3398 142.492 30.963 145.96C30.5553 142.481 26.907 139.732 23.4396 140.292C19.9722 140.851 17.3793 144.607 18.0925 148.036C18.517 150.077 19.9133 151.812 21.5826 153.066C23.252 154.32 25.1935 155.774 27.1141 156.596L62.009 156.637Z" fill="#F2F2F2"/>
<path d="M19.9131 142.75C22.6674 143.71 25.447 144.68 27.9615 146.181C30.2151 147.526 32.222 149.337 33.4894 151.657C34.1838 152.901 34.5961 154.282 34.6972 155.702C34.7155 155.999 35.1816 156.001 35.1632 155.702C35.0002 153.057 33.7075 150.637 31.9174 148.722C29.9548 146.624 27.4115 145.19 24.7856 144.078C23.2287 143.418 21.6331 142.858 20.0369 142.302C19.7533 142.203 19.6314 142.651 19.9131 142.75H19.9131Z" fill="white"/>
<path d="M35.8001 131.793C37.4923 134.604 38.8474 137.604 39.8375 140.73C40.8296 143.856 41.4545 147.085 41.6997 150.354C41.8354 152.184 41.8502 154.021 41.7441 155.853C41.7268 156.152 42.1928 156.151 42.21 155.853C42.398 152.55 42.1975 149.237 41.6127 145.98C41.0288 142.724 40.0691 139.547 38.7528 136.511C38.0139 134.805 37.1619 133.151 36.2024 131.559C36.1702 131.508 36.1193 131.471 36.0606 131.457C36.0018 131.443 35.9398 131.452 35.8876 131.482C35.8354 131.513 35.7972 131.562 35.7808 131.62C35.7645 131.678 35.7714 131.74 35.8001 131.793V131.793Z" fill="white"/>
<path d="M58.6058 134.462C56.2122 139.825 54.5278 145.475 53.5949 151.27C53.3329 152.898 53.1301 154.534 52.9865 156.178C52.9605 156.476 53.4266 156.474 53.4525 156.178C53.9599 150.395 55.2132 144.702 57.1816 139.239C57.7346 137.703 58.3435 136.189 59.0081 134.697C59.1287 134.426 58.7274 134.189 58.6058 134.462V134.462Z" fill="white"/>
<path d="M141.246 162.966L141.208 160.081L127.571 160.257L127.608 163.142L141.246 162.966Z" fill="#E6E6E6"/>
<path d="M146.092 163.609L144.144 163.604L142.94 161.462L144.242 159.327L146.051 159.333C145.598 158.758 144.976 158.339 144.272 158.134C143.568 157.93 142.817 157.95 142.125 158.193C141.433 158.435 140.835 158.887 140.414 159.486C139.993 160.084 139.77 160.799 139.777 161.531C139.784 162.262 140.02 162.972 140.453 163.563C140.885 164.153 141.492 164.594 142.188 164.823C142.885 165.053 143.635 165.059 144.335 164.841C145.036 164.624 145.65 164.193 146.092 163.61V163.609Z" fill="#E6E6E6"/>
<path d="M122.725 163.609L124.672 163.604L125.876 161.462L124.575 159.327L122.765 159.333C123.219 158.758 123.841 158.339 124.545 158.134C125.249 157.93 125.999 157.95 126.691 158.193C127.383 158.435 127.982 158.887 128.403 159.486C128.824 160.084 129.047 160.799 129.04 161.531C129.033 162.262 128.796 162.972 128.364 163.563C127.932 164.153 127.325 164.594 126.628 164.823C125.932 165.053 125.181 165.059 124.481 164.841C123.781 164.623 123.167 164.193 122.725 163.609V163.609Z" fill="#E6E6E6"/>
<path d="M201.707 156.888H0.292754C0.215111 156.888 0.140647 156.857 0.0857453 156.802C0.0308434 156.747 0 156.673 0 156.596C0 156.518 0.0308434 156.444 0.0857453 156.389C0.140647 156.335 0.215111 156.304 0.292754 156.304H201.707C201.785 156.304 201.859 156.335 201.914 156.389C201.969 156.444 202 156.518 202 156.596C202 156.673 201.969 156.747 201.914 156.802C201.859 156.857 201.785 156.888 201.707 156.888Z" fill="#3F3D56"/>
<path d="M158.229 101.424C163.565 101.424 167.89 97.1107 167.89 91.7904C167.89 86.4701 163.565 82.1572 158.229 82.1572C152.894 82.1572 148.568 86.4701 148.568 91.7904C148.568 97.1107 152.894 101.424 158.229 101.424Z" fill="#2F2E41"/>
<path d="M162.144 145.87L162.888 149.371L176.785 148.175L175.687 143.008L162.144 145.87Z" fill="#FFB8B8"/>
<path d="M161.063 156.812L158.725 145.809L162.988 144.908L164.423 151.66C164.663 152.787 164.443 153.963 163.813 154.93C163.183 155.896 162.194 156.573 161.063 156.812L161.063 156.812Z" fill="#2F2E41"/>
<path d="M153.438 145.683L151.874 148.904L138.669 144.421L140.978 139.667L153.438 145.683Z" fill="#FFB8B8"/>
<path d="M149.834 150.759L152.85 144.547L156.773 146.441L151.857 156.565C151.342 156.316 150.881 155.968 150.501 155.542C150.12 155.116 149.828 154.619 149.64 154.08C149.452 153.541 149.372 152.97 149.406 152.4C149.439 151.831 149.584 151.273 149.834 150.759V150.759Z" fill="#2F2E41"/>
<path d="M127.424 139.321C127.876 139.405 128.341 139.389 128.786 139.275C129.231 139.16 129.646 138.949 130 138.658C130.355 138.366 130.641 138 130.839 137.586C131.037 137.173 131.141 136.72 131.144 136.262L152.918 116.245L147.51 112.069L127.797 133.07C127.024 133.116 126.295 133.442 125.747 133.988C125.2 134.533 124.872 135.26 124.826 136.031C124.78 136.801 125.019 137.562 125.498 138.168C125.977 138.775 126.662 139.185 127.424 139.321H127.424Z" fill="#FFB8B8"/>
<path d="M157.017 101.859C160.988 101.859 164.207 98.6486 164.207 94.6889C164.207 90.7291 160.988 87.5191 157.017 87.5191C153.046 87.5191 149.826 90.7291 149.826 94.6889C149.826 98.6486 153.046 101.859 157.017 101.859Z" fill="#FFB8B8"/>
<path d="M163.47 136.834C158.426 136.834 152.351 135.775 148.604 131.44L148.52 131.343L148.606 131.247C148.635 131.216 151.392 128.074 148.639 122.472L144.854 123.633L141.086 118.673L143.174 112.43L151.715 105.568C152.939 104.591 154.429 104.002 155.993 103.879C158.822 103.606 161.578 102.823 164.127 101.569C165.293 101.004 166.578 100.724 167.874 100.752L168.042 100.756C168.436 100.767 168.824 100.858 169.182 101.023C169.54 101.188 169.861 101.424 170.125 101.716C170.389 102.009 170.59 102.351 170.717 102.724C170.844 103.096 170.894 103.49 170.864 103.882C170.285 111.364 169.262 129.437 172.267 135.66L172.345 135.821L172.171 135.865C169.315 136.506 166.397 136.831 163.47 136.834V136.834Z" fill="#6C63FF"/>
<path d="M149.593 131.345C149.593 131.345 130.564 129.594 128.515 135.14C126.466 140.686 128.808 143.314 132.321 144.481C135.834 145.649 144.324 147.108 144.324 147.108L148.129 142.438L158.083 143.022C158.083 143.022 169.174 149.436 172.24 156.296C172.898 157.781 173.947 159.06 175.276 159.997C176.605 160.935 178.164 161.496 179.787 161.62C182.245 161.791 184.431 160.865 184.431 157.034C184.431 148.276 172.135 135.724 172.135 135.724L149.593 131.345Z" fill="#2F2E41"/>
<path d="M135.102 139.957C135.102 139.957 140.079 138.497 147.983 142.292Z" fill="#2F2E41"/>
<path d="M149.844 90.1165C152.652 91.8257 155.818 92.8659 159.095 93.1559L158.12 91.9909C158.83 92.2526 159.577 92.4006 160.333 92.4292C160.712 92.4401 161.088 92.3624 161.431 92.2022C161.774 92.0421 162.075 91.8039 162.309 91.5069C162.5 91.1985 162.614 90.8486 162.64 90.4869C162.666 90.1253 162.605 89.7626 162.46 89.43C162.163 88.7664 161.7 88.1897 161.116 87.7548C160.081 86.9385 158.86 86.3901 157.561 86.1586C156.262 85.9272 154.926 86.0197 153.671 86.4281C152.811 86.6845 152.04 87.1774 151.448 87.8503C151.157 88.1893 150.954 88.5951 150.859 89.0313C150.764 89.4675 150.779 89.9204 150.903 90.3494" fill="#2F2E41"/>
<path d="M158.177 84.3858C159.455 81.4279 161.367 78.7852 163.78 76.6438C165.329 75.271 167.138 74.0915 169.18 73.7355C171.222 73.3795 173.522 73.9894 174.775 75.6362C175.799 76.9828 175.99 78.7868 175.877 80.473C175.765 82.1591 175.387 83.829 175.423 85.5185C175.46 87.2424 175.928 88.9299 176.785 90.4276C177.642 91.9254 178.86 93.186 180.329 94.0951C181.799 95.0042 183.473 95.533 185.199 95.6335C186.925 95.7339 188.649 95.4029 190.215 94.6704C188.452 95.6421 187.078 97.1802 185.442 98.3509C183.805 99.5216 181.647 100.324 179.788 99.5507C177.821 98.7322 176.919 96.5091 176.214 94.5035L173.073 85.5593C172.539 84.0389 171.978 82.4733 170.888 81.2841C169.798 80.0949 168.03 79.3701 166.529 79.968C165.392 80.4211 164.652 81.5027 164.003 82.538C163.354 83.5732 162.669 84.6748 161.572 85.2176C160.475 85.7604 158.85 85.4262 158.491 84.2587" fill="#2F2E41"/>
<path d="M157.977 127.761L155.958 129.827L165.726 139.319L167.745 137.252L157.977 127.761Z" fill="#E6E6E6"/>
<path d="M165.848 137.423C165.449 137.831 165.18 138.349 165.075 138.91C164.971 139.471 165.036 140.05 165.262 140.574C165.487 141.099 165.864 141.544 166.344 141.855C166.824 142.166 167.385 142.328 167.957 142.321C168.529 142.313 169.087 142.137 169.558 141.814C170.03 141.491 170.395 141.035 170.607 140.505C170.819 139.975 170.869 139.395 170.75 138.837C170.631 138.278 170.349 137.768 169.939 137.37C169.389 136.836 168.65 136.541 167.882 136.551C167.115 136.561 166.383 136.875 165.848 137.423V137.423ZM168.808 140.299C168.637 140.474 168.417 140.595 168.178 140.645C167.938 140.696 167.688 140.675 167.46 140.584C167.233 140.494 167.037 140.338 166.898 140.136C166.759 139.935 166.683 139.696 166.68 139.452C166.677 139.207 166.747 138.967 166.88 138.762C167.014 138.557 167.205 138.396 167.431 138.3C167.656 138.203 167.905 138.176 168.146 138.22C168.387 138.265 168.61 138.38 168.785 138.55C169.021 138.779 169.155 139.092 169.16 139.42C169.164 139.748 169.037 140.064 168.808 140.299Z" fill="#E6E6E6"/>
<path d="M155.007 123.889L156.38 125.266L155.713 127.63L153.279 128.222L152.003 126.942C151.916 127.668 152.059 128.403 152.412 129.044C152.764 129.685 153.31 130.2 153.971 130.516C154.632 130.833 155.375 130.935 156.098 130.809C156.82 130.682 157.485 130.334 157.998 129.812C158.512 129.29 158.849 128.621 158.962 127.898C159.075 127.176 158.958 126.436 158.628 125.783C158.298 125.13 157.772 124.596 157.122 124.257C156.473 123.917 155.733 123.789 155.007 123.889V123.889Z" fill="#E6E6E6"/>
<path d="M160.644 136.859C160.52 136.859 160.396 136.852 160.273 136.839C159.55 136.755 158.877 136.43 158.363 135.917C157.848 135.404 157.523 134.733 157.439 134.013C157.388 133.563 157.432 133.108 157.57 132.676C157.707 132.245 157.934 131.848 158.236 131.51C158.538 131.172 158.909 130.902 159.323 130.717C159.737 130.532 160.186 130.437 160.639 130.437C160.783 130.437 160.926 130.448 161.069 130.469L170.899 120.034L169.873 116.623L175.027 114.319L176.471 117.84C176.955 119.032 177.04 120.349 176.715 121.594C176.389 122.839 175.669 123.945 174.663 124.75L163.842 133.333C163.854 133.437 163.859 133.542 163.86 133.648C163.859 134.099 163.764 134.546 163.579 134.958C163.394 135.37 163.124 135.739 162.787 136.04C162.2 136.57 161.436 136.861 160.644 136.859Z" fill="#FFB8B8"/>
<path d="M168.329 102.153C168.67 102.002 169.038 101.922 169.411 101.916C169.784 101.91 170.154 101.98 170.499 102.12C170.845 102.261 171.158 102.47 171.42 102.734C171.683 102.998 171.889 103.313 172.026 103.659L177.112 116.457L169.208 121.712L168.329 102.153Z" fill="#6C63FF"/>
<path d="M131.296 105.142V41.3745C131.293 39.4195 130.513 37.5454 129.127 36.163C127.74 34.7806 125.861 34.0028 123.9 34H23.4068C21.4462 34.0028 19.5667 34.7806 18.1804 36.163C16.794 37.5454 16.0139 39.4195 16.0112 41.3745V105.142C16.0139 107.097 16.794 108.971 18.1804 110.353C19.5667 111.736 21.4462 112.514 23.4068 112.516H123.9C125.861 112.514 127.74 111.736 129.127 110.353C130.513 108.971 131.293 107.097 131.296 105.142ZM23.4068 111.649C21.6767 111.647 20.0182 110.961 18.7948 109.741C17.5715 108.521 16.8833 106.867 16.8812 105.142V41.3745C16.8833 39.6494 17.5715 37.9955 18.7948 36.7757C20.0182 35.5559 21.6767 34.8697 23.4068 34.8676H123.9C125.63 34.8697 127.289 35.5559 128.512 36.7757C129.736 37.9955 130.424 39.6494 130.426 41.3745V105.142C130.424 106.867 129.736 108.521 128.512 109.741C127.289 110.961 125.63 111.647 123.9 111.649H23.4068Z" fill="#3F3D56"/>
<path d="M130.426 45.4733H16.8812C16.7659 45.4733 16.6552 45.4275 16.5736 45.3462C16.492 45.2648 16.4462 45.1545 16.4462 45.0395C16.4462 44.9244 16.492 44.8141 16.5736 44.7327C16.6552 44.6514 16.7659 44.6057 16.8812 44.6057H130.426C130.541 44.6057 130.652 44.6514 130.734 44.7327C130.815 44.8141 130.861 44.9244 130.861 45.0395C130.861 45.1545 130.815 45.2648 130.734 45.3462C130.652 45.4275 130.541 45.4733 130.426 45.4733Z" fill="#3F3D56"/>
<path d="M24.2769 42.2421C25.4782 42.2421 26.452 41.271 26.452 40.0731C26.452 38.8752 25.4782 37.9041 24.2769 37.9041C23.0755 37.9041 22.1017 38.8752 22.1017 40.0731C22.1017 41.271 23.0755 42.2421 24.2769 42.2421Z" fill="#6C63FF"/>
<path d="M31.6725 42.2421C32.8738 42.2421 33.8477 41.271 33.8477 40.0731C33.8477 38.8752 32.8738 37.9041 31.6725 37.9041C30.4712 37.9041 29.4973 38.8752 29.4973 40.0731C29.4973 41.271 30.4712 42.2421 31.6725 42.2421Z" fill="#6C63FF"/>
<path d="M39.0681 42.2421C40.2694 42.2421 41.2433 41.271 41.2433 40.0731C41.2433 38.8752 40.2694 37.9041 39.0681 37.9041C37.8668 37.9041 36.8929 38.8752 36.8929 40.0731C36.8929 41.271 37.8668 42.2421 39.0681 42.2421Z" fill="#6C63FF"/>
<path d="M55.3242 92.1589C55.2857 92.1589 55.2477 92.1514 55.2122 92.1367C55.1766 92.1221 55.1443 92.1006 55.1172 92.0734C55.09 92.0463 55.0684 92.0141 55.0537 91.9787C55.039 91.9433 55.0314 91.9053 55.0314 91.867C55.0314 88.8233 53.6933 87.1256 51.5344 85.3727C51.5045 85.3486 51.4796 85.3187 51.4613 85.285C51.4429 85.2512 51.4314 85.2142 51.4274 85.176C51.4235 85.1378 51.4271 85.0992 51.4381 85.0624C51.4491 85.0256 51.4673 84.9913 51.4916 84.9616C51.5159 84.9318 51.5459 84.9071 51.5798 84.8889C51.6137 84.8707 51.6509 84.8593 51.6892 84.8555C51.7275 84.8516 51.7662 84.8553 51.8031 84.8664C51.84 84.8775 51.8743 84.8957 51.9041 84.92C54.1963 86.781 55.6169 88.5924 55.6169 91.867C55.617 91.9053 55.6094 91.9433 55.5947 91.9787C55.58 92.0141 55.5584 92.0463 55.5312 92.0734C55.504 92.1006 55.4718 92.1221 55.4362 92.1367C55.4007 92.1514 55.3626 92.1589 55.3242 92.1589Z" fill="black"/>
<path d="M30.2463 92.1589C30.2079 92.1589 30.1698 92.1514 30.1343 92.1367C30.0987 92.1221 30.0665 92.1006 30.0393 92.0734C30.0121 92.0463 29.9905 92.0141 29.9758 91.9787C29.9611 91.9433 29.9535 91.9053 29.9535 91.867C29.9535 88.5924 31.3741 86.781 33.6664 84.92C33.6962 84.8957 33.7305 84.8775 33.7674 84.8664C33.8043 84.8553 33.843 84.8516 33.8813 84.8555C33.9196 84.8593 33.9568 84.8707 33.9907 84.8889C34.0246 84.9071 34.0546 84.9318 34.0789 84.9616C34.1032 84.9913 34.1214 85.0256 34.1324 85.0624C34.1434 85.0992 34.147 85.1378 34.143 85.176C34.1391 85.2142 34.1276 85.2512 34.1092 85.285C34.0909 85.3187 34.066 85.3486 34.0361 85.3727C31.8772 87.1256 30.5391 88.8235 30.5391 91.867C30.5391 91.9053 30.5315 91.9433 30.5168 91.9787C30.5021 92.0141 30.4805 92.0463 30.4533 92.0734C30.4261 92.1006 30.3939 92.1221 30.3583 92.1367C30.3228 92.1514 30.2847 92.1589 30.2463 92.1589Z" fill="black"/>
<path d="M52.8166 72.1538C52.7562 72.1538 52.6972 72.1352 52.6478 72.1005C52.5984 72.0657 52.561 72.0166 52.5407 71.9598C52.5204 71.903 52.5183 71.8413 52.5346 71.7833C52.5509 71.7252 52.5848 71.6736 52.6317 71.6356C54.8509 69.834 55.0314 67.2748 55.0314 64.36C55.0314 64.2826 55.0623 64.2084 55.1172 64.1536C55.1721 64.0989 55.2465 64.0681 55.3242 64.0681C55.4018 64.0681 55.4763 64.0989 55.5312 64.1536C55.5861 64.2084 55.6169 64.2826 55.6169 64.36C55.6169 67.4266 55.4201 70.1247 53.0013 72.0883C52.9492 72.1308 52.8839 72.1539 52.8166 72.1538V72.1538Z" fill="black"/>
<path d="M32.754 71.9976C32.6867 71.9977 32.6214 71.9745 32.5693 71.932C30.1504 69.9683 29.9535 67.3411 29.9535 64.36C29.9535 64.2826 29.9844 64.2084 30.0393 64.1536C30.0942 64.0989 30.1687 64.0681 30.2463 64.0681C30.3239 64.0681 30.3984 64.0989 30.4533 64.1536C30.5082 64.2084 30.5391 64.2826 30.5391 64.36C30.5391 67.2899 30.7157 69.6745 32.939 71.4793C32.9858 71.5174 33.0198 71.569 33.036 71.6271C33.0523 71.6851 33.0502 71.7468 33.0299 71.8036C33.0096 71.8604 32.9722 71.9095 32.9228 71.9442C32.8734 71.979 32.8145 71.9976 32.754 71.9976V71.9976Z" fill="black"/>
<path d="M59.0859 78.4156H52.8165C52.7388 78.4156 52.6644 78.3849 52.6095 78.3301C52.5546 78.2754 52.5237 78.2011 52.5237 78.1237C52.5237 78.0463 52.5546 77.972 52.6095 77.9173C52.6644 77.8625 52.7388 77.8318 52.8165 77.8318H59.0859C59.1636 77.8318 59.2381 77.8625 59.293 77.9173C59.3479 77.972 59.3787 78.0463 59.3787 78.1237C59.3787 78.2011 59.3479 78.2754 59.293 78.3301C59.2381 78.3849 59.1636 78.4156 59.0859 78.4156Z" fill="black"/>
<path d="M32.7542 78.4156H26.4847C26.407 78.4156 26.3326 78.3849 26.2777 78.3301C26.2228 78.2754 26.1919 78.2011 26.1919 78.1237C26.1919 78.0463 26.2228 77.972 26.2777 77.9173C26.3326 77.8625 26.407 77.8318 26.4847 77.8318H32.7542C32.8318 77.8318 32.9063 77.8625 32.9612 77.9173C33.0161 77.972 33.0469 78.0463 33.0469 78.1237C33.0469 78.2011 33.0161 78.2754 32.9612 78.3301C32.9063 78.3849 32.8318 78.4156 32.7542 78.4156Z" fill="black"/>
<path d="M42.7852 90.9086C42.7468 90.9086 42.7087 90.9011 42.6732 90.8864C42.6377 90.8717 42.6054 90.8502 42.5782 90.8231C42.551 90.796 42.5295 90.7638 42.5148 90.7284C42.5 90.693 42.4925 90.655 42.4925 90.6167V70.6117C42.4925 70.5343 42.5233 70.4601 42.5782 70.4053C42.6331 70.3506 42.7076 70.3198 42.7852 70.3198C42.8629 70.3198 42.9374 70.3506 42.9923 70.4053C43.0472 70.4601 43.078 70.5343 43.078 70.6117V90.6167C43.078 90.655 43.0704 90.693 43.0557 90.7284C43.041 90.7638 43.0195 90.796 42.9923 90.8231C42.9651 90.8502 42.9328 90.8717 42.8973 90.8864C42.8618 90.9011 42.8237 90.9086 42.7852 90.9086V90.9086Z" fill="black"/>
<path d="M42.7852 90.9086C40.0481 90.9054 37.424 89.8198 35.4886 87.8899C33.5532 85.96 32.4645 83.3434 32.4614 80.6141V73.1068C32.4614 68.2995 36.4173 65.313 42.7852 65.313C49.4428 65.313 53.1092 68.081 53.1092 73.1068V80.6141C53.1061 83.3434 52.0174 85.9601 50.082 87.89C48.1465 89.8199 45.5224 90.9055 42.7852 90.9086V90.9086ZM42.7852 65.8969C38.0774 65.8969 33.0469 67.7909 33.0469 73.1068V80.6141C33.0462 81.8898 33.2976 83.1531 33.7867 84.3318C34.2757 85.5106 34.993 86.5817 35.8973 87.484C36.8017 88.3862 37.8755 89.102 39.0573 89.5903C40.2392 90.0787 41.506 90.33 42.7853 90.33C44.0646 90.33 45.3314 90.0787 46.5133 89.5903C47.6951 89.102 48.7689 88.3862 49.6733 87.484C50.5777 86.5817 51.2949 85.5106 51.784 84.3318C52.2731 83.1531 52.5244 81.8898 52.5237 80.6141V73.1068C52.5237 66.8336 46.4222 65.8969 42.7852 65.8969V65.8969Z" fill="black"/>
<path d="M36.7848 67.1153C36.7262 67.1153 36.669 67.0978 36.6205 67.065C36.572 67.0322 36.5344 66.9857 36.5128 66.9314C36.3437 66.5094 36.2459 66.0624 36.2234 65.6085C36.2285 63.8779 36.9192 62.2193 38.145 60.9941C39.3708 59.7688 41.0325 59.0762 42.7681 59.0669H42.8017C44.5351 59.0752 46.1951 59.7654 47.4209 60.9875C48.6466 62.2096 49.339 63.8648 49.3475 65.5933C49.3323 66.0155 49.2421 66.4317 49.081 66.8225C49.0511 66.8936 48.9942 66.95 48.9228 66.9794C48.8514 67.0088 48.7712 67.0088 48.6997 66.9795C48.6282 66.9502 48.5713 66.8939 48.5413 66.8229C48.5113 66.7519 48.5106 66.6719 48.5395 66.6004C48.6732 66.2768 48.7486 65.9322 48.7622 65.5824C48.7519 64.0103 48.1201 62.5056 47.0041 61.3951C45.888 60.2845 44.3777 59.6577 42.801 59.6508H42.7688C41.1903 59.6586 39.6788 60.2874 38.5627 61.4004C37.4466 62.5134 36.8162 64.0207 36.8085 65.5947C36.8293 65.9791 36.9131 66.3576 37.0565 66.715C37.0742 66.7593 37.0807 66.8072 37.0755 66.8546C37.0704 66.902 37.0537 66.9474 37.0269 66.9869C37.0001 67.0263 36.964 67.0587 36.9218 67.081C36.8796 67.1034 36.8326 67.1152 36.7848 67.1153H36.7848Z" fill="black"/>
<path d="M72.5181 65.5277H69.0051C68.4616 65.5277 67.9403 65.3124 67.556 64.9292C67.1717 64.546 66.9558 64.0262 66.9558 63.4843C66.9558 62.9424 67.1717 62.4226 67.556 62.0394C67.9403 61.6562 68.4616 61.4409 69.0051 61.4409H72.5181C73.0616 61.4409 73.5829 61.6562 73.9672 62.0394C74.3515 62.4226 74.5674 62.9424 74.5674 63.4843C74.5674 64.0262 74.3515 64.546 73.9672 64.9292C73.5829 65.3124 73.0616 65.5277 72.5181 65.5277V65.5277Z" fill="#CCCCCC"/>
<path d="M96.5239 74.1392H93.0109C92.4674 74.1392 91.9461 73.9239 91.5618 73.5407C91.1775 73.1575 90.9616 72.6378 90.9616 72.0958C90.9616 71.5539 91.1775 71.0341 91.5618 70.6509C91.9461 70.2677 92.4674 70.0524 93.0109 70.0524H96.5239C97.0674 70.0524 97.5887 70.2677 97.973 70.6509C98.3573 71.0341 98.5732 71.5539 98.5732 72.0958C98.5732 72.6378 98.3573 73.1575 97.973 73.5407C97.5887 73.9239 97.0674 74.1392 96.5239 74.1392V74.1392Z" fill="#CCCCCC"/>
<path d="M107.649 74.1392H104.136C103.592 74.1392 103.071 73.9239 102.686 73.5407C102.302 73.1575 102.086 72.6378 102.086 72.0958C102.086 71.5539 102.302 71.0341 102.686 70.6509C103.071 70.2677 103.592 70.0524 104.136 70.0524H107.649C108.192 70.0524 108.713 70.2677 109.098 70.6509C109.482 71.0341 109.698 71.5539 109.698 72.0958C109.698 72.6378 109.482 73.1575 109.098 73.5407C108.713 73.9239 108.192 74.1392 107.649 74.1392V74.1392Z" fill="#CCCCCC"/>
<path d="M118.773 74.1392H115.26C114.717 74.1392 114.195 73.9239 113.811 73.5407C113.427 73.1575 113.211 72.6378 113.211 72.0958C113.211 71.5539 113.427 71.0341 113.811 70.6509C114.195 70.2677 114.717 70.0524 115.26 70.0524H118.773C119.317 70.0524 119.838 70.2677 120.222 70.6509C120.607 71.0341 120.822 71.5539 120.822 72.0958C120.822 72.6378 120.607 73.1575 120.222 73.5407C119.838 73.9239 119.317 74.1392 118.773 74.1392V74.1392Z" fill="#CCCCCC"/>
<path d="M96.8167 65.6737H80.4225C79.879 65.6737 79.3577 65.4584 78.9734 65.0752C78.5891 64.692 78.3732 64.1722 78.3732 63.6303C78.3732 63.0883 78.5891 62.5686 78.9734 62.1854C79.3577 61.8021 79.879 61.5869 80.4225 61.5869H96.8167C97.3602 61.5869 97.8814 61.8021 98.2657 62.1854C98.6501 62.5686 98.866 63.0883 98.866 63.6303C98.866 64.1722 98.6501 64.692 98.2657 65.0752C97.8814 65.4584 97.3602 65.6737 96.8167 65.6737Z" fill="#CCCCCC"/>
<path d="M85.3993 73.8473H69.0051C68.4616 73.8473 67.9403 73.632 67.556 73.2488C67.1717 72.8656 66.9558 72.3459 66.9558 71.8039C66.9558 71.262 67.1717 70.7422 67.556 70.359C67.9403 69.9758 68.4616 69.7605 69.0051 69.7605H85.3993C85.9428 69.7605 86.464 69.9758 86.8483 70.359C87.2327 70.7422 87.4486 71.262 87.4486 71.8039C87.4486 72.3459 87.2327 72.8656 86.8483 73.2488C86.464 73.632 85.9428 73.8473 85.3993 73.8473Z" fill="#CCCCCC"/>
<path d="M117.602 65.6737H105.014C104.47 65.6737 103.949 65.4584 103.565 65.0752C103.18 64.692 102.965 64.1722 102.965 63.6303C102.965 63.0883 103.18 62.5686 103.565 62.1854C103.949 61.8021 104.47 61.5869 105.014 61.5869H117.602C118.146 61.5869 118.667 61.8021 119.051 62.1854C119.436 62.5686 119.651 63.0883 119.651 63.6303C119.651 64.1722 119.436 64.692 119.051 65.0752C118.667 65.4584 118.146 65.6737 117.602 65.6737Z" fill="#CCCCCC"/>
<path d="M72.5181 82.7508H69.0051C68.4616 82.7508 67.9403 82.5355 67.556 82.1523C67.1717 81.769 66.9558 81.2493 66.9558 80.7073C66.9558 80.1654 67.1717 79.6457 67.556 79.2624C67.9403 78.8792 68.4616 78.6639 69.0051 78.6639H72.5181C73.0616 78.6639 73.5829 78.8792 73.9672 79.2624C74.3515 79.6457 74.5674 80.1654 74.5674 80.7073C74.5674 81.2493 74.3515 81.769 73.9672 82.1523C73.5829 82.5355 73.0616 82.7508 72.5181 82.7508V82.7508Z" fill="#CCCCCC"/>
<path d="M96.8167 82.8967H80.4225C79.879 82.8967 79.3577 82.6814 78.9734 82.2982C78.5891 81.915 78.3732 81.3952 78.3732 80.8533C78.3732 80.3113 78.5891 79.7916 78.9734 79.4084C79.3577 79.0252 79.879 78.8099 80.4225 78.8099H96.8167C97.3602 78.8099 97.8814 79.0252 98.2657 79.4084C98.6501 79.7916 98.866 80.3113 98.866 80.8533C98.866 81.3952 98.6501 81.915 98.2657 82.2982C97.8814 82.6814 97.3602 82.8967 96.8167 82.8967V82.8967Z" fill="#CCCCCC"/>
<path d="M117.602 82.8967H105.014C104.47 82.8967 103.949 82.6814 103.565 82.2982C103.18 81.915 102.965 81.3952 102.965 80.8533C102.965 80.3113 103.18 79.7916 103.565 79.4084C103.949 79.0252 104.47 78.8099 105.014 78.8099H117.602C118.146 78.8099 118.667 79.0252 119.051 79.4084C119.436 79.7916 119.651 80.3113 119.651 80.8533C119.651 81.3952 119.436 81.915 119.051 82.2982C118.667 82.6814 118.146 82.8967 117.602 82.8967V82.8967Z" fill="#CCCCCC"/>
<path d="M112.04 89.7567C112.04 89.215 112.257 88.6956 112.641 88.3125C113.025 87.9294 113.546 87.7139 114.089 87.7133H117.602C118.146 87.7133 118.667 87.9286 119.051 88.3118C119.436 88.695 119.651 89.2148 119.651 89.7567C119.651 90.2987 119.436 90.8184 119.051 91.2016C118.667 91.5849 118.146 91.8001 117.602 91.8001H114.089C113.546 91.7995 113.025 91.5841 112.641 91.201C112.257 90.8179 112.04 90.2985 112.04 89.7567V89.7567Z" fill="#CCCCCC"/>
<path d="M87.7413 89.9027C87.7419 89.3609 87.958 88.8415 88.3422 88.4585C88.7264 88.0754 89.2473 87.8599 89.7906 87.8593H106.185C106.728 87.8593 107.25 88.0746 107.634 88.4578C108.018 88.841 108.234 89.3608 108.234 89.9027C108.234 90.4446 108.018 90.9644 107.634 91.3476C107.25 91.7308 106.728 91.9461 106.185 91.9461H89.7906C89.2473 91.9455 88.7264 91.73 88.3422 91.3469C87.958 90.9639 87.7419 90.4445 87.7413 89.9027Z" fill="#CCCCCC"/>
<path d="M66.9558 89.9027C66.9564 89.3609 67.1725 88.8415 67.5567 88.4585C67.9409 88.0754 68.4618 87.8599 69.0051 87.8593H81.5935C82.137 87.8593 82.6582 88.0746 83.0425 88.4578C83.4269 88.841 83.6428 89.3608 83.6428 89.9027C83.6428 90.4446 83.4269 90.9644 83.0425 91.3476C82.6582 91.7308 82.137 91.9461 81.5935 91.9461H69.0051C68.4618 91.9455 67.9409 91.73 67.5567 91.3469C67.1725 90.9639 66.9564 90.4445 66.9558 89.9027Z" fill="#CCCCCC"/>
</g>
</g>
<defs>
<clipPath id="clip0_0_1">
<rect width="200" height="200" fill="white"/>
</clipPath>
<clipPath id="clip1_0_1">
<rect width="202" height="131" fill="white" transform="translate(0 34)"/>
</clipPath>
</defs>
</svg>
