<svg width="200" height="200" viewBox="0 0 200 200" fill="none" xmlns="http://www.w3.org/2000/svg">
<rect width="200" height="200" fill="#E5E5E5"/>
<g clip-path="url(#clip0_0_1)">
<g clip-path="url(#clip1_0_1)">
<path d="M164.939 41.7294C164.939 41.5463 165.012 41.3708 165.141 41.2413C165.27 41.1118 165.446 41.039 165.628 41.0388H170.319C170.501 41.0388 170.677 41.1115 170.806 41.241C170.936 41.3706 171.008 41.5462 171.008 41.7294C171.008 41.9126 170.936 42.0882 170.806 42.2177C170.677 42.3473 170.501 42.42 170.319 42.42H165.628C165.446 42.4198 165.27 42.347 165.141 42.2175C165.012 42.088 164.939 41.9125 164.939 41.7294Z" fill="#E6E6E6"/>
<path d="M172.664 41.7294C172.664 41.5463 172.736 41.3708 172.866 41.2413C172.995 41.1118 173.17 41.039 173.353 41.0388H178.043C178.226 41.0388 178.402 41.1115 178.531 41.241C178.66 41.3706 178.733 41.5462 178.733 41.7294C178.733 41.9126 178.66 42.0882 178.531 42.2177C178.402 42.3473 178.226 42.42 178.043 42.42H173.353C173.17 42.4198 172.995 42.347 172.866 42.2175C172.736 42.088 172.664 41.9125 172.664 41.7294Z" fill="#E6E6E6"/>
<path d="M169.767 53.956C170.576 53.956 171.232 53.2846 171.232 52.4565C171.232 51.6283 170.576 50.9569 169.767 50.9569C168.958 50.9569 168.302 51.6283 168.302 52.4565C168.302 53.2846 168.958 53.956 169.767 53.956Z" fill="#3F3D56"/>
<path d="M174.827 53.956C175.636 53.956 176.292 53.2846 176.292 52.4565C176.292 51.6283 175.636 50.9569 174.827 50.9569C174.018 50.9569 173.362 51.6283 173.362 52.4565C173.362 53.2846 174.018 53.956 174.827 53.956Z" fill="#3F3D56"/>
<path d="M179.888 53.956C180.697 53.956 181.353 53.2846 181.353 52.4565C181.353 51.6283 180.697 50.9569 179.888 50.9569C179.079 50.9569 178.423 51.6283 178.423 52.4565C178.423 53.2846 179.079 53.956 179.888 53.956Z" fill="#3F3D56"/>
<path d="M126.711 102.193H91.7943C91.3003 102.194 90.8269 102.391 90.4781 102.741C90.1293 103.091 89.9336 103.566 89.9341 104.06V159.291H128.576V104.06C128.576 103.815 128.528 103.572 128.434 103.346C128.34 103.119 128.203 102.913 128.03 102.74C127.856 102.566 127.651 102.429 127.424 102.335C127.198 102.241 126.956 102.193 126.711 102.193ZM109.37 133.574C108.278 133.569 107.232 133.132 106.46 132.359C105.688 131.586 105.252 130.539 105.247 129.446V123.075C105.248 121.981 105.683 120.932 106.456 120.158C107.229 119.385 108.277 118.95 109.37 118.95C110.463 118.95 111.511 119.385 112.284 120.158C113.057 120.932 113.492 121.981 113.493 123.075V129.446C113.488 130.539 113.052 131.586 112.28 132.359C111.508 133.132 110.462 133.569 109.37 133.574V133.574Z" fill="#E6E6E6"/>
<path d="M89.8143 157.524V162.853C89.8148 163.129 89.9246 163.393 90.1196 163.589C90.3146 163.784 90.5789 163.894 90.8546 163.894H127.655C127.931 163.893 128.194 163.783 128.389 163.588C128.584 163.393 128.694 163.129 128.695 162.853V157.524L89.8143 157.524Z" fill="#CCCCCC"/>
<path d="M184.529 16H35.2753C33.993 16.002 32.7637 16.513 31.857 17.4209C30.9503 18.3289 30.44 19.5597 30.4379 20.8437V121.694C30.4391 122.978 30.9492 124.209 31.8561 125.117C32.763 126.025 33.9927 126.536 35.2753 126.537H184.529C185.811 126.536 187.041 126.025 187.948 125.117C188.855 124.209 189.365 122.978 189.366 121.694V20.8437C189.364 19.5597 188.854 18.3289 187.947 17.4209C187.04 16.513 185.811 16.002 184.529 16Z" fill="#E6E6E6"/>
<path d="M183.283 19.4986H36.5223C35.8357 19.5 35.1777 19.7742 34.6927 20.2608C34.2077 20.7475 33.9353 21.4069 33.9353 22.0944V120.444C33.9364 121.131 34.2094 121.789 34.6943 122.275C35.1792 122.76 35.8365 123.034 36.5223 123.035H183.283C183.969 123.034 184.626 122.76 185.111 122.275C185.596 121.789 185.869 121.131 185.87 120.444V22.0944C185.87 21.4069 185.598 20.7475 185.113 20.2608C184.628 19.7742 183.97 19.5 183.283 19.4986Z" fill="white"/>
<path d="M185.87 22.0944V120.444C185.869 121.131 185.596 121.789 185.111 122.275C184.626 122.76 183.969 123.034 183.283 123.035H131.532C125.807 117.719 121.11 111.391 117.677 104.369C117.451 103.916 117.236 103.459 117.032 102.995C113.904 96.1989 112.01 88.8988 111.438 81.4372C111.401 80.9795 111.368 80.5217 111.347 80.0585C111.277 78.8737 111.245 77.6728 111.245 76.4664C111.234 68.4433 112.747 60.4913 115.703 53.0341C115.881 52.5709 116.069 52.1131 116.263 51.6554C122.211 37.66 132.961 26.2549 146.57 19.4986H183.283C183.97 19.5 184.628 19.7742 185.113 20.2608C185.598 20.7475 185.87 21.4069 185.87 22.0944Z" fill="#6C63FF"/>
<path d="M175.906 33.049H38.5822C38.4393 33.046 38.3034 32.987 38.2035 32.8848C38.1035 32.7826 38.0476 32.6452 38.0476 32.5022C38.0476 32.3591 38.1035 32.2218 38.2035 32.1196C38.3034 32.0174 38.4393 31.9584 38.5822 31.9554H175.906C176.048 31.9584 176.184 32.0174 176.284 32.1196C176.384 32.2218 176.44 32.3591 176.44 32.5022C176.44 32.6452 176.384 32.7826 176.284 32.8848C176.184 32.987 176.048 33.046 175.906 33.049V33.049Z" fill="#CACACA"/>
<path d="M47.9299 29.1634C49.6975 29.1634 51.1303 27.6967 51.1303 25.8874C51.1303 24.0781 49.6975 22.6114 47.9299 22.6114C46.1624 22.6114 44.7296 24.0781 44.7296 25.8874C44.7296 27.6967 46.1624 29.1634 47.9299 29.1634Z" fill="#3F3D56"/>
<path d="M58.9858 29.1634C60.7533 29.1634 62.1862 27.6967 62.1862 25.8874C62.1862 24.0781 60.7533 22.6114 58.9858 22.6114C57.2183 22.6114 55.7854 24.0781 55.7854 25.8874C55.7854 27.6967 57.2183 29.1634 58.9858 29.1634Z" fill="#3F3D56"/>
<path d="M70.0417 29.1634C71.8092 29.1634 73.2421 27.6967 73.2421 25.8874C73.2421 24.0781 71.8092 22.6114 70.0417 22.6114C68.2742 22.6114 66.8413 24.0781 66.8413 25.8874C66.8413 27.6967 68.2742 29.1634 70.0417 29.1634Z" fill="#3F3D56"/>
<path d="M169.249 23.4234H161.395C161.24 23.4265 161.092 23.4906 160.983 23.6019C160.874 23.7132 160.812 23.8629 160.812 24.0188C160.812 24.1747 160.874 24.3244 160.983 24.4358C161.092 24.5471 161.24 24.6112 161.395 24.6143H169.249C169.405 24.6112 169.553 24.5471 169.662 24.4358C169.771 24.3244 169.832 24.1747 169.832 24.0188C169.832 23.8629 169.771 23.7132 169.662 23.6019C169.553 23.4906 169.405 23.4265 169.249 23.4234V23.4234Z" fill="#3F3D56"/>
<path d="M169.249 25.6585H161.395C161.24 25.6616 161.092 25.7257 160.983 25.837C160.874 25.9483 160.812 26.098 160.812 26.2539C160.812 26.4098 160.874 26.5595 160.983 26.6708C161.092 26.7822 161.24 26.8463 161.395 26.8493H169.249C169.405 26.8463 169.553 26.7822 169.662 26.6708C169.771 26.5595 169.832 26.4098 169.832 26.2539C169.832 26.098 169.771 25.9483 169.662 25.837C169.553 25.7257 169.405 25.6616 169.249 25.6585V25.6585Z" fill="#3F3D56"/>
<path d="M169.249 27.8906H161.395C161.24 27.8937 161.092 27.9578 160.983 28.0691C160.874 28.1805 160.812 28.3302 160.812 28.4861C160.812 28.642 160.874 28.7917 160.983 28.903C161.092 29.0143 161.24 29.0784 161.395 29.0815H169.249C169.405 29.0784 169.553 29.0143 169.662 28.903C169.771 28.7917 169.832 28.642 169.832 28.4861C169.832 28.3302 169.771 28.1805 169.662 28.0691C169.553 27.9578 169.405 27.8937 169.249 27.8906V27.8906Z" fill="#3F3D56"/>
<path d="M80.6289 64.9947H61.4254C60.701 64.9947 60.1138 65.5827 60.1138 66.308V68.3549C60.1138 69.0802 60.701 69.6682 61.4254 69.6682H80.6289C81.3533 69.6682 81.9405 69.0802 81.9405 68.3549V66.308C81.9405 65.5827 81.3533 64.9947 80.6289 64.9947Z" fill="#6C63FF"/>
<path d="M91.7139 74.3417H50.3404C49.6161 74.3417 49.0288 74.9297 49.0288 75.655V77.7019C49.0288 78.4272 49.6161 79.0152 50.3404 79.0152H91.7139C92.4383 79.0152 93.0255 78.4272 93.0255 77.7019V75.655C93.0255 74.9297 92.4383 74.3417 91.7139 74.3417Z" fill="#E6E6E6"/>
<path d="M91.7139 83.6888H50.3404C49.6161 83.6888 49.0288 84.2768 49.0288 85.0021V87.049C49.0288 87.7743 49.6161 88.3623 50.3404 88.3623H91.7139C92.4383 88.3623 93.0255 87.7743 93.0255 87.049V85.0021C93.0255 84.2768 92.4383 83.6888 91.7139 83.6888Z" fill="#E6E6E6"/>
<path d="M52.6199 117.396C52.6231 119.321 52.2806 121.231 51.6087 123.035H36.5223C35.8365 123.034 35.1792 122.76 34.6943 122.275C34.2094 121.789 33.9364 121.131 33.9353 120.444V101.444C34.7782 101.308 35.6307 101.239 36.4846 101.24C38.6036 101.24 40.7018 101.657 42.6595 102.469C44.6171 103.281 46.3959 104.471 47.8942 105.972C49.3926 107.472 50.5811 109.253 51.3919 111.213C52.2027 113.174 52.62 115.275 52.6199 117.396V117.396Z" fill="#6C63FF"/>
<path opacity="0.2" d="M186.004 53.0341V51.6554H162.926V35.6767H161.554V51.6554H135.103V35.6767H133.732V51.6554H116.263C116.069 52.1132 115.881 52.571 115.703 53.0341H133.732V80.0586H111.347C111.368 80.5217 111.401 80.9795 111.438 81.4373H133.732V102.996H117.032C117.236 103.459 117.451 103.916 117.677 104.369H133.732V122.491H135.103V104.369H161.554V122.491H162.926V104.369H186.004V102.995H162.926V102.995C162.926 100.164 163.483 97.3611 164.565 94.7455C165.647 92.1299 167.232 89.7534 169.232 87.7515C171.231 85.7497 173.604 84.1617 176.216 83.0783C178.829 81.9949 181.628 81.4373 184.456 81.4373H186.004V80.0586H162.926V53.0341H186.004ZM161.554 102.995H135.103V81.4373H161.554V102.995ZM161.554 80.0586H135.103V79.52C135.103 72.4955 137.89 65.7587 142.85 60.7917C147.811 55.8246 154.539 53.0341 161.554 53.0341H161.554V80.0586Z" fill="black"/>
<path d="M167.423 112.831C167.128 112.845 166.837 112.768 166.588 112.61C166.339 112.452 166.144 112.221 166.031 111.949C165.917 111.677 165.889 111.376 165.952 111.088C166.015 110.799 166.165 110.537 166.381 110.337C166.417 110.193 166.443 110.089 166.479 109.945C166.466 109.914 166.453 109.882 166.44 109.851C165.117 106.692 160.633 106.713 159.321 109.877C158.156 112.686 156.674 115.499 156.309 118.468C156.148 119.78 156.216 121.111 156.509 122.4C153.774 116.426 152.354 109.933 152.345 103.362C152.344 101.713 152.436 100.065 152.619 98.4259C152.77 97.0824 152.98 95.7484 153.249 94.424C154.715 87.2381 157.862 80.5028 162.432 74.7713C164.644 73.5627 166.433 71.7043 167.558 69.4464C167.965 68.6348 168.253 67.7683 168.413 66.8741C168.163 66.9068 167.91 66.9273 167.66 66.9437C167.582 66.9478 167.501 66.9519 167.423 66.956L167.394 66.9573C167.119 66.9696 166.847 66.9023 166.61 66.7635C166.374 66.6246 166.182 66.4202 166.058 66.1747C165.935 65.9293 165.885 65.6533 165.914 65.38C165.943 65.1067 166.051 64.8477 166.224 64.6343C166.332 64.5015 166.44 64.3688 166.547 64.2362C166.711 64.0314 166.879 63.8307 167.042 63.6259C167.061 63.6065 167.079 63.5859 167.096 63.5644C167.284 63.331 167.472 63.1016 167.66 62.8681C167.317 62.3343 166.855 61.8871 166.31 61.5615C164.424 60.4556 161.823 61.2215 160.461 62.9296C159.094 64.6376 158.837 67.0338 159.311 69.1678C159.716 70.9947 160.6 72.67 161.594 74.2633C161.491 74.3944 161.385 74.5214 161.283 74.6525C159.413 77.0595 157.784 79.6442 156.418 82.3695C156.75 79.3164 156.354 76.2279 155.261 73.3581C154.154 70.6836 152.079 68.4311 150.251 66.119C148.056 63.3418 143.555 64.5539 143.168 68.0744C143.164 68.1085 143.161 68.1425 143.157 68.1766C143.429 68.3299 143.694 68.4927 143.954 68.6649C144.281 68.8834 144.534 69.1956 144.68 69.5605C144.827 69.9255 144.86 70.3263 144.775 70.7103C144.69 71.0943 144.491 71.4436 144.204 71.7126C143.918 71.9815 143.556 72.1574 143.168 72.2173L143.129 72.2235C143.225 73.2031 143.396 74.1739 143.64 75.1276C144.346 77.7899 145.594 80.2775 147.305 82.4343C149.016 84.5911 151.154 86.3707 153.584 87.6615C153.744 87.7434 153.899 87.8253 154.059 87.9032C152.686 91.7973 151.826 95.8536 151.498 99.9701C151.313 102.399 151.323 104.838 151.531 107.265L151.518 107.179C150.995 104.481 149.557 102.046 147.448 100.285C144.316 97.7091 139.891 96.7603 136.512 94.6894C134.885 93.6925 132.801 94.9807 133.084 96.8691C133.089 96.8992 133.094 96.9294 133.098 96.9595C133.602 97.165 134.092 97.4016 134.567 97.6681C134.838 97.8215 135.104 97.9842 135.364 98.1564C135.691 98.3749 135.944 98.6871 136.09 99.0521C136.236 99.417 136.269 99.8178 136.184 100.202C136.099 100.586 135.901 100.935 135.614 101.204C135.327 101.473 134.966 101.649 134.578 101.709L134.538 101.715C134.51 101.719 134.485 101.723 134.456 101.727C135.317 103.785 136.525 105.679 138.027 107.327C139.883 109.321 142.127 110.914 144.62 112.01C147.112 113.105 149.803 113.679 152.525 113.696H152.529C153.268 116.911 154.339 120.041 155.724 123.035H167.137C167.177 122.908 167.214 122.777 167.251 122.65C166.195 122.716 165.134 122.653 164.093 122.461C164.94 121.421 165.787 120.372 166.633 119.332C166.652 119.313 166.67 119.292 166.687 119.271C167.116 118.738 167.55 118.21 167.979 117.677L167.979 117.677C168.002 116.044 167.815 114.416 167.423 112.832L167.423 112.831ZM154.353 87.088L154.359 87.0799L154.353 87.0962V87.088ZM151.825 109.907L151.727 109.686C151.731 109.526 151.731 109.366 151.727 109.203C151.727 109.158 151.719 109.112 151.719 109.067C151.756 109.35 151.788 109.633 151.829 109.915L151.825 109.907Z" fill="#2F2E41"/>
<path d="M65.7947 86.1038V70.7449C65.7947 68.3873 64.8594 66.1263 63.1945 64.4592C61.5296 62.7922 59.2716 61.8556 56.9171 61.8556H24.42C22.0655 61.8556 19.8075 62.7922 18.1426 64.4592C16.4777 66.1263 15.5424 68.3873 15.5424 70.7449V155.005C15.5424 157.363 16.4777 159.624 18.1426 161.291C19.8075 162.958 22.0655 163.894 24.42 163.894H56.9171C58.0829 163.894 59.2373 163.664 60.3144 163.218C61.3915 162.771 62.3701 162.116 63.1945 161.291C64.0189 160.465 64.6728 159.485 65.1189 158.407C65.5651 157.328 65.7947 156.172 65.7947 155.005V97.0366C65.9432 97.0366 66.0856 96.9775 66.1906 96.8724C66.2956 96.7672 66.3546 96.6246 66.3546 96.4759V86.6645C66.3546 86.5158 66.2956 86.3732 66.1906 86.2681C66.0856 86.1629 65.9432 86.1038 65.7947 86.1038V86.1038Z" fill="#E6E6E6"/>
<path d="M63.9054 70.8059V154.944C63.9056 156.692 63.2171 158.369 61.9894 159.612C60.7618 160.854 59.0942 161.561 57.3489 161.579C57.3248 161.582 57.3006 161.583 57.2764 161.582H24.6211C22.863 161.582 21.177 160.883 19.9339 159.638C18.6907 158.393 17.9923 156.705 17.9921 154.944V70.8059C17.9923 69.0455 18.6907 67.3573 19.9339 66.1125C21.177 64.8677 22.863 64.1684 24.6211 64.1682H28.584C28.3892 64.6472 28.3149 65.1669 28.3678 65.6814C28.4206 66.1959 28.599 66.6896 28.8871 67.1189C29.1752 67.5482 29.5643 67.9 30.0201 68.1434C30.4759 68.3868 30.9844 68.5143 31.501 68.5147H50.1184C50.6345 68.5132 51.1424 68.385 51.5974 68.1413C52.0525 67.8975 52.4409 67.5457 52.7286 67.1166C53.0162 66.6876 53.1944 66.1944 53.2473 65.6803C53.3003 65.1662 53.2265 64.647 53.0323 64.1682H57.2764C59.0344 64.1684 60.7204 64.8677 61.9636 66.1125C63.2067 67.3573 63.9052 69.0455 63.9054 70.8059Z" fill="white"/>
<path d="M57.4305 158.985C57.4305 159.857 57.4033 160.721 57.3489 161.579C57.3248 161.582 57.3006 161.583 57.2763 161.582H24.6211C22.863 161.582 21.177 160.883 19.9339 159.638C18.6907 158.393 17.9923 156.705 17.9921 154.944V117.449C28.6317 117.986 38.6584 122.596 45.9987 130.327C53.3391 138.058 57.4317 148.318 57.4305 158.985V158.985Z" fill="#F2F2F2"/>
<path d="M15.722 94.6962C15.5216 94.696 15.3296 94.6162 15.1879 94.4743C15.0462 94.3324 14.9665 94.1401 14.9663 93.9395V88.794C14.9663 88.5933 15.0459 88.4008 15.1876 88.2589C15.3294 88.117 15.5216 88.0373 15.722 88.0373C15.9224 88.0373 16.1146 88.117 16.2564 88.2589C16.3981 88.4008 16.4777 88.5933 16.4777 88.794V93.9395C16.4775 94.1401 16.3978 94.3324 16.2561 94.4743C16.1144 94.6162 15.9224 94.696 15.722 94.6962Z" fill="#E6E6E6"/>
<path d="M44.9583 90.5877H36.9392C36.2148 90.5877 35.6276 91.1757 35.6276 91.901V93.9479C35.6276 94.6732 36.2148 95.2612 36.9392 95.2612H44.9583C45.6827 95.2612 46.2699 94.6732 46.2699 93.9479V91.901C46.2699 91.1757 45.6827 90.5877 44.9583 90.5877Z" fill="#6C63FF"/>
<path d="M56.0433 99.9347H25.8542C25.1298 99.9347 24.5426 100.523 24.5426 101.248V103.295C24.5426 104.02 25.1298 104.608 25.8542 104.608H56.0433C56.7677 104.608 57.3549 104.02 57.3549 103.295V101.248C57.3549 100.523 56.7677 99.9347 56.0433 99.9347Z" fill="#E6E6E6"/>
<path d="M56.0433 109.282H25.8542C25.1298 109.282 24.5426 109.87 24.5426 110.595V112.642C24.5426 113.367 25.1298 113.955 25.8542 113.955H56.0433C56.7677 113.955 57.3549 113.367 57.3549 112.642V110.595C57.3549 109.87 56.7677 109.282 56.0433 109.282Z" fill="#E6E6E6"/>
<path d="M48.7794 156.794C48.6412 156.8 48.5045 156.764 48.3876 156.69C48.2708 156.616 48.1795 156.508 48.1262 156.38C48.0728 156.252 48.06 156.111 48.0894 155.976C48.1188 155.84 48.189 155.717 48.2906 155.623L48.3368 155.439C48.3307 155.425 48.3246 155.41 48.3184 155.395C48.1793 155.066 47.946 154.786 47.6481 154.589C47.3502 154.392 47.0008 154.287 46.6438 154.289C46.2868 154.29 45.9382 154.397 45.6417 154.596C45.3453 154.795 45.1141 155.078 44.9774 155.408C44.431 156.726 43.7353 158.046 43.564 159.439C43.4885 160.055 43.5204 160.679 43.658 161.284C42.3746 158.481 41.7082 155.434 41.7039 152.35C41.7036 151.576 41.7465 150.803 41.8325 150.034C41.9035 149.403 42.0021 148.777 42.1281 148.156C42.816 144.784 44.2929 141.623 46.4376 138.934C47.4756 138.366 48.3151 137.494 48.8429 136.435C49.0341 136.054 49.1692 135.647 49.2441 135.228C49.127 135.243 49.008 135.253 48.8909 135.26C48.8544 135.262 48.816 135.264 48.7795 135.266L48.7658 135.267C48.6371 135.273 48.5095 135.241 48.3983 135.176C48.2871 135.111 48.1971 135.015 48.1391 134.9C48.0811 134.784 48.0576 134.655 48.0714 134.527C48.0853 134.398 48.1358 134.277 48.217 134.177C48.2675 134.114 48.3181 134.052 48.3687 133.99C48.4455 133.894 48.5242 133.8 48.601 133.703C48.6099 133.694 48.6182 133.685 48.626 133.675C48.7143 133.565 48.8026 133.457 48.8909 133.348C48.7297 133.097 48.5129 132.888 48.2574 132.735C47.3725 132.216 46.1516 132.575 45.5124 133.377C44.8712 134.178 44.7503 135.303 44.973 136.304C45.1919 137.156 45.5542 137.965 46.0441 138.695C45.9961 138.757 45.9462 138.816 45.8982 138.878C45.0209 140.007 44.2563 141.22 43.6154 142.499C43.7712 141.066 43.5852 139.617 43.0726 138.27C42.553 137.015 41.5791 135.958 40.7215 134.873C40.4947 134.582 40.1867 134.364 39.8364 134.248C39.4861 134.132 39.1092 134.122 38.7535 134.221C38.3977 134.319 38.0791 134.52 37.8377 134.8C37.5964 135.079 37.4432 135.424 37.3976 135.791C37.3958 135.807 37.3941 135.823 37.3924 135.839C37.5198 135.911 37.6445 135.987 37.7665 136.068C37.9198 136.171 38.0385 136.317 38.1072 136.488C38.1759 136.66 38.1913 136.848 38.1515 137.028C38.1116 137.208 38.0183 137.372 37.8838 137.498C37.7493 137.624 37.5798 137.707 37.3977 137.735L37.379 137.738C37.4244 138.198 37.5046 138.653 37.619 139.101C37.9503 140.35 38.5359 141.517 39.3389 142.53C40.1419 143.542 41.1451 144.377 42.2855 144.983C42.3604 145.021 42.4333 145.059 42.5082 145.096C41.8642 146.923 41.4603 148.827 41.3065 150.759C41.2195 151.898 41.2246 153.043 41.3219 154.182L41.3161 154.142C41.0704 152.875 40.3958 151.733 39.4061 150.907C37.9363 149.698 35.8596 149.252 34.2739 148.281C34.1054 148.172 33.9094 148.114 33.7092 148.114C33.5089 148.113 33.3127 148.17 33.1436 148.278C32.9746 148.385 32.8397 148.539 32.7551 148.721C32.6704 148.902 32.6394 149.105 32.6657 149.303L32.6722 149.346C32.9085 149.442 33.1387 149.553 33.3613 149.678C33.4887 149.75 33.6134 149.827 33.7354 149.907C33.8886 150.01 34.0074 150.156 34.0761 150.328C34.1448 150.499 34.1602 150.687 34.1203 150.867C34.0804 151.048 33.9871 151.211 33.8526 151.338C33.7181 151.464 33.5487 151.546 33.3665 151.575L33.3478 151.577C33.3344 151.579 33.3229 151.581 33.3094 151.583C33.7133 152.549 34.2802 153.438 34.9852 154.211C35.8562 155.147 36.9089 155.894 38.0787 156.408C39.2485 156.922 40.5109 157.192 41.7883 157.2H41.7903C42.137 158.709 42.6395 160.177 43.2895 161.582H48.6452C48.6644 161.523 48.6816 161.461 48.6989 161.401C48.2032 161.433 47.7055 161.403 47.217 161.313C47.6143 160.825 48.0117 160.333 48.409 159.844C48.4179 159.835 48.4262 159.826 48.434 159.816C48.6356 159.566 48.839 159.318 49.0406 159.068L49.0407 159.068C49.0515 158.302 48.9637 157.538 48.7795 156.794L48.7794 156.794ZM42.6464 144.713L42.6492 144.71L42.6464 144.717V144.713ZM41.4601 155.422L41.414 155.318C41.4159 155.243 41.4159 155.168 41.414 155.091C41.414 155.07 41.4102 155.049 41.4102 155.028C41.4275 155.16 41.4428 155.293 41.462 155.426L41.4601 155.422Z" fill="#CCCCCC"/>
<path d="M15.5709 84.7078C15.3705 84.7076 15.1784 84.6278 15.0368 84.4859C14.8951 84.3441 14.8154 84.1517 14.8152 83.9511V78.8056C14.8152 78.6049 14.8948 78.4124 15.0365 78.2705C15.1782 78.1286 15.3704 78.0489 15.5709 78.0489C15.7713 78.0489 15.9635 78.1286 16.1052 78.2705C16.2469 78.4124 16.3266 78.6049 16.3266 78.8056V83.9511C16.3263 84.1517 16.2466 84.3441 16.105 84.4859C15.9633 84.6278 15.7712 84.7076 15.5709 84.7078V84.7078Z" fill="#E6E6E6"/>
<path d="M35.6724 65.0337C35.6727 64.8331 35.7524 64.6408 35.894 64.4989C36.0357 64.3571 36.2278 64.2773 36.4281 64.277H41.5669C41.7673 64.277 41.9595 64.3568 42.1012 64.4987C42.243 64.6406 42.3226 64.833 42.3226 65.0337C42.3226 65.2344 42.243 65.4269 42.1012 65.5688C41.9595 65.7107 41.7673 65.7904 41.5669 65.7904H36.4281C36.2278 65.7902 36.0357 65.7104 35.894 65.5685C35.7524 65.4267 35.6727 65.2344 35.6724 65.0337Z" fill="white"/>
<path d="M15.722 103.474C15.5216 103.474 15.3296 103.394 15.1879 103.252C15.0462 103.11 14.9665 102.918 14.9663 102.717V97.5716C14.9663 97.3709 15.0459 97.1785 15.1876 97.0366C15.3294 96.8947 15.5216 96.8149 15.722 96.8149C15.9224 96.8149 16.1146 96.8947 16.2564 97.0366C16.3981 97.1785 16.4777 97.3709 16.4777 97.5716V102.717C16.4775 102.918 16.3978 103.11 16.2561 103.252C16.1144 103.394 15.9224 103.474 15.722 103.474V103.474Z" fill="#E6E6E6"/>
<path d="M44.4385 65.7904C44.8559 65.7904 45.1942 65.4516 45.1942 65.0337C45.1942 64.6158 44.8559 64.277 44.4385 64.277C44.0212 64.277 43.6828 64.6158 43.6828 65.0337C43.6828 65.4516 44.0212 65.7904 44.4385 65.7904Z" fill="white"/>
<path d="M245.64 163.892L-13.6401 163.985C-13.7354 163.985 -13.8266 163.947 -13.8939 163.879C-13.9612 163.812 -13.999 163.72 -13.999 163.625C-13.999 163.53 -13.9612 163.438 -13.8939 163.371C-13.8266 163.303 -13.7354 163.265 -13.6401 163.265L245.64 163.172C245.736 163.172 245.827 163.21 245.895 163.277C245.962 163.345 246 163.436 246 163.532C246 163.628 245.962 163.719 245.895 163.787C245.827 163.854 245.736 163.892 245.64 163.892Z" fill="#CACACA"/>
<path d="M96.868 84.4374L95.5042 84.7301C95.4953 84.1589 95.4242 83.5903 95.2922 83.0345C95.1682 83.7151 94.9069 84.3633 94.5243 84.9395L86.7024 86.6121L79.1929 78.6766C79.1814 74.7089 81.3818 71.6936 85.3272 71.6936C85.565 71.6936 85.8114 71.7051 86.0606 71.728C88.1922 71.3708 90.3791 71.8557 92.1609 73.0806C93.9426 74.3054 95.1802 76.1748 95.6131 78.295C98.4095 81.0521 97.3952 82.673 96.868 84.4374Z" fill="#2F2E41"/>
<path d="M100.714 177.24H103.551L104.901 166.282L100.713 166.282L100.714 177.24Z" fill="#FFB6B6"/>
<path d="M100.01 175.838L104.495 175.57V177.495L108.759 180.443C108.97 180.589 109.128 180.798 109.212 181.041C109.295 181.283 109.299 181.545 109.223 181.79C109.147 182.035 108.995 182.249 108.788 182.401C108.582 182.552 108.333 182.634 108.077 182.634H102.737L101.817 180.731L101.458 182.634H99.4444L100.01 175.838Z" fill="#2F2E41"/>
<path d="M67.4737 174.148L69.9415 175.549L76.5161 166.686L72.8739 164.616L67.4737 174.148Z" fill="#FFB6B6"/>
<path d="M67.5524 172.581L71.5854 174.564L70.6371 176.238L72.8925 180.909C73.0039 181.14 73.0388 181.401 72.992 181.652C72.9451 181.904 72.8191 182.135 72.6323 182.31C72.4454 182.485 72.2076 182.596 71.9534 182.626C71.6993 182.656 71.4421 182.604 71.2195 182.478L66.5753 179.839L66.7128 177.729L65.4622 179.207L63.7112 178.212L67.5524 172.581Z" fill="#2F2E41"/>
<path d="M111.201 86.3573C110.837 86.4099 110.49 86.5418 110.183 86.7435C109.876 86.9452 109.616 87.2119 109.423 87.5249C109.23 87.8378 109.108 88.1893 109.065 88.5546C109.022 88.92 109.06 89.2902 109.176 89.6394L104.834 93.4022L106.474 96.6018L112.531 91.2017C113.104 90.9684 113.571 90.5327 113.845 89.9772C114.118 89.4218 114.179 88.7852 114.015 88.188C113.851 87.5909 113.474 87.0747 112.955 86.7373C112.437 86.3998 111.813 86.2646 111.201 86.3573H111.201Z" fill="#FFB6B6"/>
<path d="M106.829 99.2968C105.381 101.493 102.135 103.614 97.3176 105.495C97.0519 105.601 96.767 105.652 96.4809 105.642C96.1948 105.633 95.9138 105.564 95.6556 105.44C93.8377 104.612 92.6726 101.532 92.5632 101.233L89.0423 96.4776C88.9798 96.4083 87.3333 94.5373 87.5216 92.6978C87.5641 92.3124 87.6893 91.9407 87.8888 91.6083C88.0882 91.2759 88.3572 90.9907 88.6772 90.7722C91.3425 88.7938 97.3159 95.665 98.091 96.5786L101.989 94.2002L104.83 92.9312L107.123 90.1372L110.352 93.4426L107.448 98.0684C107.293 98.5019 107.085 98.9145 106.829 99.2968V99.2968Z" fill="#2F2E41"/>
<path d="M96.7031 107.723C96.7031 107.723 105.046 121.029 103.534 122.543C102.023 124.056 99.6708 124.453 99.6708 124.453L94.4658 117.7L96.7031 107.723Z" fill="#2F2E41"/>
<path d="M89.327 89.5508L93.2589 92.2141C95.0864 93.452 96.4609 95.2528 97.174 97.3436C97.887 99.4343 97.8998 101.701 97.2102 103.799L96.1033 107.168L89.327 89.5508Z" fill="#2F2E41"/>
<path d="M82.3745 125.872L81.8489 127.706L80.0551 149.813L71.0938 166.536L75.3707 169.595L87.591 153.688L92.4244 137.893L100.015 172.858L105.718 172.45L101.757 123.972L94.2414 110.326L82.3745 125.872Z" fill="#2F2E41"/>
<path d="M88.6584 90.2205L94.1307 94.6987C95.3317 95.6815 96.1965 97.015 96.6047 98.5134V98.5134C96.79 99.1938 96.878 99.8971 96.8662 100.602L96.7031 110.326L101.721 123.753C101.721 123.753 88.1179 128.899 86.3042 124.359C84.4906 119.819 88.6584 90.2205 88.6584 90.2205Z" fill="#6C63FF"/>
<path d="M90.2951 126.716C83.4998 126.716 81.8437 126.767 81.7365 126.745L81.629 126.723V122.631L83.2814 115.278C83.0883 112.996 82.6359 109.986 82.6769 107.409C82.825 98.0938 82.3677 88.9947 82.3677 88.9947L85.9642 85.6705L87.5981 86.7352L90.6289 89.7698C94.1518 98.4511 96.9472 106.624 96.9648 107.149L97.1863 116.186L96.2795 119.819C92.1771 122.718 95.9254 126.716 90.2951 126.716Z" fill="#2F2E41"/>
<path opacity="0.2" d="M83.892 97.1096L83.0659 102.273L88.6583 104.582L83.892 97.1096Z" fill="black"/>
<path d="M89.5257 84.7019C92.5497 84.7019 95.0011 82.2473 95.0011 79.2193C95.0011 76.1914 92.5497 73.7367 89.5257 73.7367C86.5018 73.7367 84.0504 76.1914 84.0504 79.2193C84.0504 82.2473 86.5018 84.7019 89.5257 84.7019Z" fill="#FFB6B6"/>
<path opacity="0.2" d="M80.3512 107.037C81.8085 108.727 83.7851 109.884 85.9704 110.326C88.1558 110.768 90.4259 110.471 92.4241 109.481L93.6158 108.89L80.3512 107.037Z" fill="black"/>
<path d="M99.4043 105.775C99.16 105.501 98.8586 105.283 98.5212 105.137C98.1838 104.992 97.8187 104.922 97.4515 104.933C97.0843 104.944 96.724 105.036 96.396 105.202C96.068 105.367 95.7802 105.603 95.553 105.892L90.0246 104.338L88.2621 107.471L96.1 109.556C96.6102 109.906 97.2309 110.057 97.8445 109.979C98.4581 109.902 99.022 109.601 99.4293 109.135C99.8366 108.669 100.059 108.07 100.054 107.451C100.05 106.831 99.8184 106.235 99.4043 105.775H99.4043Z" fill="#FFB6B6"/>
<path d="M86.2117 109.253C83.5833 109.253 80.0269 107.71 75.8051 104.721C75.5698 104.558 75.3709 104.348 75.221 104.104C75.0712 103.859 74.9736 103.587 74.9345 103.303C74.6231 101.327 76.5475 98.6565 76.7362 98.4005L78.7592 92.8377C78.7824 92.7473 79.4344 90.3405 81.0711 89.4842C81.4157 89.3072 81.7945 89.207 82.1814 89.1905C82.5683 89.174 82.9542 89.2416 83.3126 89.3885C86.4301 90.5253 83.9958 99.3029 83.6616 100.454L87.792 102.401L90.415 104.075L94.007 104.451L93.0318 108.971L87.5765 109.093C87.1299 109.203 86.6715 109.256 86.2117 109.253V109.253Z" fill="#2F2E41"/>
<path d="M96.0916 75.6126C95.6532 76.1835 94.1433 76.6884 92.3497 77.0958C92.3525 77.0585 92.3525 77.0212 92.3525 76.9839C92.3436 76.4127 92.2725 75.8441 92.1405 75.2884C92.0165 75.969 91.7552 76.6172 91.3726 77.1933C91.344 77.2364 91.3153 77.2794 91.2838 77.3224C89.7452 77.6265 88.1178 77.8618 86.8428 78.0196C87.7195 81.1812 91.0804 83.7747 90.7165 85.6969L80.869 87.7109C80.9295 86.9121 80.8657 86.1088 80.6799 85.3297C80.4915 86.3579 79.9936 87.3039 79.253 88.0408L78.4164 88.2129L78.1671 86.9822C76.0068 81.7865 79.0181 76.4675 83.9519 73.7162C84.8315 72.3958 86.1974 71.4777 87.7511 71.1628L88.9802 70.9103C89.7555 70.7515 90.5545 70.7471 91.3314 70.8975C92.1084 71.0479 92.8482 71.35 93.5085 71.7866C94.1689 72.2233 94.7369 72.7859 95.1801 73.4423C95.6233 74.0988 95.933 74.8362 96.0916 75.6126Z" fill="#2F2E41"/>
<path d="M119.616 175.008L119.761 171.729C121.279 170.917 122.972 170.488 124.694 170.479C122.325 172.418 122.621 176.157 121.015 178.765C120.508 179.574 119.825 180.259 119.018 180.769C118.21 181.278 117.299 181.599 116.35 181.708L114.368 182.923C114.096 181.405 114.156 179.845 114.544 178.352C114.932 176.859 115.638 175.468 116.614 174.275C117.169 173.611 117.805 173.02 118.507 172.515C118.981 173.768 119.616 175.008 119.616 175.008Z" fill="#F2F2F2"/>
<path d="M124.422 183H55.3866C55.2914 183 55.2001 182.962 55.1328 182.894C55.0655 182.827 55.0277 182.735 55.0277 182.64C55.0277 182.544 55.0655 182.453 55.1328 182.385C55.2001 182.318 55.2914 182.28 55.3866 182.279H124.422C124.469 182.279 124.516 182.288 124.56 182.306C124.604 182.324 124.643 182.351 124.677 182.384C124.711 182.418 124.737 182.458 124.755 182.501C124.773 182.545 124.783 182.592 124.783 182.64C124.783 182.687 124.773 182.734 124.755 182.778C124.737 182.822 124.711 182.861 124.677 182.895C124.643 182.928 124.604 182.955 124.56 182.973C124.516 182.991 124.469 183 124.422 183Z" fill="#CACACA"/>
</g>
</g>
<defs>
<clipPath id="clip0_0_1">
<rect width="200" height="200" fill="white"/>
</clipPath>
<clipPath id="clip1_0_1">
<rect width="260" height="167" fill="white" transform="translate(-14 16)"/>
</clipPath>
</defs>
</svg>
